<?xml version="1.0" encoding="utf-8"?>
<!-- Generator: Adobe Illustrator 23.0.1, SVG Export Plug-In . SVG Version: 6.00 Build 0)  -->
<svg version="1.1" id="Capa_1" height="45px" xmlns="http://www.w3.org/2000/svg" xmlns:xlink="http://www.w3.org/1999/xlink" x="0px" y="0px"
	 viewBox="0 0 183 57.83" style="enable-background:new 0 0 183 57.83;" xml:space="preserve">
<style type="text/css">
	.st0{fill:#FF5900;}
	.st1{fill:#231F20;}
</style>
<g>
	<path class="st0" d="M144.11,42.88l-6.96-19.58h3.66v-3.35h-15.04v3.35h3.66l-6.96,19.58h-2.36v3.35h9.2v-3.35h-3.22l1.84-5.51
		h10.72l1.84,5.51h-3.22v3.35h9.2v-3.35C146.47,42.88,144.11,42.88,144.11,42.88z M128.92,34.48l3.81-11.17h1.13l3.81,11.17H128.92z
		"/>
	<path class="st1" d="M145.25,41.27l-5.81-16.34h2.99v-6.58h-18.28v6.58h2.99l-5.81,16.34h-2.84v6.58h12.43v-6.58h-2.59l0.76-2.28
		h8.39l0.76,2.28h-2.59v6.58h12.43v-6.58C148.08,41.27,145.25,41.27,145.25,41.27z M146.47,46.23h-9.2v-3.35h3.22l-1.84-5.51h-10.72
		l-1.84,5.51h3.22v3.35h-9.2v-3.35h2.36l6.96-19.58h-3.66v-3.35h15.04v3.35h-3.66l6.96,19.58h2.36L146.47,46.23L146.47,46.23z"/>
	<path class="st1" d="M133.86,23.31h-1.13l-3.81,11.17h8.76L133.86,23.31z M131.18,32.86l2.12-6.21l2.12,6.21H131.18z"/>
	<path class="st0" d="M43.87,28.07l-2.25-6.33h1.17v-1.75h-5.87v1.75h1.17l-2.25,6.33h-0.92v1.75h3.81v-1.75h-1.02l0.46-1.37h3.37
		L42,28.07h-1.02v1.75h3.81v-1.75H43.87z M38.71,25.11l1.15-3.36l1.15,3.36H38.71z"/>
	<path class="st0" d="M95.63,28.07l-2.25-6.33h1.17v-1.75h-5.88v1.75h1.17l-2.25,6.33h-0.92v1.75h3.81v-1.75h-1.02l0.46-1.37h3.37
		l0.46,1.37h-1.02v1.75h3.81v-1.75H95.63z M90.46,25.11l1.15-3.36l1.15,3.36H90.46z"/>
	<polygon class="st0" points="45.71,28.06 46.68,28.06 46.68,21.74 45.71,21.74 45.71,19.99 48.7,19.99 52.99,26.7 52.99,21.74 
		51.97,21.74 51.97,19.99 55.76,19.99 55.76,21.74 54.79,21.74 54.79,29.82 52.93,29.82 48.51,22.88 48.51,28.06 49.52,28.06 
		49.52,29.82 45.71,29.82 	"/>
	<polygon class="st0" points="66.49,28.06 67.46,28.06 67.46,21.74 66.49,21.74 66.49,19.99 70.36,19.99 70.36,21.74 69.35,21.74 
		69.35,23.99 73.17,23.99 73.17,21.74 72.16,21.74 72.16,19.99 76.02,19.99 76.02,21.74 75.05,21.74 75.05,28.06 76.02,28.06 
		76.02,29.82 72.16,29.82 72.16,28.06 73.17,28.06 73.17,25.71 69.35,25.71 69.35,28.06 70.36,28.06 70.36,29.82 66.49,29.82 	"/>
	<path class="st0" d="M77.88,26.01v-4.27h-0.94v-1.75h3.88v1.75h-1.01v4.3c0,1.23,0.8,2.07,1.99,2.07c1.2,0,2.01-0.82,2.01-2.07
		v-4.3h-1v-1.75h3.87v1.75h-0.94v4.27c0,2.55-1.52,3.95-3.93,3.95C79.37,29.96,77.88,28.5,77.88,26.01"/>
	<path class="st0" d="M96.77,24.9c0-2.87,2.16-5.05,4.78-5.05c1.4,0,2.33,0.53,2.72,1.51v-1.37h1.79v3.6h-1.74
		c-0.3-1.21-1.13-1.89-2.6-1.89c-1.77,0-3.01,1.42-3.01,3.21c0,1.74,1.28,3.15,3.07,3.15c1.35,0,2.3-0.74,2.79-1.81l1.74,0.93
		c-0.84,1.64-2.45,2.78-4.51,2.78C98.85,29.96,96.77,27.69,96.77,24.9"/>
	<path class="st0" d="M64.66,28.07l-2.25-6.33h1.17v-1.75H57.7v1.75h1.17l-2.25,6.33H55.7v1.75h3.81v-1.75h-1.02l0.46-1.37h3.37
		l0.46,1.37h-1.02v1.75h3.81v-1.75H64.66z M59.5,25.11l1.15-3.36l1.15,3.36H59.5z"/>
	<polygon class="st0" points="59.49,19.07 61.06,16.54 63.49,16.54 61.26,19.07 	"/>
	<path class="st0" d="M40.38,41.07c0-2.77,2.23-5.03,5-5.03c2.79,0,5.03,2.25,5.03,5.03s-2.23,5.03-5.03,5.03
		C42.61,46.09,40.38,43.84,40.38,41.07 M48.48,41.07c0-1.73-1.34-3.16-3.1-3.16c-1.74,0-3.07,1.43-3.07,3.16
		c0,1.72,1.33,3.15,3.07,3.15C47.15,44.22,48.48,42.78,48.48,41.07"/>
	<path class="st0" d="M50.61,44.22h0.91l2.24-6.3h-1.17v-1.74h5.83v1.74h-1.14l2.24,6.3h0.92v1.74h-3.79v-1.74h0.99l-0.46-1.37
		h-3.35l-0.46,1.37h1.02v1.74H50.6v-1.74H50.61z M56.66,41.27l-1.14-3.34l-1.14,3.34H56.66z"/>
	<polygon class="st0" points="61.26,44.2 62.1,44.2 64.73,40.94 62.3,37.91 61.46,37.91 61.46,36.17 65.26,36.17 65.26,37.91 
		64.47,37.91 65.89,39.76 67.31,37.91 66.52,37.91 66.52,36.17 70.33,36.17 70.33,37.91 69.46,37.91 67.01,40.94 69.63,44.2 
		70.48,44.2 70.48,45.96 66.62,45.96 66.62,44.2 67.41,44.2 65.87,42.18 64.31,44.2 65.12,44.2 65.12,45.96 61.26,45.96 	"/>
	<path class="st0" d="M71.28,44.22h0.91l2.24-6.3h-1.17v-1.74h5.83v1.74h-1.14l2.24,6.3h0.92v1.74h-3.79v-1.74h0.99l-0.46-1.37H74.5
		l-0.46,1.37h1.02v1.74h-3.79v-1.74H71.28z M77.33,41.27l-1.14-3.34l-1.14,3.34H77.33z"/>
	<path class="st0" d="M81.32,41.07c0-2.86,2.14-5.03,4.76-5.03c1.39,0,2.32,0.52,2.71,1.5v-1.37h1.78v3.58h-1.73
		c-0.29-1.21-1.13-1.88-2.59-1.88c-1.76,0-2.99,1.41-2.99,3.19c0,1.73,1.27,3.14,3.06,3.14c1.34,0,2.29-0.74,2.77-1.8l1.73,0.92
		c-0.83,1.64-2.44,2.76-4.49,2.76C83.39,46.09,81.32,43.84,81.32,41.07"/>
	<path class="st0" d="M91.23,44.22h0.91l2.24-6.3h-1.17v-1.74h5.83v1.74H97.9l2.24,6.3h0.92v1.74h-3.79v-1.74h0.99l-0.46-1.37h-3.35
		l-0.46,1.37h1.02v1.74h-3.79v-1.74H91.23z M97.27,41.27l-1.14-3.34l-1.14,3.34H97.27z"/>
</g>
</svg>
