<?xml version="1.0" encoding="utf-8"?>
<!-- Generator: Adobe Illustrator 23.0.1, SVG Export Plug-In . SVG Version: 6.00 Build 0)  -->
<svg version="1.1" id="Capa_1" height="45px" xmlns="http://www.w3.org/2000/svg" xmlns:xlink="http://www.w3.org/1999/xlink" x="0px" y="0px"
	 viewBox="0 0 183 57.83" style="enable-background:new 0 0 183 57.83;" xml:space="preserve">
<style type="text/css">
	.st0{fill:#044883;}
	.st1{fill:#DF0A14;}
</style>
<g>
	<g>
		<path class="st0" d="M36.15,46.47h-4.06v-6.49h3.92v0.66h-3.2v2.04h1.86v0.66h-1.86v2.48h3.34V46.47z"/>
		<path class="st0" d="M38.19,46.47h-0.7V40.1l0.7-0.39V46.47z"/>
		<path class="st0" d="M46.72,44.55c0,0.63-0.18,1.11-0.54,1.43s-0.89,0.49-1.57,0.49h-2.33v-6.49h2.38c0.54,0,0.97,0.14,1.29,0.4
			c0.32,0.27,0.47,0.68,0.47,1.22c0,0.34-0.08,0.62-0.25,0.84s-0.4,0.38-0.69,0.49c0.36,0.09,0.64,0.25,0.84,0.47
			C46.58,43.68,46.72,44.07,46.72,44.55z M45.69,41.62c0-0.3-0.09-0.54-0.27-0.72s-0.45-0.27-0.8-0.27H43v2.02h1.57
			c0.38,0,0.67-0.09,0.85-0.28S45.69,41.93,45.69,41.62z M45.99,44.59c0-0.41-0.12-0.72-0.37-0.94c-0.25-0.22-0.58-0.33-1.01-0.33
			H43v2.5h1.65c0.47,0,0.81-0.11,1.03-0.32C45.89,45.28,45.99,44.98,45.99,44.59z"/>
		<path class="st0" d="M51.41,46.47h-0.7v-0.59c-0.19,0.21-0.4,0.38-0.62,0.49c-0.28,0.14-0.58,0.22-0.9,0.22
			c-0.44,0-0.79-0.11-1.07-0.33c-0.33-0.27-0.49-0.68-0.49-1.23c0-0.52,0.19-0.91,0.57-1.19c0.33-0.25,0.77-0.37,1.3-0.37
			c0.25,0,0.47,0.02,0.67,0.07s0.38,0.12,0.55,0.21v-0.58c0-0.72-0.35-1.08-1.06-1.08c-0.26,0-0.49,0.03-0.69,0.09
			s-0.41,0.15-0.64,0.28l-0.26-0.57c0.22-0.12,0.47-0.21,0.75-0.28s0.58-0.11,0.89-0.11c0.54,0,0.96,0.13,1.26,0.38
			s0.45,0.65,0.45,1.2L51.41,46.47L51.41,46.47z M50.72,45.27v-0.99c-0.17-0.09-0.35-0.16-0.54-0.21S49.75,44,49.47,44
			c-0.36,0-0.64,0.08-0.84,0.25c-0.2,0.16-0.3,0.4-0.3,0.71c0,0.35,0.09,0.62,0.26,0.79c0.17,0.17,0.42,0.26,0.73,0.26
			c0.3,0,0.56-0.07,0.8-0.2C50.36,45.68,50.55,45.5,50.72,45.27z"/>
		<path class="st0" d="M56.67,46.47h-0.7v-2.85c0-1.01-0.38-1.52-1.15-1.52c-0.36,0-0.64,0.12-0.85,0.35
			c-0.24,0.27-0.35,0.66-0.35,1.17v2.85h-0.7V41.6h0.7v0.59c0.14-0.21,0.33-0.38,0.56-0.51c0.23-0.13,0.49-0.19,0.79-0.19
			c0.54,0,0.96,0.16,1.26,0.49c0.3,0.32,0.45,0.83,0.45,1.52v2.97H56.67z"/>
		<path class="st0" d="M61.55,42.07l-0.42,0.52c-0.19-0.17-0.37-0.29-0.55-0.37c-0.18-0.08-0.39-0.12-0.62-0.12
			c-0.39,0-0.71,0.17-0.97,0.51c-0.25,0.34-0.38,0.8-0.38,1.4c0,0.6,0.12,1.08,0.37,1.44c0.25,0.36,0.58,0.53,1.01,0.53
			c0.22,0,0.42-0.04,0.6-0.13c0.17-0.09,0.35-0.22,0.53-0.4l0.42,0.45c-0.21,0.22-0.44,0.39-0.7,0.51
			c-0.25,0.12-0.54,0.18-0.87,0.18c-0.58,0-1.06-0.2-1.43-0.61c-0.41-0.45-0.62-1.09-0.62-1.91c0-0.84,0.22-1.5,0.65-1.96
			c0.38-0.4,0.86-0.6,1.44-0.6c0.32,0,0.6,0.05,0.85,0.15C61.11,41.74,61.34,41.88,61.55,42.07z"/>
		<path class="st0" d="M66.59,44c0,0.8-0.2,1.43-0.61,1.89s-0.91,0.69-1.53,0.69c-0.62,0-1.12-0.21-1.49-0.64
			c-0.4-0.46-0.6-1.09-0.6-1.9c0-0.8,0.21-1.43,0.62-1.9c0.39-0.43,0.89-0.65,1.51-0.65s1.12,0.21,1.49,0.63
			C66.39,42.57,66.59,43.2,66.59,44z M65.89,44.02c0-0.63-0.13-1.1-0.38-1.43s-0.6-0.49-1.04-0.49s-0.79,0.16-1.04,0.49
			s-0.38,0.8-0.38,1.44c0,0.63,0.13,1.11,0.38,1.45s0.6,0.51,1.03,0.51s0.78-0.17,1.04-0.5C65.77,45.14,65.89,44.65,65.89,44.02z"/>
		<path class="st0" d="M75.04,46.47h-0.68l-2.83-4.45l-0.47-0.81v0.45v4.82h-0.7v-6.49h0.71l2.81,4.53l0.47,0.81v-0.45v-4.9h0.7
			v6.49H75.04z"/>
		<path class="st0" d="M80.15,46.47h-0.7v-0.59c-0.19,0.21-0.4,0.38-0.62,0.49c-0.28,0.14-0.58,0.22-0.9,0.22
			c-0.44,0-0.79-0.11-1.07-0.33c-0.33-0.27-0.49-0.68-0.49-1.23c0-0.52,0.19-0.91,0.57-1.19c0.33-0.25,0.77-0.37,1.3-0.37
			c0.25,0,0.47,0.02,0.67,0.07s0.38,0.12,0.55,0.21v-0.58c0-0.72-0.35-1.08-1.06-1.08c-0.26,0-0.49,0.03-0.69,0.09
			s-0.41,0.15-0.64,0.28l-0.26-0.57c0.22-0.12,0.47-0.21,0.75-0.28s0.58-0.11,0.89-0.11c0.54,0,0.97,0.13,1.26,0.38
			c0.3,0.25,0.45,0.65,0.45,1.2L80.15,46.47L80.15,46.47z M79.46,45.27v-0.99c-0.17-0.09-0.34-0.16-0.54-0.21
			C78.73,44.02,78.49,44,78.21,44c-0.36,0-0.64,0.08-0.84,0.25c-0.2,0.16-0.3,0.4-0.3,0.71c0,0.35,0.09,0.62,0.26,0.79
			c0.17,0.17,0.42,0.26,0.73,0.26c0.3,0,0.56-0.07,0.8-0.2C79.1,45.68,79.3,45.5,79.46,45.27z"/>
		<path class="st0" d="M85.03,42.07l-0.42,0.52c-0.19-0.17-0.37-0.29-0.55-0.37c-0.18-0.08-0.39-0.12-0.62-0.12
			c-0.39,0-0.71,0.17-0.96,0.51s-0.38,0.8-0.38,1.4c0,0.6,0.12,1.08,0.37,1.44c0.25,0.36,0.58,0.53,1.01,0.53
			c0.22,0,0.42-0.04,0.6-0.13c0.17-0.09,0.35-0.22,0.53-0.4l0.42,0.45c-0.21,0.22-0.44,0.39-0.7,0.51
			c-0.25,0.12-0.54,0.18-0.87,0.18c-0.58,0-1.06-0.2-1.43-0.61c-0.41-0.45-0.62-1.09-0.62-1.91c0-0.84,0.22-1.5,0.65-1.96
			c0.38-0.4,0.86-0.6,1.44-0.6c0.32,0,0.6,0.05,0.85,0.15C84.59,41.74,84.82,41.88,85.03,42.07z"/>
		<path class="st0" d="M87.15,40.23c0,0.14-0.05,0.25-0.14,0.35c-0.1,0.1-0.21,0.14-0.34,0.14c-0.14,0-0.26-0.05-0.36-0.14
			s-0.15-0.21-0.15-0.35s0.05-0.25,0.15-0.35c0.1-0.1,0.22-0.15,0.36-0.15c0.13,0,0.24,0.05,0.34,0.14
			C87.1,39.97,87.15,40.09,87.15,40.23z M87,46.47h-0.7V41.6H87V46.47z"/>
		<path class="st0" d="M92.56,44c0,0.8-0.2,1.43-0.61,1.89s-0.91,0.69-1.53,0.69c-0.62,0-1.12-0.21-1.49-0.64
			c-0.4-0.46-0.6-1.09-0.6-1.9c0-0.8,0.21-1.43,0.62-1.9c0.39-0.43,0.89-0.65,1.51-0.65s1.12,0.21,1.49,0.63
			C92.36,42.57,92.56,43.2,92.56,44z M91.86,44.02c0-0.63-0.13-1.1-0.38-1.43s-0.6-0.49-1.04-0.49s-0.79,0.16-1.04,0.49
			s-0.38,0.8-0.38,1.44c0,0.63,0.13,1.11,0.38,1.45s0.6,0.51,1.03,0.51s0.78-0.17,1.04-0.5C91.73,45.14,91.86,44.65,91.86,44.02z"/>
		<path class="st0" d="M97.59,46.47h-0.7v-2.85c0-1.01-0.38-1.52-1.15-1.52c-0.36,0-0.64,0.12-0.85,0.35
			c-0.24,0.27-0.35,0.66-0.35,1.17v2.85h-0.7V41.6h0.7v0.59c0.14-0.21,0.33-0.38,0.56-0.51c0.23-0.13,0.49-0.19,0.79-0.19
			c0.54,0,0.96,0.16,1.26,0.49c0.3,0.32,0.45,0.83,0.45,1.52v2.97H97.59z"/>
		<path class="st0" d="M102.59,46.47h-0.7v-0.59c-0.19,0.21-0.4,0.38-0.62,0.49c-0.28,0.14-0.58,0.22-0.9,0.22
			c-0.44,0-0.79-0.11-1.07-0.33c-0.33-0.27-0.49-0.68-0.49-1.23c0-0.52,0.19-0.91,0.57-1.19c0.33-0.25,0.77-0.37,1.3-0.37
			c0.25,0,0.47,0.02,0.67,0.07s0.38,0.12,0.55,0.21v-0.58c0-0.72-0.35-1.08-1.06-1.08c-0.26,0-0.49,0.03-0.69,0.09
			s-0.41,0.15-0.64,0.28l-0.26-0.57c0.22-0.12,0.47-0.21,0.75-0.28s0.58-0.11,0.89-0.11c0.54,0,0.96,0.13,1.26,0.38
			s0.45,0.65,0.45,1.2L102.59,46.47L102.59,46.47z M101.89,45.27v-0.99c-0.17-0.09-0.35-0.16-0.54-0.21S100.92,44,100.64,44
			c-0.36,0-0.64,0.08-0.84,0.25c-0.2,0.16-0.3,0.4-0.3,0.71c0,0.35,0.09,0.62,0.26,0.79c0.17,0.17,0.42,0.26,0.73,0.26
			c0.3,0,0.56-0.07,0.8-0.2C101.53,45.68,101.73,45.5,101.89,45.27z"/>
		<path class="st0" d="M104.84,46.47h-0.7V40.1l0.7-0.39V46.47z"/>
		<path class="st0" d="M112.49,46.47h-0.7v-0.59c-0.19,0.21-0.4,0.37-0.61,0.49c-0.27,0.14-0.55,0.22-0.85,0.22
			c-0.51,0-0.92-0.2-1.23-0.59c-0.34-0.43-0.51-1.06-0.51-1.88c0-0.84,0.18-1.49,0.53-1.96c0.33-0.44,0.77-0.66,1.31-0.66
			c0.29,0,0.55,0.06,0.79,0.18c0.2,0.1,0.39,0.26,0.58,0.47V40.1l0.7-0.39v6.76H112.49z M111.79,45.27v-2.44
			c-0.14-0.22-0.33-0.39-0.55-0.53c-0.23-0.14-0.48-0.2-0.76-0.2c-0.39,0-0.69,0.17-0.9,0.51c-0.2,0.34-0.31,0.84-0.31,1.5
			c0,0.61,0.11,1.07,0.32,1.39s0.52,0.48,0.91,0.48c0.25,0,0.48-0.06,0.69-0.18C111.41,45.67,111.61,45.5,111.79,45.27z"/>
		<path class="st0" d="M117.74,43.89c0,0.14-0.01,0.27-0.03,0.38h-3.25c0,0.52,0.12,0.93,0.37,1.24s0.58,0.47,0.98,0.47
			c0.26,0,0.49-0.04,0.69-0.11c0.2-0.08,0.42-0.2,0.66-0.36l0.32,0.51c-0.31,0.19-0.59,0.33-0.85,0.43
			c-0.26,0.09-0.56,0.14-0.9,0.14c-0.53,0-0.97-0.19-1.32-0.56c-0.44-0.46-0.66-1.13-0.66-2.01c0-0.77,0.19-1.38,0.56-1.84
			s0.86-0.68,1.45-0.68c0.62,0,1.11,0.22,1.45,0.65C117.57,42.58,117.74,43.16,117.74,43.89z M117.09,43.7
			c0-0.49-0.11-0.88-0.34-1.17s-0.55-0.44-0.97-0.44c-0.38,0-0.69,0.13-0.93,0.39c-0.25,0.28-0.38,0.69-0.38,1.22
			C114.47,43.7,117.09,43.7,117.09,43.7z"/>
		<path class="st0" d="M127.14,46.47h-0.7v-4.4v-0.7c-0.02,0.1-0.08,0.27-0.17,0.5c-0.06,0.17-0.14,0.37-0.22,0.58l-1.74,4.18
			l-1.71-4.18c-0.06-0.14-0.13-0.32-0.21-0.57c-0.09-0.24-0.14-0.41-0.17-0.51v0.7v4.4h-0.7v-6.49h0.82l1.54,3.89
			c0.07,0.17,0.15,0.4,0.26,0.69c0.11,0.29,0.17,0.49,0.2,0.57c0.04-0.15,0.11-0.35,0.2-0.59c0.01-0.03,0.1-0.25,0.25-0.67
			l1.55-3.89h0.79v6.49H127.14z"/>
		<path class="st0" d="M132.47,43.89c0,0.14-0.01,0.27-0.03,0.38h-3.25c0,0.52,0.12,0.93,0.37,1.24s0.58,0.47,0.98,0.47
			c0.26,0,0.49-0.04,0.69-0.11c0.2-0.08,0.42-0.2,0.66-0.36l0.32,0.51c-0.31,0.19-0.59,0.33-0.85,0.43
			c-0.26,0.09-0.56,0.14-0.9,0.14c-0.53,0-0.97-0.19-1.32-0.56c-0.44-0.46-0.66-1.13-0.66-2.01c0-0.77,0.19-1.38,0.56-1.84
			s0.86-0.68,1.45-0.68c0.62,0,1.11,0.22,1.45,0.65C132.3,42.58,132.47,43.16,132.47,43.89z M131.82,43.7
			c0-0.49-0.11-0.88-0.34-1.17s-0.55-0.44-0.97-0.44c-0.38,0-0.69,0.13-0.93,0.39c-0.25,0.28-0.38,0.69-0.38,1.22
			C129.2,43.7,131.82,43.7,131.82,43.7z M132.05,39.46l-1.4,1.48h-0.55l0.96-1.48H132.05z"/>
		<path class="st0" d="M137.21,46.47h-0.77l-0.96-1.69l-0.15-0.27l-0.15,0.27l-0.97,1.69h-0.72l1.5-2.52l-1.4-2.35h0.77l0.87,1.51
			l0.15,0.27l0.14-0.27l0.88-1.51h0.72l-1.4,2.33L137.21,46.47z"/>
		<path class="st0" d="M139.34,40.23c0,0.14-0.05,0.25-0.14,0.35c-0.1,0.1-0.21,0.14-0.34,0.14c-0.14,0-0.26-0.05-0.36-0.14
			s-0.15-0.21-0.15-0.35s0.05-0.25,0.15-0.35c0.1-0.1,0.22-0.15,0.36-0.15c0.13,0,0.24,0.05,0.34,0.14
			C139.29,39.97,139.34,40.09,139.34,40.23z M139.19,46.47h-0.7V41.6h0.7V46.47z"/>
		<path class="st0" d="M144.15,42.07l-0.42,0.52c-0.19-0.17-0.37-0.29-0.55-0.37c-0.18-0.08-0.39-0.12-0.62-0.12
			c-0.39,0-0.71,0.17-0.97,0.51c-0.25,0.34-0.38,0.8-0.38,1.4c0,0.6,0.12,1.08,0.37,1.44c0.25,0.36,0.58,0.53,1.01,0.53
			c0.22,0,0.42-0.04,0.6-0.13c0.17-0.09,0.35-0.22,0.53-0.4l0.42,0.45c-0.21,0.22-0.44,0.39-0.7,0.51
			c-0.25,0.12-0.54,0.18-0.87,0.18c-0.58,0-1.06-0.2-1.43-0.61c-0.41-0.45-0.62-1.09-0.62-1.91c0-0.84,0.22-1.5,0.65-1.96
			c0.38-0.4,0.86-0.6,1.44-0.6c0.32,0,0.6,0.05,0.85,0.15C143.7,41.74,143.94,41.88,144.15,42.07z"/>
		<path class="st0" d="M149.18,44c0,0.8-0.2,1.43-0.61,1.89s-0.91,0.69-1.53,0.69c-0.62,0-1.12-0.21-1.49-0.64
			c-0.4-0.46-0.6-1.09-0.6-1.9c0-0.8,0.21-1.43,0.62-1.9c0.39-0.43,0.89-0.65,1.51-0.65s1.12,0.21,1.49,0.63
			C148.98,42.57,149.18,43.2,149.18,44z M148.49,44.02c0-0.63-0.13-1.1-0.38-1.43s-0.6-0.49-1.04-0.49s-0.79,0.16-1.04,0.49
			s-0.38,0.8-0.38,1.44c0,0.63,0.13,1.11,0.38,1.45s0.6,0.51,1.03,0.51s0.78-0.17,1.04-0.5C148.36,45.14,148.49,44.65,148.49,44.02z
			"/>
	</g>
	<path class="st1" d="M149.44,25.74c-0.57-0.19-1.17-0.36-1.73-0.5c0.3-0.35,0.8-0.97,1.18-1.48c0.39-0.53,0.58-0.94,0.58-1.36
		c0-0.35-0.14-0.72-0.4-1.17c-0.46-0.82-1.27-1.62-1.95-2.14c-0.5-0.36-1.26-0.8-1.98-0.8c-0.41,0-0.81,0.16-1.13,0.56
		c-0.36,0.48-0.71,0.99-1.01,1.47c-0.25-0.39-0.68-1.05-1.06-1.56c-0.56-0.71-1-1-1.67-1c-1.24,0-2.61,0.76-3.35,1.26
		c-0.59,0.43-1.49,1.14-1.49,2.01c0,0.26,0.09,0.54,0.31,0.83c0.35,0.49,0.73,0.98,1.09,1.41c-0.44,0.12-1.22,0.31-1.83,0.51
		c-1.2,0.39-1.69,0.92-1.69,2.48c0,0.67,0.1,1.46,0.39,2.31c0.29,0.9,0.92,2.47,2.37,1.99c0.57-0.18,1.16-0.39,1.7-0.6
		c-0.03,0.46-0.08,0.9-0.08,1.53c0,1.57,0.32,2.03,1.3,2.51c0.87,0.4,1.99,0.57,2.9,0.57c0.96,0,2.65-0.11,2.65-1.62
		c0-0.94-0.01-1.22-0.05-1.79c0.42,0.17,1.17,0.45,1.78,0.65c0.4,0.13,0.72,0.19,1.02,0.19c0.51,0,0.92-0.25,1.43-0.8
		c0.9-0.96,1.74-2.79,1.74-3.99C150.48,26.6,150.24,26,149.44,25.74 M138.93,21.49c1.1-0.79,2.24-0.96,3.09-0.96
		c0.33,0,0.61,0.02,0.81,0.06c-0.57,0.9-0.85,1.57-0.87,1.88c-0.02-0.07-0.19-0.56-0.88-0.56c-0.73,0-1.44,0.46-1.97,0.46
		c-0.37,0-0.47-0.3-0.47-0.44C138.64,21.8,138.71,21.64,138.93,21.49 M137.66,26.92c0.01,0.5-0.05,0.8-0.36,0.9
		c-0.22,0.07-0.48,0-0.6-0.4c-0.58-1.73,0.01-3.25,0.33-3.91c0.66,0.75,1.18,1.26,1.5,1.41c-0.06-0.01-0.12,0-0.19,0.04
		C137.57,25.2,137.64,26.28,137.66,26.92 M141.7,31.41c-1.89,0-3.17-1.03-3.66-1.53c0.45-0.2,0.88-0.39,1.18-0.57
		c0.21-0.12,0.43-0.25,0.61-0.43c-0.02,0.06-0.04,0.14-0.04,0.23c0,0.79,1.05,1.05,1.68,1.24c0.49,0.15,0.8,0.31,0.8,0.63
		C142.28,31.2,142.13,31.41,141.7,31.41 M143.86,28.61c-0.3-0.29-0.84-0.49-1.86-0.49c-0.92,0-1.63,0.14-1.99,0.46
		c0.08-0.17,0.14-0.38,0.14-0.66c0-0.32-0.07-0.69-0.24-1.19c-0.28-0.87-0.64-1.5-1.06-1.72c0.41,0.06,0.96-0.1,1.79-0.69
		c0.74-0.53,1.24-1.07,1.33-1.53c0.08,0.41,0.4,0.88,1.22,1.47c0.75,0.53,1.41,0.83,1.88,0.78c-0.37,0.2-0.73,0.65-1.05,1.6
		c-0.17,0.54-0.27,0.99-0.27,1.37C143.75,28.24,143.79,28.44,143.86,28.61 M146.41,29.26c-0.66,0.89-1.47,1.4-1.93,1.64
		c-0.04-0.52-0.1-0.99-0.17-1.33c-0.06-0.23-0.11-0.48-0.24-0.7c0.05,0.04,0.13,0.07,0.22,0.1c0.75,0.25,1.33-0.67,1.7-1.2
		c0.25-0.35,0.47-0.53,0.72-0.53c0.17,0,0.44,0.11,0.44,0.39C147.16,27.91,146.89,28.56,146.41,29.26 M145.71,24.9
		c-0.11,0-0.21,0.01-0.32,0.03c0.12-0.09,0.32-0.3,0.32-0.65c0-0.53-0.48-1.1-0.78-1.5c-0.22-0.29-0.36-0.52-0.36-0.73
		c0-0.22,0.2-0.43,0.42-0.43c0.12,0,0.24,0.05,0.39,0.15c1.53,1.09,1.95,2.66,2.06,3.4C146.78,25,146.1,24.9,145.71,24.9
		 M55.13,20.44h-2.45c-1.67-1.72-3.87-2.66-6.11-2.66c-2.28,0.01-4.44,0.94-6.11,2.66h-2.44c1.83-2.72,5.11-4.54,8.56-4.54
		C50.07,15.9,53.35,17.77,55.13,20.44"/>
	<path class="st0" d="M62.17,21.91c-1.09,0-2.11,0.51-2.86,1.21v-4.23l-2.09,1.12v12.5h2.09v-0.97c0.57,0.63,1.72,1.19,2.77,1.19
		c2.16,0,4.34-1.68,4.34-5.24C66.41,23.53,64.41,21.91,62.17,21.91 M61.88,30.85c-1.03,0-2.13-0.75-2.59-1.36v-4.37
		c0.53-0.67,1.54-1.32,2.51-1.32c1.5,0,2.57,1.15,2.57,3.76C64.36,29.74,63.34,30.85,61.88,30.85 M86.5,26.56v5.95h-2.09v-5.87
		c0-2.1-0.79-2.85-2.14-2.85c-1.36,0-2.21,0.97-2.21,2.65v6.07h-2.09V22.13h2.09v0.99c0.51-0.75,1.66-1.21,2.72-1.21
		C85.2,21.91,86.5,23.25,86.5,26.56 M71.96,21.91c-1.46,0-2.61,0.32-3.6,0.93l0.79,1.54c0.81-0.45,1.64-0.65,2.71-0.65
		c1.27,0,2.11,0.63,2.11,1.76v0.77c-0.57-0.26-1.42-0.4-2.39-0.4c-2.35,0-4.24,1.05-4.24,3.36c0,2.55,2.02,3.5,3.7,3.5
		c1.13,0,2.21-0.53,2.92-1.25v1.03h2.09v-7.12C76.06,23.04,74.27,21.91,71.96,21.91 M73.97,29.56c-0.47,0.65-1.5,1.32-2.59,1.32
		c-1.34,0-2.07-0.69-2.07-1.72c0-0.95,0.91-1.54,2.21-1.54c1.11,0,1.9,0.18,2.45,0.45V29.56z M92.37,21.91
		c-1.46,0-2.61,0.32-3.6,0.93l0.79,1.54c0.81-0.45,1.64-0.65,2.71-0.65c1.27,0,2.11,0.63,2.11,1.76v0.77
		c-0.57-0.26-1.42-0.4-2.39-0.4c-2.35,0-4.24,1.05-4.24,3.36c0,2.55,2.02,3.5,3.7,3.5c1.13,0,2.21-0.53,2.93-1.25v1.03h2.09v-7.12
		C96.48,23.04,94.68,21.91,92.37,21.91 M94.38,29.56c-0.47,0.65-1.5,1.32-2.59,1.32c-1.34,0-2.07-0.69-2.07-1.72
		c0-0.95,0.91-1.54,2.21-1.54c1.11,0,1.9,0.18,2.45,0.45V29.56z M112.67,26.48v6.03h-2.09v-5.87c0-2.1-0.65-2.85-2-2.85
		c-1.36,0-1.97,0.97-1.97,2.65v6.07h-2.09v-5.87c0-2.1-0.62-2.85-1.97-2.85c-1.36,0-2.07,0.97-2.07,2.65v6.07h-2.09V22.13h2.09v0.99
		c0.51-0.75,1.48-1.21,2.55-1.21c1.4,0,2.29,0.53,2.85,1.52c0.75-0.93,1.56-1.52,3.18-1.52C111.46,21.91,112.67,23,112.67,26.48
		 M123.32,27.11c0-2.81-1.58-5.2-4.53-5.2c-2.69,0-4.74,1.9-4.74,5.42c0,3.44,2.25,5.4,4.68,5.4c1.58,0,2.82-0.49,3.73-1.36
		l-1.13-1.33c-0.69,0.51-1.62,0.83-2.49,0.83c-1.27,0-2.55-0.82-2.77-2.82h7.17C123.28,27.82,123.32,27.49,123.32,27.11
		 M116.13,26.36c0.18-1.66,1.16-2.61,2.53-2.61c1.68,0,2.51,1.19,2.61,2.61H116.13z M132.27,32.51h-2.43l-0.99-1.8
		c-0.42-0.75-0.89-1.7-1.09-2.1c-0.18,0.4-0.73,1.4-1.13,2.12l-1.01,1.78h-2.31l3.19-5.38l-2.97-5h2.37l0.81,1.46
		c0.42,0.75,0.91,1.68,1.09,2.08c0.22-0.4,0.71-1.38,1.11-2.12l0.79-1.42h2.35l-2.99,5L132.27,32.51z M31.2,27.33
		c0,1.94,1.36,3.34,3.23,3.34c0.9,0,1.77-0.4,2.52-1.17L37,29.45l1.21,1.46l-0.03,0.04c-1.01,1.19-2.21,1.76-3.69,1.76
		s-2.84-0.5-3.82-1.4c-1.06-0.98-1.62-2.35-1.62-3.98s0.56-3,1.62-3.98c0.98-0.9,2.34-1.4,3.82-1.4s2.68,0.57,3.69,1.76l0.03,0.04
		L37,25.21l-0.05-0.05c-0.75-0.77-1.62-1.18-2.52-1.18C32.56,23.98,31.2,25.39,31.2,27.33 M39.42,22.12h2.13v10.39h-2.13V22.12z
		 M49.9,30.25l0.12-0.08l-0.51,2l-0.02,0.01c-0.35,0.21-0.93,0.5-1.89,0.48c-1.42-0.02-2.37-1.12-2.37-2.72v-5.87h-1.8v-1.95h1.8V20
		l2.09-1.12v3.24h2.16v1.95h-2.16v5.52c0,0.81,0.3,1.17,1,1.17C48.8,30.77,49.33,30.59,49.9,30.25 M51.66,22.12h2.13v10.39h-2.13
		V22.12z"/>
	<g>
		<path class="st0" d="M153.95,18.98c0,0.63-0.2,1.14-0.6,1.53c-0.4,0.39-0.91,0.59-1.51,0.59c-0.61,0-1.11-0.2-1.51-0.59
			c-0.4-0.4-0.6-0.9-0.6-1.53c0-0.63,0.2-1.14,0.6-1.53c0.4-0.39,0.9-0.59,1.51-0.59s1.11,0.2,1.51,0.59S153.95,18.35,153.95,18.98z
			 M153.66,18.98c0-0.54-0.17-0.99-0.52-1.33c-0.35-0.34-0.78-0.52-1.31-0.52c-0.52,0-0.96,0.17-1.31,0.52
			c-0.35,0.34-0.52,0.79-0.52,1.33c0,0.54,0.17,0.99,0.52,1.33c0.35,0.34,0.78,0.52,1.31,0.52c0.52,0,0.96-0.17,1.31-0.52
			C153.49,19.96,153.66,19.52,153.66,18.98z M152.77,18.44c0,0.17-0.05,0.32-0.14,0.43c-0.1,0.12-0.23,0.19-0.4,0.23l0.52,1h-0.36
			l-0.5-0.98h-0.5v0.98h-0.31v-2.34h0.95c0.23,0,0.41,0.06,0.54,0.17S152.77,18.21,152.77,18.44z M152.46,18.44
			c0-0.13-0.04-0.23-0.11-0.3c-0.08-0.07-0.19-0.1-0.34-0.1h-0.62v0.79h0.59C152.3,18.83,152.46,18.7,152.46,18.44z"/>
	</g>
</g>
</svg>
