<?xml version="1.0" encoding="utf-8"?>
<!-- Generator: Adobe Illustrator 23.0.1, SVG Export Plug-In . SVG Version: 6.00 Build 0)  -->
<svg version="1.1" id="Capa_1" xmlns="http://www.w3.org/2000/svg" xmlns:xlink="http://www.w3.org/1999/xlink" x="0px" y="0px"
	 viewBox="0 0 150 80" style="enable-background:new 0 0 150 80;" xml:space="preserve">
<style type="text/css">
	.st0{fill:#00496D;}
	.st1{fill:#272727;}
</style>
<g>
	<path class="st0" d="M19.13,24.47c0.17,1.04,0.24,2.1,0.52,3.1c0.64,2.38,2.18,4.15,4.08,5.64c2.23,1.74,4.75,2.93,7.34,4.02
		c2.31,0.97,4.65,1.91,6.94,2.92c0.7,0.31,1.35,0.75,1.94,1.24c0.92,0.75,1.01,1.56,0.43,2.59c-1.06,1.87-0.97,3.12,0.37,4.8
		c0.49,0.62,1,1.22,1.54,1.8c2.5,2.71,2.97,5.78,1.68,9.18c-0.17,0.45-0.39,0.89-0.53,1.35c-0.16,0.52-0.52,0.71-1.03,0.78
		c-4.92,0.64-9.64-0.06-14.06-2.34c-6.71-3.46-11.03-8.89-12.72-16.27c-1.52-6.65-0.32-12.89,3.37-18.64
		c0.04-0.06,0.07-0.11,0.11-0.16C19.13,24.47,19.15,24.47,19.13,24.47z"/>
	<path class="st1" d="M68.21,54.15c0-9.86,0-19.65,0-29.53c0.19,0,0.37,0,0.55,0c4.38,0,8.76,0,13.14,0c2.14,0,4.21,0.33,6.12,1.37
		c4.94,2.69,4.97,9.59,0.92,12.43c-0.09,0.07-0.18,0.14-0.32,0.26c0.3,0.16,0.57,0.31,0.84,0.46c2.91,1.57,4.19,4.05,4.01,7.3
		c-0.18,3.18-1.85,5.35-4.74,6.6c-1.92,0.84-3.96,1.13-6.04,1.13c-4.7,0.01-9.4,0-14.1,0C68.47,54.17,68.36,54.16,68.21,54.15z
		 M75.23,47.78c0.11,0.01,0.17,0.03,0.24,0.03c2.45,0,4.9,0.02,7.35-0.02c0.62-0.01,1.27-0.16,1.86-0.37
		c1.07-0.38,1.61-1.23,1.61-2.36c0-1.09-0.54-1.92-1.65-2.26c-0.74-0.23-1.54-0.37-2.32-0.39c-2.25-0.05-4.5-0.02-6.74-0.02
		c-0.11,0-0.22,0.03-0.35,0.05C75.23,44.21,75.23,45.97,75.23,47.78z M75.23,36.19c2.18,0,4.3,0.03,6.43-0.02
		c0.55-0.01,1.12-0.2,1.64-0.42c0.96-0.39,1.4-1.17,1.38-2.19c-0.02-1.01-0.49-1.77-1.45-2.07c-0.71-0.23-1.47-0.37-2.21-0.39
		c-1.79-0.05-3.59-0.02-5.38-0.02c-0.13,0-0.26,0.02-0.41,0.03C75.23,32.82,75.23,34.49,75.23,36.19z"/>
	<path class="st0" d="M45.78,60.97c0.79-1.14,1.52-2.33,2.39-3.4c2.55-3.18,5.17-6.31,7.73-9.48c0.55-0.69,1.08-1.42,1.48-2.2
		c0.82-1.64,0.44-2.97-1.07-4.02c-1.34-0.93-2.88-1.42-4.44-1.81c-3.15-0.78-6.31-1.47-9.46-2.24c-1.93-0.47-3.85-1.04-5.59-2.03
		c-0.89-0.51-1.77-1.11-2.49-1.84c-1.77-1.78-1.86-4.05-0.34-6.05c1.2-1.58,2.8-2.68,4.48-3.68c3.23-1.93,6.7-3.35,10.15-4.82
		c1.14-0.48,2.29-0.95,3.42-1.45c0.26-0.12,0.45-0.1,0.68,0.07c5.41,3.8,8.84,8.92,10.06,15.42c1.41,7.51-0.4,14.24-5.26,20.11
		c-3.03,3.65-6.89,6.12-11.43,7.52c-0.06,0.02-0.13,0.01-0.19,0.02C45.86,61.05,45.82,61.01,45.78,60.97z M42.79,33.4
		c0.15-0.02,0.42-0.03,0.68-0.08c0.74-0.16,0.93-0.6,0.42-1.18c-0.37-0.42-0.83-0.8-1.31-1.07c-1.43-0.79-2.94-1.11-4.53-0.45
		c-0.48,0.2-0.6,0.5-0.28,0.89c0.31,0.38,0.71,0.72,1.13,0.97C40.06,33.16,41.36,33.32,42.79,33.4z M47.78,34.65
		c0.16-0.09,0.43-0.25,0.7-0.41c-0.17-0.26-0.29-0.65-0.53-0.75c-0.69-0.3-1.43-0.52-2.17-0.68c-0.4-0.09-0.53,0.17-0.31,0.51
		C45.97,34.09,46.69,34.53,47.78,34.65z M51.61,36.25c-0.42-0.76-1.56-1.05-2.19-0.57C49.77,36.18,50.81,36.47,51.61,36.25z"/>
	<path class="st1" d="M107.71,54.2c0-9.88,0-19.68,0-29.54c0.18-0.01,0.35-0.02,0.53-0.02c3.71,0,7.42-0.01,11.13,0
		c3.47,0.01,6.72,0.82,9.59,2.83c3.62,2.52,5.61,6.04,5.97,10.42c0.38,4.59-0.92,8.63-4.22,11.93c-2.5,2.5-5.6,3.81-9.08,4.23
		c-1.05,0.13-2.11,0.15-3.16,0.16c-3.37,0.02-6.75,0.01-10.12,0.01C108.16,54.2,107.96,54.2,107.71,54.2z M114.97,47.59
		c1.76,0,3.49,0.08,5.2-0.02c3.36-0.2,5.96-2.21,6.92-5.24c0.44-1.38,0.5-2.79,0.35-4.23c-0.36-3.32-2.59-5.89-5.85-6.62
		c-2.15-0.48-4.34-0.22-6.52-0.25c-0.03,0-0.06,0.03-0.1,0.06C114.97,36.69,114.97,42.11,114.97,47.59z"/>
	<path class="st1" d="M103.68,54.15c-2.42,0-4.78,0-7.16,0c0-9.86,0-19.69,0-29.6c0.19,0,0.38,0,0.57,0
		c1.21,0.02,2.42-0.05,3.62,0.09c1.67,0.19,2.88,1.64,2.96,3.32c0.01,0.15,0.01,0.3,0.01,0.45c0,8.41,0,16.82,0,25.22
		C103.68,53.79,103.68,53.94,103.68,54.15z"/>
</g>
</svg>
