<?xml version="1.0" encoding="utf-8"?>
<!-- Generator: Adobe Illustrator 23.0.1, SVG Export Plug-In . SVG Version: 6.00 Build 0)  -->
<svg version="1.1" id="Capa_1" xmlns="http://www.w3.org/2000/svg" xmlns:xlink="http://www.w3.org/1999/xlink" x="0px" y="0px"
	 viewBox="0 0 150 80" style="enable-background:new 0 0 150 80;" xml:space="preserve">
<style type="text/css">
	.st0{fill:url(#SVGID_1_);}
	.st1{fill:#003E6C;}
	.st2{fill:#E5594A;}
	.st3{fill:#ED872A;}
	.st4{fill:#00933B;}
	.st5{fill:#3EA72E;}
	.st6{fill:#92124D;}
	.st7{fill:#DD287B;}
</style>
<g>
	<linearGradient id="SVGID_1_" gradientUnits="userSpaceOnUse" x1="20.398" y1="3.4484" x2="47.9231" y2="51.1233">
		<stop  offset="0" style="stop-color:#1EA3DB"/>
		<stop  offset="0.4153" style="stop-color:#2381B8"/>
		<stop  offset="0.7381" style="stop-color:#3073AC"/>
		<stop  offset="1" style="stop-color:#236EAD"/>
	</linearGradient>
	<path class="st0" d="M32.19,55.67c-3.55,0-6.9,0.1-10.24-0.03c-4.13-0.15-6.92-3.11-6.93-7.27c-0.03-12.51-0.03-25.01,0-37.52
		c0.01-4.3,3.01-7.24,7.32-7.26c6.22-0.03,12.45,0.05,18.67-0.03C50.15,3.45,58,9.49,60.97,18.17c2.28,6.65,2.26,13.15,1.05,19.9
		c-1.11,6.2-8.24,11.13-14.22,10.8c-2.04-0.11-4.1-0.02-6.12-0.55c-3.57-0.94-6.05-2.97-7.15-6.62c-0.45-1.51-0.34-2.05,1.43-2.03
		c7.15,0.08,14.31-0.02,21.47,0.06c1.56,0.02,2-0.42,1.95-1.96c-0.1-2.86-0.04-5.71-0.7-8.53c-2.06-8.81-8.81-14.19-17.89-14.12
		c-10.62,0.08-17.83,6.75-19.39,16.1c-1.64,9.85,0.77,18.79,10.57,24.05C32.03,55.29,32.04,55.37,32.19,55.67z"/>
	<g>
		<g>
			<path class="st1" d="M35.17,62.86V50.79h4.28c4.29,0,6.43,1.96,6.43,5.89c0,1.88-0.59,3.38-1.76,4.5
				c-1.17,1.12-2.73,1.68-4.68,1.68H35.17z M37.89,53v7.65h1.35c1.18,0,2.1-0.35,2.77-1.06c0.67-0.71,1.01-1.67,1.01-2.89
				c0-1.15-0.33-2.06-1-2.72c-0.67-0.66-1.6-0.99-2.8-0.99H37.89z"/>
			<path class="st1" d="M49.4,52.87c-0.45,0-0.82-0.13-1.1-0.4s-0.43-0.59-0.43-0.98c0-0.4,0.14-0.72,0.43-0.98
				c0.29-0.25,0.65-0.38,1.1-0.38c0.45,0,0.82,0.13,1.11,0.38c0.28,0.25,0.43,0.58,0.43,0.98c0,0.4-0.14,0.74-0.43,0.99
				C50.22,52.74,49.85,52.87,49.4,52.87z M50.71,62.86h-2.66v-8.62h2.66V62.86z"/>
			<path class="st1" d="M52.82,62.63v-2.16c0.44,0.26,0.87,0.46,1.31,0.59c0.43,0.13,0.85,0.19,1.23,0.19
				c0.47,0,0.84-0.06,1.12-0.19c0.27-0.13,0.41-0.33,0.41-0.59c0-0.17-0.06-0.31-0.19-0.42c-0.12-0.11-0.28-0.21-0.48-0.29
				c-0.19-0.08-0.41-0.16-0.64-0.23c-0.23-0.07-0.45-0.14-0.67-0.23c-0.34-0.13-0.64-0.27-0.91-0.42c-0.26-0.15-0.48-0.32-0.66-0.52
				c-0.18-0.2-0.31-0.42-0.4-0.68c-0.09-0.26-0.14-0.56-0.14-0.92c0-0.48,0.11-0.9,0.32-1.25s0.49-0.63,0.84-0.85
				c0.35-0.22,0.75-0.38,1.2-0.49c0.45-0.1,0.92-0.16,1.41-0.16c0.38,0,0.77,0.03,1.16,0.09c0.39,0.06,0.78,0.14,1.16,0.26v2.05
				c-0.34-0.2-0.7-0.34-1.08-0.44s-0.76-0.15-1.13-0.15c-0.17,0-0.34,0.02-0.49,0.05c-0.15,0.03-0.29,0.08-0.41,0.13
				c-0.12,0.06-0.21,0.13-0.28,0.23c-0.07,0.09-0.1,0.2-0.1,0.32c0,0.16,0.05,0.29,0.15,0.4c0.1,0.11,0.23,0.21,0.4,0.29
				c0.16,0.08,0.34,0.15,0.54,0.22s0.4,0.13,0.59,0.2c0.35,0.12,0.67,0.26,0.96,0.4c0.29,0.15,0.53,0.32,0.74,0.51
				c0.21,0.2,0.36,0.43,0.47,0.69c0.11,0.26,0.16,0.58,0.16,0.94c0,0.51-0.11,0.95-0.33,1.31c-0.22,0.36-0.52,0.66-0.88,0.88
				c-0.37,0.23-0.79,0.39-1.27,0.5c-0.48,0.1-0.98,0.16-1.49,0.16C54.5,63.07,53.63,62.92,52.82,62.63z"/>
			<path class="st1" d="M66.61,62.76c-0.39,0.21-0.99,0.31-1.78,0.31c-1.87,0-2.81-0.97-2.81-2.92V56.2h-1.4v-1.96h1.4v-1.86
				l2.65-0.76v2.62h1.94v1.96h-1.94v3.49c0,0.9,0.36,1.35,1.07,1.35c0.28,0,0.57-0.08,0.87-0.24V62.76z"/>
			<path class="st1" d="M74.16,56.64c-0.32-0.17-0.69-0.26-1.12-0.26c-0.58,0-1.03,0.21-1.36,0.64c-0.33,0.42-0.49,1-0.49,1.73v4.12
				h-2.66v-8.62h2.66v1.6h0.03c0.42-1.17,1.18-1.75,2.27-1.75c0.28,0,0.5,0.03,0.66,0.1V56.64z"/>
			<path class="st1" d="M77.18,52.87c-0.45,0-0.82-0.13-1.1-0.4c-0.29-0.27-0.43-0.59-0.43-0.98c0-0.4,0.14-0.72,0.43-0.98
				c0.29-0.25,0.65-0.38,1.1-0.38c0.45,0,0.82,0.13,1.11,0.38c0.28,0.25,0.43,0.58,0.43,0.98c0,0.4-0.14,0.74-0.43,0.99
				C78,52.74,77.64,52.87,77.18,52.87z M78.49,62.86h-2.66v-8.62h2.66V62.86z"/>
			<path class="st1" d="M86.38,62.76c-0.39,0.21-0.99,0.31-1.78,0.31c-1.87,0-2.81-0.97-2.81-2.92V56.2h-1.4v-1.96h1.4v-1.86
				l2.65-0.76v2.62h1.94v1.96h-1.94v3.49c0,0.9,0.36,1.35,1.07,1.35c0.28,0,0.57-0.08,0.87-0.24V62.76z"/>
			<path class="st1" d="M92.41,63.07c-1.44,0-2.57-0.4-3.39-1.21c-0.82-0.81-1.23-1.9-1.23-3.28c0-1.43,0.43-2.54,1.28-3.35
				c0.85-0.81,2.01-1.21,3.46-1.21c1.43,0,2.55,0.4,3.37,1.21c0.81,0.81,1.22,1.87,1.22,3.19c0,1.43-0.42,2.56-1.26,3.39
				C95.02,62.65,93.87,63.07,92.41,63.07z M92.48,56.07c-0.63,0-1.12,0.22-1.47,0.65c-0.35,0.43-0.52,1.04-0.52,1.84
				c0,1.66,0.67,2.48,2,2.48c1.27,0,1.91-0.85,1.91-2.55C94.41,56.87,93.77,56.07,92.48,56.07z"/>
		</g>
		<g>
			<path class="st1" d="M42.37,69.58h-5.13c0.08,1.14,0.8,1.71,2.16,1.71c0.87,0,1.63-0.2,2.28-0.61v1.75
				c-0.73,0.39-1.67,0.58-2.83,0.58c-1.27,0-2.26-0.35-2.96-1.06c-0.7-0.7-1.05-1.69-1.05-2.95c0-1.31,0.38-2.34,1.14-3.1
				c0.76-0.76,1.69-1.14,2.8-1.14c1.15,0,2.03,0.34,2.66,1.02c0.63,0.68,0.94,1.61,0.94,2.77V69.58z M40.12,68.09
				c0-1.13-0.46-1.69-1.37-1.69c-0.39,0-0.73,0.16-1.01,0.48c-0.28,0.32-0.46,0.72-0.52,1.21H40.12z"/>
			<path class="st1" d="M56.31,72.82h-2.42v-4.49c0-1.14-0.42-1.71-1.26-1.71c-0.4,0-0.72,0.17-0.98,0.51
				c-0.25,0.34-0.38,0.77-0.38,1.28v4.4h-2.43v-4.53c0-1.11-0.41-1.67-1.24-1.67c-0.41,0-0.75,0.16-0.99,0.49s-0.37,0.77-0.37,1.34
				v4.37h-2.43v-7.86h2.43v1.23h0.03c0.25-0.42,0.6-0.76,1.06-1.03s0.95-0.4,1.49-0.4c1.11,0,1.87,0.49,2.28,1.47
				c0.6-0.98,1.48-1.47,2.64-1.47c1.71,0,2.57,1.05,2.57,3.16V72.82z"/>
			<path class="st1" d="M60.68,71.91h-0.03v4.53h-2.43V64.96h2.43v1.18h0.03c0.6-0.92,1.44-1.37,2.53-1.37
				c1.02,0,1.81,0.35,2.36,1.05c0.56,0.7,0.83,1.65,0.83,2.85c0,1.31-0.32,2.36-0.97,3.16c-0.65,0.79-1.51,1.19-2.58,1.19
				C61.9,73.01,61.18,72.64,60.68,71.91z M60.61,68.68v0.63c0,0.54,0.14,0.99,0.43,1.33s0.66,0.51,1.13,0.51
				c0.55,0,0.98-0.21,1.29-0.64c0.3-0.43,0.46-1.03,0.46-1.82c0-1.38-0.54-2.07-1.61-2.07c-0.5,0-0.9,0.19-1.22,0.56
				C60.77,67.56,60.61,68.06,60.61,68.68z"/>
			<path class="st1" d="M73.11,67.15c-0.29-0.16-0.63-0.24-1.02-0.24c-0.53,0-0.94,0.19-1.24,0.58c-0.3,0.39-0.45,0.91-0.45,1.58
				v3.76h-2.43v-7.86h2.43v1.46h0.03c0.38-1.06,1.08-1.6,2.07-1.6c0.26,0,0.46,0.03,0.6,0.09V67.15z"/>
			<path class="st1" d="M81.31,69.58h-5.13c0.08,1.14,0.8,1.71,2.16,1.71c0.87,0,1.63-0.2,2.28-0.61v1.75
				c-0.73,0.39-1.67,0.58-2.83,0.58c-1.27,0-2.26-0.35-2.96-1.06c-0.7-0.7-1.05-1.69-1.05-2.95c0-1.31,0.38-2.34,1.14-3.1
				c0.76-0.76,1.69-1.14,2.8-1.14c1.15,0,2.03,0.34,2.66,1.02c0.63,0.68,0.94,1.61,0.94,2.77V69.58z M79.06,68.09
				c0-1.13-0.46-1.69-1.37-1.69c-0.39,0-0.73,0.16-1.01,0.48c-0.28,0.32-0.46,0.72-0.52,1.21H79.06z"/>
			<path class="st1" d="M90.35,72.82h-2.42v-4.37c0-1.22-0.44-1.83-1.31-1.83c-0.42,0-0.77,0.16-1.04,0.48s-0.41,0.73-0.41,1.23
				v4.49h-2.43v-7.86h2.43v1.24h0.03c0.58-0.96,1.42-1.44,2.53-1.44c1.74,0,2.61,1.08,2.61,3.24V72.82z"/>
			<path class="st1" d="M99.96,72.82h-2.43v-1.08H97.5c-0.55,0.85-1.36,1.28-2.43,1.28c-0.98,0-1.77-0.35-2.37-1.04
				c-0.6-0.69-0.9-1.66-0.9-2.91c0-1.3,0.33-2.34,0.99-3.13c0.66-0.78,1.53-1.18,2.6-1.18c1.01,0,1.72,0.36,2.12,1.09h0.03v-4.68
				h2.43V72.82z M97.58,69V68.4c0-0.51-0.15-0.94-0.45-1.28c-0.3-0.34-0.68-0.51-1.16-0.51c-0.54,0-0.96,0.21-1.26,0.63
				c-0.3,0.42-0.45,1-0.45,1.74c0,0.69,0.15,1.22,0.44,1.6c0.29,0.37,0.7,0.56,1.21,0.56c0.49,0,0.89-0.2,1.2-0.59
				C97.43,70.17,97.58,69.65,97.58,69z"/>
			<path class="st1" d="M109.07,69.58h-5.13c0.08,1.14,0.8,1.71,2.16,1.71c0.87,0,1.63-0.2,2.28-0.61v1.75
				c-0.73,0.39-1.67,0.58-2.83,0.58c-1.27,0-2.26-0.35-2.96-1.06c-0.7-0.7-1.05-1.69-1.05-2.95c0-1.31,0.38-2.34,1.14-3.1
				c0.76-0.76,1.69-1.14,2.8-1.14c1.15,0,2.03,0.34,2.66,1.02c0.63,0.68,0.94,1.61,0.94,2.77V69.58z M106.82,68.09
				c0-1.13-0.46-1.69-1.37-1.69c-0.39,0-0.73,0.16-1.01,0.48c-0.28,0.32-0.46,0.72-0.52,1.21H106.82z"/>
			<path class="st1" d="M118.21,72.82h-2.43v-1.08h-0.03c-0.55,0.85-1.36,1.28-2.43,1.28c-0.98,0-1.77-0.35-2.37-1.04
				s-0.9-1.66-0.9-2.91c0-1.3,0.33-2.34,0.99-3.13c0.66-0.78,1.53-1.18,2.6-1.18c1.01,0,1.72,0.36,2.12,1.09h0.03v-4.68h2.43V72.82z
				 M115.83,69V68.4c0-0.51-0.15-0.94-0.45-1.28c-0.3-0.34-0.68-0.51-1.16-0.51c-0.54,0-0.96,0.21-1.26,0.63
				c-0.3,0.42-0.45,1-0.45,1.74c0,0.69,0.15,1.22,0.44,1.6c0.29,0.37,0.7,0.56,1.21,0.56c0.49,0,0.89-0.2,1.2-0.59
				C115.67,70.17,115.83,69.65,115.83,69z"/>
			<path class="st1" d="M124,73.01c-1.31,0-2.34-0.37-3.09-1.1c-0.75-0.73-1.13-1.73-1.13-2.99c0-1.3,0.39-2.32,1.17-3.05
				c0.78-0.73,1.83-1.1,3.16-1.1c1.31,0,2.33,0.37,3.07,1.1c0.74,0.73,1.11,1.71,1.11,2.91c0,1.31-0.38,2.34-1.15,3.1
				C126.38,72.63,125.33,73.01,124,73.01z M124.06,66.62c-0.57,0-1.02,0.2-1.34,0.59c-0.32,0.39-0.48,0.95-0.48,1.67
				c0,1.51,0.61,2.27,1.83,2.27c1.16,0,1.74-0.78,1.74-2.33C125.82,67.36,125.24,66.62,124.06,66.62z"/>
			<path class="st1" d="M135,67.15c-0.29-0.16-0.63-0.24-1.02-0.24c-0.53,0-0.94,0.19-1.24,0.58c-0.3,0.39-0.45,0.91-0.45,1.58v3.76
				h-2.43v-7.86h2.43v1.46h0.03c0.38-1.06,1.08-1.6,2.07-1.6c0.26,0,0.46,0.03,0.6,0.09V67.15z"/>
		</g>
	</g>
	<g>
		<polygon class="st2" points="49.41,22.83 52.15,24.07 52.15,33.32 49.41,33.32 		"/>
		<rect x="49.41" y="20.55" class="st2" width="0.38" height="2.4"/>
		<polygon class="st3" points="49.5,22.73 51.18,24.07 51.18,33.32 47.08,33.32 47.08,23.91 		"/>
		<g>
			<polygon class="st4" points="44.06,18.35 48.78,20.78 46.96,33.15 44.06,33.15 			"/>
			<polygon class="st5" points="39.48,20.74 44.06,18.35 44.06,33.15 40.2,33.15 			"/>
		</g>
		<g>
			<path class="st6" d="M38.06,21.78c0,0,3.22,2.36,3.71,6.05v5.49h-7.52V27.2C34.25,27.2,35.02,23.84,38.06,21.78z"/>
			<path class="st7" d="M38,21.78c0,0,2.96,8.34-4.02,11.53C33.97,33.32,32.47,25.51,38,21.78z"/>
		</g>
	</g>
</g>
</svg>
