<?xml version="1.0" encoding="utf-8"?>
<!-- Generator: Adobe Illustrator 23.0.1, SVG Export Plug-In . SVG Version: 6.00 Build 0)  -->
<svg version="1.1" id="Capa_1" xmlns="http://www.w3.org/2000/svg" xmlns:xlink="http://www.w3.org/1999/xlink" x="0px" y="0px"
	 viewBox="0 0 150 80" style="enable-background:new 0 0 150 80;" xml:space="preserve">
<style type="text/css">
	.st0{fill:#AA2218;}
	.st1{fill:#FFFFFF;}
	.st2{fill:#2F3030;}
</style>
<g>
	<path class="st0" d="M0.5,21.36c12.67,0,25.34,0,38,0c0,12.42,0,24.85,0,37.27c-0.09,0-0.17,0-0.26,0c-12.5,0-24.99,0-37.49,0
		c-0.08,0-0.17,0-0.26,0c0-0.11,0-0.19,0-0.28c0-12.25,0-24.49,0-36.74C0.5,21.53,0.5,21.45,0.5,21.36z M26.01,51.49
		c0.16,0,0.29,0,0.41,0c0.81,0,1.63,0,2.44-0.01c0.69-0.01,1.39,0,2.07-0.08c1.34-0.16,2.32-0.96,2.47-2.34
		c0.14-1.25-0.42-2.45-1.94-2.71c0.08-0.03,0.14-0.04,0.2-0.06c0.57-0.18,1.04-0.5,1.32-1.05c0.7-1.37,0.04-2.99-1.43-3.51
		c-0.6-0.21-1.22-0.24-1.85-0.23c-1.09,0.02-2.19,0.02-3.28,0.03c-0.17,0-0.33,0.02-0.52,0.03C25.94,44.87,25.98,48.18,26.01,51.49z
		 M11.4,51.63c0.8,0,1.56,0,2.34,0c-0.03-3.33-0.06-6.64-0.1-9.94c-0.78,0-1.54,0-2.3,0c0,1.35,0,2.67,0,4.02c-1.13,0-2.25,0-3.38,0
		c0-0.04-0.01-0.09-0.01-0.13C7.93,44.79,7.92,44,7.91,43.21c0-0.45-0.01-0.9-0.01-1.35c0-0.09-0.01-0.15-0.12-0.15
		c-0.53,0.01-1.06,0.02-1.59,0.02c-0.2,0-0.4,0-0.62,0c0.03,3.34,0.07,6.65,0.1,9.94c0.79,0,1.55,0,2.3,0c0-1.33,0-2.63,0-3.95
		c1.13,0,2.26,0,3.43,0C11.4,49.03,11.4,50.33,11.4,51.63z M21.49,41.58c0,0.18,0,0.33,0,0.49c0,0.89,0.01,1.79,0.01,2.68
		c0.01,1.19,0.03,2.37,0.02,3.56c-0.01,0.73-0.48,1.28-1.17,1.44c-0.21,0.05-0.43,0.06-0.65,0.05c-0.79-0.01-1.4-0.51-1.52-1.3
		c-0.06-0.39-0.06-0.8-0.07-1.2c-0.02-1.73-0.03-3.47-0.05-5.2c0-0.16,0-0.31,0-0.46c-0.78,0-1.54,0-2.3,0
		c0,0.06-0.01,0.09-0.01,0.13c0.01,0.9,0.02,1.8,0.03,2.7c0.01,0.82,0,1.64,0.02,2.46c0.01,0.65,0,1.31,0.08,1.95
		c0.15,1.18,0.78,2.06,1.88,2.54c1.08,0.48,2.21,0.49,3.34,0.25c0.77-0.16,1.45-0.51,1.97-1.13c0.55-0.65,0.77-1.41,0.78-2.24
		c0.01-0.84-0.01-1.68-0.02-2.52c-0.01-1.3-0.02-2.6-0.04-3.9c0-0.11-0.01-0.21-0.01-0.31C23.01,41.58,22.26,41.58,21.49,41.58z
		 M10.95,38.32c-0.04-0.1-0.06-0.15-0.08-0.2c-0.33-0.85-0.65-1.7-0.99-2.55c-0.02-0.06-0.09-0.15-0.14-0.15
		c-0.48-0.01-0.97-0.01-1.44-0.01c0,1.68,0,3.34,0,4.99c0.49,0,0.94,0,1.4,0c0-0.67,0-1.32,0-1.97c0.04,0.04,0.06,0.09,0.08,0.14
		c0.2,0.57,0.41,1.13,0.61,1.7c0.04,0.1,0.08,0.15,0.19,0.14c0.26-0.01,0.52-0.02,0.78-0.02c0.1,0,0.15-0.03,0.18-0.13
		c0.08-0.28,0.18-0.55,0.27-0.83c0.11-0.34,0.22-0.67,0.33-1.01c0.02,0,0.04,0.01,0.06,0.01c0,0.65,0,1.29,0,1.93
		c0.48,0,0.93,0,1.36,0c0-1.67,0-3.32,0-4.98c-0.51,0-0.98,0-1.44,0c-0.05,0-0.12,0.06-0.14,0.11c-0.09,0.22-0.17,0.44-0.25,0.67
		C11.48,36.86,11.22,37.57,10.95,38.32z M27.59,38.18c-0.12,0.22-0.19,0.42-0.32,0.56c-0.5,0.54-1.58,0.34-1.87-0.33
		c-0.13-0.29-0.13-0.59-0.11-0.89c0.05-0.61,0.4-0.99,1-1.07c0.54-0.08,1.02,0.16,1.17,0.6c0.03,0.07,0.05,0.15,0.07,0.22
		c0.5,0,0.99,0,1.49,0c-0.03-0.47-0.15-0.89-0.43-1.25c-0.49-0.63-1.18-0.87-1.95-0.9c-1.67-0.07-2.78,0.92-2.84,2.53
		c-0.05,1.22,0.59,2.21,1.66,2.57c0.74,0.25,1.49,0.22,2.21-0.06c0.52-0.2,0.91-0.55,1.15-1.06c0.13-0.29,0.2-0.59,0.2-0.91
		C28.51,38.18,28.02,38.18,27.59,38.18z M16.26,39.06c0.22,0,0.43,0,0.64,0c1.03,0,1.75-0.6,1.88-1.61c0.15-1.19-0.67-2.1-1.8-2.1
		c-0.44,0-0.89,0-1.33,0c-0.28,0-0.57,0-0.84,0c0,1.68,0,3.34,0,4.99c0.51,0,0.98,0,1.45,0C16.26,39.91,16.26,39.5,16.26,39.06z
		 M23.56,40.28c-0.01-0.04-0.01-0.06-0.01-0.08c-0.56-1.6-1.12-3.2-1.68-4.79c-0.02-0.05-0.11-0.11-0.17-0.11
		c-0.35-0.01-0.71,0.01-1.06,0c-0.13,0-0.17,0.05-0.21,0.16c-0.51,1.56-1.02,3.12-1.53,4.67c-0.02,0.05-0.03,0.11-0.04,0.17
		c0.37,0,0.72,0,1.06,0c0.45,0,0.45-0.01,0.57-0.42c0.01-0.02,0.01-0.05,0.02-0.07c0.02-0.03,0.06-0.07,0.08-0.07
		c0.43,0,0.86,0,1.29,0c0.04,0.15,0.08,0.29,0.13,0.43c0.02,0.05,0.1,0.11,0.15,0.11C22.62,40.29,23.08,40.28,23.56,40.28z
		 M30.57,36.55c0,1.23,0,2.44,0,3.64c0.5,0,0.96,0,1.43,0c0-1.23,0-2.44,0-3.68c0.42,0,0.83,0,1.24,0c0-0.45,0-0.89,0-1.29
		c-1.33,0-2.65,0-3.95,0c0,0.47,0,0.9,0,1.34C29.71,36.55,30.12,36.55,30.57,36.55z M5.64,35.45c0,1.68,0,3.33,0,4.97
		c0.5,0,0.97,0,1.41,0c0-1.68,0-3.32,0-4.97C6.55,35.45,6.09,35.45,5.64,35.45z"/>
	<path class="st1" d="M26.01,51.49c-0.03-3.31-0.07-6.62-0.1-9.94c0.18-0.01,0.35-0.03,0.52-0.03c1.09-0.01,2.19,0,3.28-0.03
		c0.63-0.01,1.25,0.02,1.85,0.23c1.47,0.52,2.13,2.13,1.43,3.51c-0.28,0.55-0.75,0.87-1.32,1.05c-0.06,0.02-0.11,0.04-0.2,0.06
		c1.52,0.26,2.08,1.46,1.94,2.71c-0.15,1.38-1.13,2.18-2.47,2.34c-0.69,0.08-1.38,0.07-2.07,0.08c-0.81,0.01-1.63,0.01-2.44,0.01
		C26.29,51.49,26.17,51.49,26.01,51.49z M28.31,49.69c0.56,0,1.08,0.02,1.61,0c0.66-0.03,1.13-0.49,1.17-1.12
		c0.05-0.7-0.31-1.2-0.99-1.33c-0.29-0.05-0.6-0.03-0.91-0.03c-0.3,0-0.59,0-0.88,0C28.31,48.05,28.31,48.87,28.31,49.69z
		 M28.27,45.57c0.49,0,0.94,0,1.39,0c0.14,0,0.28-0.03,0.41-0.07c0.65-0.19,0.86-0.64,0.86-1.14c-0.01-0.61-0.35-1.05-0.94-1.12
		c-0.57-0.07-1.15-0.05-1.72-0.07C28.27,44,28.27,44.78,28.27,45.57z"/>
	<path class="st1" d="M11.4,51.63c0-1.3,0-2.6,0-3.9c-1.16,0-2.29,0-3.43,0c0,1.33,0,2.62,0,3.95c-0.75,0-1.51,0-2.3,0
		c-0.03-3.29-0.07-6.6-0.1-9.94c0.22,0,0.42,0,0.62,0c0.53-0.01,1.06-0.01,1.59-0.02c0.12,0,0.12,0.06,0.12,0.15
		c0,0.45,0.01,0.9,0.01,1.35c0.01,0.79,0.02,1.58,0.02,2.37c0,0.05,0.01,0.09,0.01,0.13c1.13,0,2.25,0,3.38,0c0-1.35,0-2.67,0-4.02
		c0.76,0,1.52,0,2.3,0c0.03,3.29,0.06,6.6,0.1,9.94C12.95,51.63,12.19,51.63,11.4,51.63z"/>
	<path class="st1" d="M21.49,41.58c0.77,0,1.52,0,2.3,0c0,0.09,0.01,0.2,0.01,0.31c0.01,1.3,0.02,2.6,0.04,3.9
		c0.01,0.84,0.03,1.68,0.02,2.52c-0.01,0.83-0.23,1.6-0.78,2.24c-0.52,0.61-1.2,0.96-1.97,1.13c-1.14,0.24-2.26,0.22-3.34-0.25
		c-1.1-0.49-1.73-1.36-1.88-2.54c-0.08-0.64-0.07-1.3-0.08-1.95c-0.01-0.82-0.01-1.64-0.02-2.46c-0.01-0.9-0.02-1.8-0.03-2.7
		c0-0.04,0-0.07,0.01-0.13c0.76,0,1.51,0,2.3,0c0,0.15,0,0.31,0,0.46c0.01,1.73,0.03,3.47,0.05,5.2c0,0.4,0,0.81,0.07,1.2
		c0.12,0.78,0.73,1.29,1.52,1.3c0.22,0,0.44-0.01,0.65-0.05c0.69-0.16,1.16-0.72,1.17-1.44c0.02-1.19-0.01-2.37-0.02-3.56
		c-0.01-0.89-0.01-1.79-0.01-2.68C21.49,41.91,21.49,41.76,21.49,41.58z"/>
	<path class="st1" d="M10.95,38.32c0.27-0.75,0.53-1.46,0.79-2.16c0.08-0.22,0.16-0.45,0.25-0.67c0.02-0.05,0.09-0.1,0.14-0.11
		c0.47-0.01,0.94,0,1.44,0c0,1.66,0,3.31,0,4.98c-0.43,0-0.88,0-1.36,0c0-0.64,0-1.29,0-1.93c-0.02,0-0.04-0.01-0.06-0.01
		c-0.11,0.34-0.22,0.67-0.33,1.01c-0.09,0.28-0.19,0.55-0.27,0.83c-0.03,0.1-0.08,0.13-0.18,0.13c-0.26,0-0.52,0.01-0.78,0.02
		c-0.11,0.01-0.16-0.04-0.19-0.14c-0.2-0.57-0.4-1.13-0.61-1.7c-0.02-0.05-0.04-0.1-0.08-0.14c0,0.65,0,1.3,0,1.97
		c-0.47,0-0.92,0-1.4,0c0-1.65,0-3.31,0-4.99c0.48,0,0.96,0,1.44,0.01c0.05,0,0.11,0.09,0.14,0.15c0.33,0.85,0.66,1.7,0.99,2.55
		C10.89,38.17,10.91,38.22,10.95,38.32z"/>
	<path class="st1" d="M27.59,38.18c0.44,0,0.92,0,1.42,0c0,0.32-0.07,0.62-0.2,0.91c-0.24,0.51-0.63,0.86-1.15,1.06
		c-0.73,0.28-1.47,0.31-2.21,0.06c-1.08-0.36-1.71-1.35-1.66-2.57c0.06-1.61,1.17-2.6,2.84-2.53c0.77,0.03,1.46,0.27,1.95,0.9
		c0.28,0.36,0.4,0.78,0.43,1.25c-0.5,0-0.99,0-1.49,0c-0.02-0.07-0.04-0.15-0.07-0.22c-0.15-0.43-0.63-0.67-1.17-0.6
		c-0.6,0.08-0.95,0.46-1,1.07c-0.02,0.3-0.02,0.61,0.11,0.89c0.3,0.67,1.37,0.87,1.87,0.33C27.4,38.6,27.47,38.4,27.59,38.18z"/>
	<path class="st1" d="M16.26,39.06c0,0.44,0,0.85,0,1.28c-0.47,0-0.94,0-1.45,0c0-1.65,0-3.3,0-4.99c0.27,0,0.55,0,0.84,0
		c0.44,0,0.89,0,1.33,0c1.13,0,1.95,0.91,1.8,2.1c-0.13,1.01-0.85,1.61-1.88,1.61C16.69,39.06,16.48,39.06,16.26,39.06z
		 M16.25,36.59c0,0.42,0,0.81,0,1.22c0.21,0,0.4,0.02,0.59,0c0.32-0.04,0.5-0.29,0.49-0.65c-0.01-0.31-0.22-0.55-0.5-0.57
		C16.64,36.58,16.45,36.59,16.25,36.59z"/>
	<path class="st1" d="M23.56,40.28c-0.48,0-0.94,0-1.41-0.01c-0.05,0-0.13-0.06-0.15-0.11c-0.05-0.13-0.09-0.28-0.13-0.43
		c-0.43,0-0.86,0-1.29,0c-0.03,0-0.06,0.04-0.08,0.07c-0.01,0.02-0.02,0.05-0.02,0.07c-0.12,0.42-0.12,0.42-0.57,0.42
		c-0.35,0-0.69,0-1.06,0c0.02-0.06,0.03-0.12,0.04-0.17c0.51-1.56,1.02-3.11,1.53-4.67c0.04-0.12,0.08-0.16,0.21-0.16
		c0.35,0.01,0.71-0.01,1.06,0c0.06,0,0.15,0.06,0.17,0.11c0.57,1.6,1.12,3.19,1.68,4.79C23.56,40.22,23.56,40.24,23.56,40.28z
		 M21.18,37.3c-0.12,0.43-0.22,0.82-0.33,1.22c0.24,0,0.45,0,0.69,0C21.42,38.12,21.31,37.74,21.18,37.3z"/>
	<path class="st1" d="M30.57,36.55c-0.45,0-0.86,0-1.28,0c0-0.44,0-0.87,0-1.34c1.3,0,2.62,0,3.95,0c0,0.41,0,0.84,0,1.29
		c-0.41,0-0.82,0-1.24,0c0,1.23,0,2.44,0,3.68c-0.46,0-0.93,0-1.43,0C30.57,38.99,30.57,37.78,30.57,36.55z"/>
	<path class="st1" d="M5.64,35.45c0.45,0,0.91,0,1.41,0c0,1.65,0,3.3,0,4.97c-0.44,0-0.91,0-1.41,0
		C5.64,38.79,5.64,37.13,5.64,35.45z"/>
	<path class="st0" d="M28.31,49.69c0-0.81,0-1.64,0-2.49c0.29,0,0.58,0,0.88,0c0.3,0,0.61-0.02,0.91,0.03
		c0.68,0.12,1.05,0.63,0.99,1.33c-0.05,0.64-0.51,1.09-1.17,1.12C29.39,49.71,28.87,49.69,28.31,49.69z"/>
	<path class="st0" d="M28.27,45.57c0-0.79,0-1.57,0-2.4c0.57,0.02,1.15,0,1.72,0.07c0.59,0.07,0.93,0.51,0.94,1.12
		c0.01,0.5-0.21,0.96-0.86,1.14c-0.13,0.04-0.27,0.06-0.41,0.07C29.21,45.58,28.75,45.57,28.27,45.57z"/>
	<path class="st0" d="M16.25,36.59c0.2,0,0.39-0.01,0.58,0c0.29,0.02,0.49,0.25,0.5,0.57c0.01,0.36-0.17,0.61-0.49,0.65
		c-0.19,0.02-0.38,0-0.59,0C16.25,37.4,16.25,37.01,16.25,36.59z"/>
	<path class="st0" d="M21.18,37.3c0.13,0.44,0.24,0.82,0.36,1.22c-0.24,0-0.45,0-0.69,0C20.96,38.12,21.06,37.74,21.18,37.3z"/>
	<g>
		<path class="st2" d="M47.42,44.08c0.05,0.03,0.08,0.06,0.11,0.1c0.03,0.04,0.05,0.08,0.05,0.14c0,0.04-0.01,0.08-0.03,0.13
			L47,45.37c-0.06,0.09-0.13,0.13-0.2,0.13c-0.02,0-0.05,0-0.08-0.01c-0.03-0.01-0.06-0.02-0.09-0.04c-0.24-0.17-0.49-0.3-0.76-0.39
			c-0.27-0.09-0.56-0.14-0.86-0.14c-0.38,0-0.73,0.07-1.05,0.22c-0.32,0.14-0.59,0.34-0.83,0.59c-0.23,0.25-0.41,0.54-0.54,0.87
			c-0.13,0.33-0.19,0.69-0.19,1.07c0,0.38,0.06,0.73,0.19,1.07c0.13,0.33,0.31,0.62,0.54,0.87c0.23,0.25,0.51,0.44,0.83,0.59
			c0.32,0.14,0.67,0.21,1.05,0.21c0.3,0,0.59-0.05,0.87-0.14c0.28-0.09,0.53-0.23,0.76-0.39c0.03-0.02,0.06-0.04,0.09-0.05
			c0.03-0.01,0.06-0.01,0.08-0.02c0.06,0,0.13,0.04,0.2,0.12l0.56,0.94c0.02,0.05,0.03,0.09,0.03,0.12c0,0.05-0.02,0.1-0.05,0.13
			c-0.03,0.03-0.07,0.07-0.11,0.1c-0.35,0.24-0.73,0.42-1.14,0.55c-0.41,0.13-0.84,0.19-1.29,0.19c-0.4,0-0.78-0.05-1.15-0.15
			c-0.37-0.1-0.71-0.25-1.03-0.43c-0.32-0.19-0.61-0.41-0.87-0.67c-0.26-0.26-0.48-0.55-0.67-0.87c-0.19-0.32-0.33-0.66-0.43-1.02
			c-0.1-0.37-0.15-0.75-0.15-1.15c0-0.4,0.05-0.78,0.15-1.14c0.1-0.37,0.25-0.71,0.43-1.03c0.19-0.32,0.41-0.61,0.67-0.87
			c0.26-0.26,0.55-0.49,0.87-0.67c0.32-0.19,0.66-0.33,1.03-0.43c0.37-0.1,0.75-0.15,1.15-0.15c0.45,0,0.87,0.06,1.27,0.19
			C46.69,43.66,47.07,43.84,47.42,44.08z"/>
		<path class="st2" d="M48.7,42.53c0-0.23,0.11-0.34,0.33-0.34h0.95c0.11,0,0.19,0.03,0.25,0.08c0.06,0.06,0.1,0.14,0.1,0.25v0.84
			c0,0.09-0.03,0.17-0.09,0.25c-0.06,0.08-0.14,0.12-0.25,0.12h-0.95c-0.23,0-0.34-0.12-0.34-0.36V42.53z M48.7,45.02
			c0-0.1,0.03-0.18,0.08-0.24c0.06-0.07,0.14-0.1,0.25-0.1h0.93c0.04,0,0.08,0.01,0.13,0.03c0.04,0.02,0.08,0.04,0.12,0.07
			c0.03,0.03,0.06,0.07,0.08,0.11c0.02,0.04,0.03,0.09,0.03,0.14v6.46c0,0.23-0.12,0.34-0.35,0.34h-0.93
			c-0.23,0-0.34-0.11-0.34-0.34V45.02z"/>
		<path class="st2" d="M58.09,51.61c0,0.04-0.01,0.07-0.04,0.1c-0.03,0.02-0.06,0.04-0.1,0.05c-0.04,0.01-0.09,0.02-0.14,0.02
			c-0.05,0-0.09,0-0.13,0h-0.57c-0.11,0-0.19-0.03-0.24-0.1c-0.05-0.07-0.09-0.15-0.11-0.24l-0.06-0.51
			c-0.08,0.12-0.19,0.24-0.31,0.36c-0.12,0.11-0.27,0.22-0.44,0.3c-0.17,0.09-0.36,0.16-0.58,0.21c-0.22,0.05-0.47,0.08-0.75,0.08
			c-0.45,0-0.84-0.08-1.18-0.24c-0.34-0.16-0.63-0.38-0.86-0.65c-0.23-0.28-0.41-0.6-0.53-0.98c-0.12-0.38-0.18-0.78-0.18-1.21
			v-3.75c0-0.14,0.03-0.24,0.1-0.31c0.06-0.07,0.16-0.1,0.28-0.1h0.86c0.15,0,0.25,0.03,0.3,0.08c0.05,0.06,0.08,0.16,0.08,0.3v3.75
			c0,0.2,0.03,0.39,0.09,0.58c0.06,0.19,0.15,0.36,0.28,0.51c0.12,0.15,0.28,0.27,0.46,0.36c0.19,0.09,0.4,0.14,0.65,0.14
			c0.17,0,0.35-0.03,0.54-0.09c0.19-0.06,0.36-0.15,0.51-0.28c0.15-0.12,0.28-0.28,0.38-0.46c0.1-0.19,0.15-0.4,0.15-0.65v-3.65
			c0-0.07,0-0.14,0.01-0.21c0.01-0.07,0.02-0.13,0.05-0.19c0.02-0.06,0.06-0.1,0.1-0.14c0.04-0.04,0.1-0.05,0.18-0.05h0.93
			c0.12,0,0.21,0.03,0.27,0.09c0.06,0.06,0.09,0.14,0.09,0.25v6.47C58.18,51.51,58.15,51.57,58.09,51.61z"/>
		<path class="st2" d="M65,51.01c-0.13,0.13-0.28,0.26-0.44,0.37c-0.16,0.12-0.33,0.22-0.51,0.3c-0.18,0.08-0.38,0.15-0.58,0.2
			c-0.2,0.05-0.42,0.07-0.64,0.07c-0.51,0-0.98-0.1-1.42-0.29c-0.44-0.19-0.82-0.46-1.14-0.79c-0.32-0.33-0.58-0.72-0.76-1.17
			c-0.18-0.45-0.28-0.93-0.28-1.44c0-0.51,0.09-0.99,0.28-1.44c0.18-0.45,0.44-0.84,0.76-1.17c0.32-0.33,0.71-0.6,1.14-0.79
			c0.44-0.19,0.91-0.29,1.42-0.29c0.46,0,0.86,0.08,1.21,0.24c0.35,0.16,0.66,0.39,0.93,0.67V42.9c0-0.1,0.03-0.18,0.09-0.24
			c0.06-0.06,0.15-0.1,0.26-0.1h0.92c0.09,0,0.17,0.03,0.24,0.09c0.08,0.06,0.11,0.14,0.11,0.24v8.59c0,0.23-0.12,0.34-0.36,0.34
			h-0.84c-0.11,0-0.19-0.03-0.23-0.08c-0.04-0.06-0.08-0.14-0.11-0.25L65,51.01z M60.82,48.27c0,0.3,0.05,0.58,0.16,0.85
			c0.1,0.27,0.25,0.5,0.44,0.7c0.19,0.2,0.41,0.36,0.66,0.47c0.25,0.12,0.53,0.17,0.83,0.17c0.3,0,0.58-0.06,0.84-0.17
			c0.26-0.11,0.49-0.27,0.69-0.47c0.19-0.2,0.35-0.43,0.46-0.69c0.11-0.26,0.18-0.54,0.18-0.84v-0.04c0-0.3-0.06-0.58-0.17-0.85
			c-0.11-0.27-0.27-0.51-0.46-0.71c-0.2-0.2-0.42-0.37-0.69-0.49c-0.26-0.12-0.55-0.18-0.85-0.18c-0.3,0-0.58,0.06-0.83,0.18
			c-0.25,0.12-0.47,0.29-0.66,0.49c-0.19,0.2-0.33,0.44-0.44,0.71C60.87,47.69,60.82,47.97,60.82,48.27z"/>
		<path class="st2" d="M75,51.49c0,0.07-0.01,0.12-0.04,0.17c-0.03,0.04-0.06,0.08-0.11,0.1c-0.05,0.02-0.1,0.04-0.15,0.05
			c-0.06,0.01-0.12,0.01-0.18,0.01h-0.7c-0.12,0-0.2-0.03-0.25-0.1c-0.05-0.06-0.08-0.14-0.1-0.24l-0.03-0.48
			c-0.13,0.13-0.28,0.25-0.44,0.37c-0.16,0.11-0.33,0.21-0.51,0.3c-0.18,0.08-0.38,0.15-0.59,0.2c-0.21,0.05-0.42,0.07-0.64,0.07
			c-0.34,0-0.66-0.04-0.98-0.13c-0.31-0.09-0.61-0.21-0.88-0.37c-0.27-0.16-0.52-0.35-0.75-0.58c-0.22-0.23-0.41-0.47-0.57-0.75
			c-0.16-0.27-0.28-0.57-0.37-0.88c-0.09-0.32-0.13-0.64-0.13-0.98c0-0.34,0.04-0.67,0.13-0.98c0.09-0.32,0.21-0.61,0.37-0.88
			c0.16-0.27,0.35-0.52,0.57-0.75c0.22-0.22,0.47-0.41,0.75-0.57c0.27-0.16,0.57-0.28,0.88-0.37c0.31-0.09,0.64-0.13,0.98-0.13
			c0.24,0,0.47,0.03,0.69,0.08c0.22,0.05,0.42,0.12,0.61,0.21c0.19,0.09,0.36,0.2,0.53,0.33c0.16,0.13,0.31,0.27,0.44,0.42l0.08-0.6
			c0.02-0.07,0.04-0.12,0.05-0.17c0.02-0.04,0.04-0.08,0.06-0.1c0.02-0.03,0.06-0.04,0.09-0.05c0.04-0.01,0.08-0.01,0.14-0.01h0.56
			c0.06,0,0.12,0.01,0.18,0.02c0.06,0.01,0.11,0.03,0.16,0.05c0.05,0.02,0.09,0.06,0.12,0.1C74.99,44.88,75,44.93,75,45V51.49z
			 M69.15,48.25c0,0.3,0.05,0.58,0.16,0.85c0.1,0.27,0.25,0.5,0.44,0.71c0.19,0.2,0.41,0.36,0.66,0.48
			c0.25,0.12,0.53,0.18,0.83,0.18c0.3,0,0.59-0.06,0.85-0.18c0.26-0.12,0.49-0.28,0.69-0.48c0.2-0.2,0.35-0.44,0.46-0.71
			c0.11-0.27,0.17-0.55,0.17-0.85c0-0.3-0.06-0.58-0.17-0.85c-0.11-0.27-0.27-0.5-0.46-0.71s-0.42-0.36-0.69-0.48
			c-0.26-0.12-0.55-0.18-0.85-0.18c-0.3,0-0.58,0.06-0.83,0.18c-0.25,0.12-0.47,0.28-0.66,0.48c-0.19,0.2-0.33,0.44-0.44,0.71
			C69.2,47.67,69.15,47.95,69.15,48.25z"/>
		<path class="st2" d="M81.71,51.01c-0.13,0.13-0.28,0.26-0.44,0.37c-0.16,0.12-0.33,0.22-0.51,0.3c-0.18,0.08-0.38,0.15-0.58,0.2
			c-0.2,0.05-0.42,0.07-0.64,0.07c-0.51,0-0.98-0.1-1.42-0.29c-0.44-0.19-0.82-0.46-1.14-0.79c-0.32-0.33-0.58-0.72-0.76-1.17
			c-0.18-0.45-0.28-0.93-0.28-1.44c0-0.51,0.09-0.99,0.28-1.44c0.18-0.45,0.44-0.84,0.76-1.17c0.32-0.33,0.71-0.6,1.14-0.79
			c0.44-0.19,0.91-0.29,1.42-0.29c0.46,0,0.86,0.08,1.21,0.24c0.35,0.16,0.66,0.39,0.93,0.67V42.9c0-0.1,0.03-0.18,0.09-0.24
			c0.06-0.06,0.15-0.1,0.26-0.1h0.92c0.09,0,0.17,0.03,0.24,0.09c0.08,0.06,0.11,0.14,0.11,0.24v8.59c0,0.23-0.12,0.34-0.36,0.34
			h-0.84c-0.11,0-0.19-0.03-0.23-0.08c-0.04-0.06-0.08-0.14-0.11-0.25L81.71,51.01z M77.53,48.27c0,0.3,0.05,0.58,0.16,0.85
			c0.1,0.27,0.25,0.5,0.44,0.7c0.19,0.2,0.41,0.36,0.66,0.47c0.25,0.12,0.53,0.17,0.83,0.17c0.3,0,0.58-0.06,0.84-0.17
			c0.26-0.11,0.49-0.27,0.69-0.47c0.19-0.2,0.35-0.43,0.46-0.69c0.11-0.26,0.18-0.54,0.18-0.84v-0.04c0-0.3-0.06-0.58-0.17-0.85
			c-0.11-0.27-0.27-0.51-0.46-0.71c-0.2-0.2-0.42-0.37-0.69-0.49c-0.26-0.12-0.55-0.18-0.85-0.18c-0.3,0-0.58,0.06-0.83,0.18
			c-0.25,0.12-0.47,0.29-0.66,0.49c-0.19,0.2-0.33,0.44-0.44,0.71C77.58,47.69,77.53,47.97,77.53,48.27z"/>
		<path class="st2" d="M93.31,51.01c-0.13,0.13-0.28,0.26-0.44,0.37c-0.16,0.12-0.33,0.22-0.51,0.3c-0.18,0.08-0.38,0.15-0.58,0.2
			c-0.2,0.05-0.42,0.07-0.64,0.07c-0.51,0-0.98-0.1-1.42-0.29c-0.44-0.19-0.82-0.46-1.14-0.79c-0.32-0.33-0.58-0.72-0.76-1.17
			c-0.18-0.45-0.28-0.93-0.28-1.44c0-0.51,0.09-0.99,0.28-1.44c0.18-0.45,0.44-0.84,0.76-1.17c0.32-0.33,0.71-0.6,1.14-0.79
			c0.44-0.19,0.91-0.29,1.42-0.29c0.46,0,0.86,0.08,1.21,0.24c0.35,0.16,0.66,0.39,0.93,0.67V42.9c0-0.1,0.03-0.18,0.09-0.24
			c0.06-0.06,0.15-0.1,0.26-0.1h0.92c0.09,0,0.17,0.03,0.24,0.09c0.08,0.06,0.11,0.14,0.11,0.24v8.59c0,0.23-0.12,0.34-0.36,0.34
			h-0.84c-0.11,0-0.19-0.03-0.23-0.08c-0.04-0.06-0.08-0.14-0.11-0.25L93.31,51.01z M89.13,48.27c0,0.3,0.05,0.58,0.16,0.85
			c0.1,0.27,0.25,0.5,0.44,0.7c0.19,0.2,0.41,0.36,0.66,0.47c0.25,0.12,0.53,0.17,0.83,0.17c0.3,0,0.58-0.06,0.84-0.17
			c0.26-0.11,0.49-0.27,0.69-0.47c0.19-0.2,0.35-0.43,0.46-0.69c0.11-0.26,0.18-0.54,0.18-0.84v-0.04c0-0.3-0.06-0.58-0.17-0.85
			c-0.11-0.27-0.27-0.51-0.46-0.71c-0.2-0.2-0.42-0.37-0.69-0.49c-0.26-0.12-0.55-0.18-0.85-0.18c-0.3,0-0.58,0.06-0.83,0.18
			c-0.25,0.12-0.47,0.29-0.66,0.49c-0.19,0.2-0.33,0.44-0.44,0.71C89.19,47.69,89.13,47.97,89.13,48.27z"/>
		<path class="st2" d="M101.99,51.04c-0.33,0.28-0.69,0.5-1.08,0.66c-0.39,0.16-0.82,0.24-1.29,0.24c-0.51,0-0.99-0.1-1.44-0.29
			c-0.45-0.19-0.85-0.45-1.19-0.79c-0.34-0.33-0.61-0.72-0.81-1.17c-0.2-0.45-0.3-0.93-0.3-1.45c0-0.33,0.04-0.66,0.12-0.97
			c0.08-0.31,0.2-0.6,0.35-0.87c0.15-0.27,0.34-0.52,0.55-0.75c0.22-0.23,0.46-0.42,0.73-0.58c0.27-0.16,0.56-0.29,0.87-0.37
			c0.31-0.09,0.64-0.13,0.99-0.13c0.28,0,0.57,0.03,0.84,0.1c0.28,0.07,0.54,0.17,0.79,0.3c0.25,0.13,0.48,0.28,0.7,0.46
			c0.22,0.18,0.41,0.39,0.57,0.62c0.23,0.32,0.39,0.65,0.5,1.02c0.1,0.36,0.16,0.77,0.16,1.21c0,0.11,0,0.2-0.01,0.27
			c-0.01,0.07-0.03,0.13-0.07,0.18c-0.04,0.05-0.09,0.08-0.17,0.1c-0.08,0.02-0.18,0.03-0.32,0.03h-4.99
			c0.05,0.27,0.14,0.51,0.28,0.72c0.14,0.21,0.3,0.38,0.49,0.53c0.19,0.14,0.39,0.25,0.61,0.33c0.22,0.07,0.44,0.11,0.66,0.11
			c0.17,0,0.33-0.02,0.49-0.05c0.16-0.03,0.3-0.08,0.44-0.14c0.14-0.06,0.26-0.12,0.37-0.19c0.11-0.07,0.21-0.15,0.3-0.23
			c0,0,0-0.01,0.01-0.01c0.05-0.04,0.09-0.07,0.13-0.1c0.04-0.02,0.08-0.04,0.13-0.04c0.03,0,0.07,0.01,0.12,0.03
			c0.04,0.02,0.09,0.06,0.13,0.11c0.1,0.12,0.19,0.23,0.26,0.31c0.07,0.08,0.13,0.15,0.17,0.21c0.05,0.06,0.08,0.11,0.1,0.15
			c0.02,0.04,0.03,0.08,0.03,0.12C102.2,50.83,102.13,50.93,101.99,51.04z M99.49,45.96c-0.22,0-0.44,0.04-0.65,0.12
			c-0.21,0.08-0.4,0.19-0.58,0.33c-0.17,0.14-0.33,0.3-0.46,0.49c-0.13,0.19-0.22,0.39-0.28,0.61h3.98
			c-0.06-0.23-0.15-0.44-0.27-0.63c-0.12-0.19-0.27-0.35-0.44-0.49c-0.17-0.14-0.37-0.24-0.59-0.32
			C99.98,46,99.75,45.96,99.49,45.96z"/>
		<path class="st2" d="M107.95,43.72c0.01-0.07,0.04-0.13,0.08-0.18c0.05-0.05,0.11-0.07,0.19-0.07h1.41c0.13,0,0.22,0.07,0.26,0.21
			l1.99,5.54c0.33-0.93,0.67-1.85,1-2.77c0.34-0.92,0.67-1.84,1-2.77c0.05-0.14,0.14-0.21,0.26-0.21h1.41
			c0.08,0,0.14,0.02,0.18,0.07c0.05,0.05,0.07,0.11,0.08,0.17c0.14,1.32,0.28,2.63,0.42,3.93c0.14,1.31,0.29,2.61,0.43,3.93v0.02
			c0,0.15-0.08,0.23-0.25,0.23h-1.09c-0.17,0-0.26-0.08-0.26-0.25l-0.57-5.32l-1.87,5.18c-0.02,0.05-0.05,0.1-0.09,0.15
			c-0.04,0.05-0.08,0.07-0.13,0.07h-1.01c-0.05,0-0.09-0.02-0.14-0.06c-0.04-0.04-0.07-0.09-0.09-0.15
			c-0.31-0.87-0.62-1.73-0.93-2.58c-0.31-0.86-0.62-1.72-0.94-2.59l-0.57,5.32c0,0.17-0.09,0.25-0.26,0.25h-1.09
			c-0.17,0-0.25-0.08-0.25-0.25L107.95,43.72z"/>
		<path class="st2" d="M123.53,51.04c-0.33,0.28-0.69,0.5-1.08,0.66c-0.39,0.16-0.82,0.24-1.29,0.24c-0.51,0-0.99-0.1-1.44-0.29
			c-0.45-0.19-0.85-0.45-1.19-0.79c-0.34-0.33-0.61-0.72-0.81-1.17c-0.2-0.45-0.3-0.93-0.3-1.45c0-0.33,0.04-0.66,0.12-0.97
			c0.08-0.31,0.2-0.6,0.35-0.87c0.15-0.27,0.34-0.52,0.55-0.75c0.22-0.23,0.46-0.42,0.73-0.58c0.27-0.16,0.56-0.29,0.87-0.37
			c0.31-0.09,0.64-0.13,0.99-0.13c0.28,0,0.57,0.03,0.84,0.1c0.28,0.07,0.54,0.17,0.79,0.3c0.25,0.13,0.48,0.28,0.7,0.46
			c0.22,0.18,0.41,0.39,0.57,0.62c0.23,0.32,0.39,0.65,0.5,1.02c0.1,0.36,0.16,0.77,0.16,1.21c0,0.11,0,0.2-0.01,0.27
			c-0.01,0.07-0.03,0.13-0.07,0.18c-0.04,0.05-0.09,0.08-0.17,0.1c-0.08,0.02-0.18,0.03-0.32,0.03h-4.99
			c0.05,0.27,0.14,0.51,0.28,0.72c0.14,0.21,0.3,0.38,0.49,0.53c0.19,0.14,0.39,0.25,0.61,0.33c0.22,0.07,0.44,0.11,0.66,0.11
			c0.17,0,0.33-0.02,0.49-0.05c0.16-0.03,0.3-0.08,0.44-0.14c0.14-0.06,0.26-0.12,0.37-0.19c0.11-0.07,0.21-0.15,0.3-0.23
			c0,0,0-0.01,0.01-0.01c0.05-0.04,0.09-0.07,0.13-0.1c0.04-0.02,0.08-0.04,0.13-0.04c0.03,0,0.07,0.01,0.12,0.03
			c0.04,0.02,0.09,0.06,0.13,0.11c0.1,0.12,0.19,0.23,0.26,0.31c0.07,0.08,0.13,0.15,0.17,0.21c0.05,0.06,0.08,0.11,0.1,0.15
			c0.02,0.04,0.03,0.08,0.03,0.12C123.75,50.83,123.68,50.93,123.53,51.04z M121.04,45.96c-0.22,0-0.44,0.04-0.65,0.12
			c-0.21,0.08-0.4,0.19-0.58,0.33c-0.17,0.14-0.33,0.3-0.46,0.49c-0.13,0.19-0.22,0.39-0.28,0.61h3.98
			c-0.06-0.23-0.15-0.44-0.27-0.63c-0.12-0.19-0.27-0.35-0.44-0.49c-0.17-0.14-0.37-0.24-0.59-0.32
			C121.53,46,121.29,45.96,121.04,45.96z M121.04,42.45c0.03-0.08,0.07-0.14,0.13-0.18c0.05-0.04,0.11-0.06,0.18-0.06h1
			c0.06,0,0.1,0.01,0.13,0.04c0.02,0.03,0.04,0.06,0.04,0.1c0,0.03,0,0.06-0.01,0.1c-0.01,0.04-0.02,0.07-0.03,0.1l-0.53,1.19
			c-0.07,0.16-0.17,0.24-0.3,0.24h-0.88c-0.06,0-0.11-0.01-0.12-0.05c-0.02-0.03-0.03-0.07-0.03-0.11c0-0.04,0-0.08,0.01-0.11
			c0-0.04,0.01-0.08,0.03-0.12L121.04,42.45z"/>
		<path class="st2" d="M125.15,51.75c-0.06,0-0.08-0.02-0.08-0.07c0-0.02,0.01-0.05,0.03-0.08v-0.02c0-0.02,0.01-0.05,0.02-0.07
			c0.01-0.02,0.02-0.04,0.03-0.06l2.33-3.33c-0.21-0.3-0.4-0.58-0.58-0.84c-0.18-0.26-0.36-0.51-0.53-0.76
			c-0.17-0.24-0.34-0.48-0.51-0.72c-0.17-0.24-0.34-0.49-0.52-0.75c-0.03-0.04-0.05-0.08-0.07-0.12c-0.02-0.04-0.03-0.08-0.03-0.11
			c0-0.05,0.02-0.08,0.06-0.11c0.04-0.03,0.11-0.04,0.2-0.04h1.02c0.11,0,0.2,0.01,0.26,0.03c0.07,0.02,0.12,0.04,0.17,0.08
			c0.05,0.04,0.09,0.09,0.13,0.15c0.04,0.06,0.09,0.13,0.14,0.21c0.2,0.3,0.4,0.61,0.59,0.92c0.19,0.31,0.38,0.62,0.58,0.92
			c0.1-0.15,0.21-0.31,0.32-0.48c0.11-0.17,0.22-0.35,0.33-0.53c0.11-0.18,0.22-0.36,0.33-0.54c0.11-0.18,0.21-0.34,0.31-0.49
			c0.06-0.1,0.12-0.17,0.17-0.21c0.05-0.04,0.12-0.06,0.2-0.06h1.25c0.07,0,0.12,0.01,0.17,0.04c0.05,0.02,0.07,0.06,0.07,0.12
			c0,0.04-0.02,0.1-0.07,0.18c-0.18,0.26-0.36,0.51-0.53,0.75c-0.17,0.24-0.34,0.49-0.52,0.74c-0.17,0.25-0.35,0.5-0.54,0.77
			c-0.18,0.26-0.38,0.55-0.59,0.85c0.39,0.55,0.77,1.09,1.15,1.64c0.38,0.55,0.76,1.09,1.15,1.64c0.03,0.05,0.06,0.09,0.08,0.14
			c0.02,0.05,0.03,0.09,0.03,0.13c0,0.05-0.02,0.08-0.06,0.11c-0.04,0.03-0.1,0.05-0.2,0.05h-1.32c-0.08,0-0.15-0.02-0.2-0.06
			c-0.05-0.04-0.11-0.1-0.16-0.19l-0.15-0.23c-0.21-0.34-0.42-0.68-0.62-1.02c-0.21-0.34-0.41-0.68-0.62-1.02l-1.24,2.05
			c-0.08,0.12-0.15,0.23-0.23,0.33c-0.05,0.05-0.1,0.08-0.16,0.1c-0.06,0.02-0.12,0.03-0.19,0.04c-0.07,0.01-0.14,0.01-0.2,0.01
			c-0.07,0-0.13,0-0.2,0h-0.91C125.2,51.83,125.17,51.8,125.15,51.75z"/>
		<path class="st2" d="M132.47,42.53c0-0.23,0.11-0.34,0.33-0.34h0.95c0.11,0,0.19,0.03,0.25,0.08c0.06,0.06,0.1,0.14,0.1,0.25v0.84
			c0,0.09-0.03,0.17-0.09,0.25c-0.06,0.08-0.14,0.12-0.25,0.12h-0.95c-0.23,0-0.34-0.12-0.34-0.36V42.53z M132.47,45.02
			c0-0.1,0.03-0.18,0.08-0.24c0.06-0.07,0.14-0.1,0.25-0.1h0.93c0.04,0,0.08,0.01,0.13,0.03c0.04,0.02,0.08,0.04,0.12,0.07
			c0.03,0.03,0.06,0.07,0.08,0.11c0.02,0.04,0.03,0.09,0.03,0.14v6.46c0,0.23-0.12,0.34-0.35,0.34h-0.93
			c-0.23,0-0.34-0.11-0.34-0.34V45.02z"/>
		<path class="st2" d="M140.45,49.95c0.06-0.04,0.12-0.07,0.16-0.08c0.04-0.01,0.08-0.01,0.11-0.01c0.06,0,0.12,0.04,0.16,0.1
			l0.14,0.19l0.4,0.57c0.02,0.03,0.03,0.05,0.04,0.08c0.01,0.03,0.02,0.05,0.02,0.08c0,0.06-0.02,0.11-0.06,0.16
			c-0.04,0.05-0.1,0.09-0.16,0.14c-0.32,0.23-0.66,0.42-1.03,0.56c-0.37,0.14-0.78,0.21-1.22,0.21c-0.33,0-0.66-0.04-0.97-0.13
			c-0.31-0.09-0.61-0.21-0.88-0.37c-0.27-0.16-0.52-0.35-0.75-0.57c-0.23-0.22-0.42-0.47-0.58-0.75c-0.16-0.27-0.29-0.57-0.38-0.88
			c-0.09-0.32-0.13-0.64-0.13-0.98c0-0.34,0.04-0.67,0.13-0.98c0.09-0.32,0.21-0.61,0.38-0.88c0.16-0.27,0.36-0.52,0.58-0.75
			c0.23-0.22,0.47-0.41,0.75-0.57c0.27-0.16,0.56-0.28,0.88-0.37c0.31-0.09,0.64-0.13,0.97-0.13c0.42,0,0.81,0.06,1.18,0.19
			c0.37,0.13,0.7,0.3,0.99,0.52l-0.01-0.01c0.05,0.05,0.1,0.1,0.15,0.14c0.05,0.04,0.08,0.1,0.08,0.18c0,0.02,0,0.05,0,0.08
			c0,0.03-0.01,0.06-0.03,0.08l-0.46,0.7c-0.08,0.11-0.16,0.17-0.25,0.17c-0.06,0-0.14-0.03-0.21-0.1
			c-0.19-0.16-0.41-0.29-0.67-0.39c-0.26-0.1-0.52-0.15-0.79-0.15c-0.29,0-0.57,0.06-0.82,0.18c-0.26,0.12-0.48,0.29-0.68,0.5
			c-0.2,0.21-0.35,0.45-0.46,0.73c-0.11,0.28-0.17,0.57-0.17,0.87c0,0.31,0.06,0.6,0.17,0.88c0.11,0.27,0.27,0.51,0.46,0.71
			c0.19,0.2,0.42,0.36,0.68,0.48c0.26,0.12,0.53,0.18,0.83,0.18c0.32,0,0.59-0.06,0.83-0.17C140.04,50.24,140.26,50.11,140.45,49.95
			z"/>
		<path class="st2" d="M142.12,48.27c0-0.34,0.04-0.67,0.13-0.99c0.09-0.32,0.21-0.61,0.37-0.89c0.16-0.27,0.35-0.52,0.58-0.75
			c0.22-0.22,0.47-0.41,0.75-0.57c0.27-0.16,0.57-0.28,0.88-0.37c0.31-0.09,0.64-0.13,0.98-0.13c0.34,0,0.66,0.04,0.98,0.13
			c0.31,0.09,0.61,0.21,0.88,0.37c0.27,0.16,0.52,0.35,0.74,0.57c0.22,0.22,0.42,0.47,0.58,0.75c0.16,0.27,0.29,0.57,0.37,0.89
			c0.09,0.32,0.13,0.65,0.13,0.99c0,0.34-0.04,0.67-0.13,0.98c-0.09,0.32-0.21,0.61-0.37,0.88c-0.16,0.27-0.35,0.52-0.58,0.75
			c-0.22,0.23-0.47,0.42-0.74,0.58c-0.27,0.16-0.57,0.28-0.88,0.37c-0.31,0.09-0.64,0.13-0.98,0.13c-0.34,0-0.67-0.04-0.98-0.13
			s-0.61-0.21-0.88-0.37c-0.27-0.16-0.52-0.35-0.75-0.58c-0.22-0.23-0.42-0.47-0.58-0.75c-0.16-0.27-0.29-0.57-0.37-0.88
			C142.16,48.93,142.12,48.61,142.12,48.27z M143.7,48.27c0,0.3,0.05,0.58,0.16,0.85c0.11,0.27,0.25,0.5,0.44,0.7
			c0.19,0.2,0.41,0.36,0.67,0.47c0.26,0.12,0.54,0.17,0.84,0.17c0.3,0,0.57-0.06,0.82-0.17c0.25-0.12,0.47-0.27,0.66-0.47
			c0.18-0.2,0.33-0.43,0.43-0.7c0.1-0.27,0.15-0.55,0.15-0.85c0-0.3-0.05-0.58-0.15-0.85c-0.1-0.27-0.25-0.51-0.43-0.71
			c-0.18-0.2-0.4-0.37-0.66-0.49c-0.25-0.12-0.53-0.18-0.82-0.18c-0.3,0-0.58,0.06-0.84,0.18c-0.26,0.12-0.48,0.29-0.67,0.49
			c-0.19,0.2-0.33,0.44-0.44,0.71C143.76,47.69,143.7,47.97,143.7,48.27z"/>
	</g>
</g>
</svg>
