<?xml version="1.0" encoding="utf-8"?>
<!-- Generator: Adobe Illustrator 23.0.1, SVG Export Plug-In . SVG Version: 6.00 Build 0)  -->
<svg version="1.1" xmlns="http://www.w3.org/2000/svg" xmlns:xlink="http://www.w3.org/1999/xlink" x="0px" y="0px"
	 viewBox="0 0 150 80" style="enable-background:new 0 0 150 80;" xml:space="preserve">
<style type="text/css">
	.st0{fill:#283483;}
	.st1{fill:#F7E000;}
	.st2{fill:#FFFFFF;}
</style>
<g>
	<path class="st0" d="M57.02,79.5V68.24h2.89V79.5H57.02z M57.02,66.92v-2.63h2.89v2.63H57.02z M89.85,70.65
		c-0.37-0.4-0.93-0.61-1.68-0.61c-0.49,0-0.9,0.08-1.22,0.25c-0.32,0.17-0.58,0.37-0.78,0.62c-0.2,0.25-0.33,0.5-0.41,0.78
		c-0.08,0.27-0.13,0.52-0.14,0.74h5C90.47,71.65,90.22,71.05,89.85,70.65z M93.69,74.37h-8.07c0.04,1,0.3,1.72,0.76,2.16
		c0.46,0.45,1.12,0.67,1.99,0.67c0.62,0,1.15-0.15,1.6-0.47c0.45-0.31,0.72-0.64,0.82-0.98h2.7c-0.43,1.34-1.1,2.3-1.99,2.88
		c-0.89,0.58-1.98,0.87-3.25,0.87c-0.88,0-1.67-0.14-2.38-0.42c-0.71-0.28-1.31-0.68-1.8-1.2c-0.49-0.52-0.87-1.14-1.14-1.86
		c-0.27-0.72-0.4-1.51-0.4-2.38c0-0.84,0.14-1.62,0.41-2.34c0.27-0.72,0.66-1.34,1.17-1.87c0.5-0.53,1.11-0.94,1.81-1.24
		c0.7-0.3,1.47-0.45,2.33-0.45c0.95,0,1.78,0.18,2.49,0.55c0.71,0.37,1.29,0.86,1.74,1.48c0.45,0.62,0.78,1.33,0.98,2.12
		C93.67,72.68,93.75,73.51,93.69,74.37z M80.47,70.79c-1.61,0-2.36,1.04-2.36,2.71v5.97h-2.93v-5.93c0.09-3.71,1.92-5.77,5.76-5.77
		h0.87v2.99L80.47,70.79z M114.84,55.38c-0.09-0.44-0.24-0.82-0.45-1.16c-0.21-0.33-0.5-0.61-0.85-0.82
		c-0.36-0.21-0.8-0.32-1.32-0.32c-0.52,0-0.96,0.11-1.31,0.32c-0.35,0.21-0.63,0.48-0.84,0.82c-0.21,0.34-0.36,0.72-0.45,1.16
		c-0.09,0.44-0.13,0.88-0.13,1.33c0,0.45,0.04,0.89,0.13,1.32c0.09,0.43,0.24,0.82,0.45,1.16c0.21,0.34,0.49,0.62,0.84,0.82
		c0.35,0.2,0.79,0.31,1.31,0.31c0.52,0,0.96-0.1,1.32-0.31c0.36-0.2,0.64-0.48,0.85-0.82c0.21-0.34,0.36-0.73,0.45-1.16
		c0.09-0.43,0.13-0.87,0.13-1.32C114.97,56.26,114.92,55.82,114.84,55.38z M117.66,59.16c-0.28,0.73-0.67,1.35-1.18,1.87
		c-0.51,0.52-1.13,0.91-1.85,1.19c-0.72,0.28-1.53,0.42-2.41,0.42c-0.89,0-1.69-0.14-2.4-0.42c-0.71-0.28-1.33-0.67-1.84-1.19
		c-0.51-0.52-0.9-1.14-1.18-1.87c-0.28-0.73-0.42-1.54-0.42-2.45c0-0.9,0.14-1.72,0.42-2.46c0.28-0.74,0.67-1.36,1.18-1.88
		c0.51-0.52,1.12-0.92,1.84-1.2c0.71-0.28,1.52-0.43,2.4-0.43c0.89,0,1.69,0.14,2.41,0.43c0.72,0.28,1.34,0.68,1.85,1.2
		c0.51,0.52,0.9,1.14,1.18,1.88c0.28,0.74,0.42,1.56,0.42,2.46C118.07,57.62,117.93,58.44,117.66,59.16z M75.88,53.09
		c-0.5,0-0.91,0.11-1.25,0.34c-0.34,0.23-0.61,0.52-0.82,0.87c-0.21,0.36-0.36,0.75-0.45,1.18c-0.09,0.43-0.13,0.86-0.13,1.28
		c0,0.41,0.04,0.82,0.13,1.25c0.09,0.42,0.23,0.81,0.43,1.15c0.2,0.34,0.46,0.62,0.8,0.84c0.34,0.22,0.74,0.33,1.22,0.33
		c0.74,0,1.31-0.21,1.72-0.62c0.4-0.42,0.65-0.97,0.75-1.67h2.99c-0.2,1.5-0.79,2.64-1.75,3.43c-0.96,0.79-2.19,1.18-3.69,1.18
		c-0.85,0-1.62-0.14-2.33-0.43c-0.71-0.28-1.31-0.68-1.8-1.19c-0.5-0.51-0.88-1.12-1.16-1.83c-0.28-0.71-0.42-1.48-0.42-2.33
		c0-0.87,0.13-1.69,0.38-2.44c0.25-0.75,0.63-1.4,1.13-1.95c0.5-0.55,1.1-0.97,1.81-1.28c0.71-0.31,1.53-0.46,2.45-0.46
		c0.67,0,1.31,0.09,1.93,0.26c0.62,0.17,1.17,0.44,1.66,0.8c0.49,0.36,0.89,0.8,1.19,1.33c0.31,0.53,0.48,1.16,0.52,1.89h-3.04
		C77.97,53.74,77.21,53.09,75.88,53.09z M57.22,53.73c-0.37-0.4-0.93-0.61-1.68-0.61c-0.49,0-0.9,0.08-1.22,0.25
		c-0.32,0.17-0.58,0.37-0.78,0.62c-0.19,0.25-0.33,0.5-0.41,0.78c-0.08,0.27-0.13,0.52-0.14,0.74h5
		C57.84,54.73,57.58,54.13,57.22,53.73z M61.06,57.45h-8.07c0.04,1,0.3,1.72,0.76,2.16c0.46,0.45,1.13,0.67,1.99,0.67
		c0.62,0,1.15-0.15,1.6-0.47c0.45-0.31,0.72-0.64,0.82-0.98h2.7c-0.43,1.34-1.1,2.3-1.99,2.88c-0.89,0.58-1.98,0.87-3.25,0.87
		c-0.88,0-1.67-0.14-2.38-0.42c-0.71-0.28-1.31-0.68-1.8-1.2c-0.49-0.52-0.87-1.14-1.14-1.86c-0.27-0.72-0.4-1.51-0.4-2.38
		c0-0.84,0.14-1.62,0.41-2.34c0.27-0.72,0.66-1.34,1.17-1.87c0.5-0.53,1.11-0.94,1.81-1.24c0.7-0.3,1.47-0.45,2.33-0.45
		c0.95,0,1.78,0.18,2.49,0.55c0.71,0.37,1.29,0.86,1.74,1.48c0.45,0.62,0.78,1.33,0.98,2.12C61.04,55.76,61.11,56.59,61.06,57.45z
		 M68.09,70.25c-1.56,0-2.37,1.08-2.45,3.3c-0.02,2.32,0.76,3.49,2.41,3.49c1.65,0,2.47-1.17,2.47-3.49
		C70.46,71.34,69.66,70.25,68.09,70.25z M68.14,79.5c-3.58,0.02-5.38-1.69-5.38-5.14v-8.65c0.36-0.63,1.12-1.4,2.56-1.41h0.33
		l0,5.16c0.74-1.19,1.82-1.78,3.26-1.78c3.06,0.11,4.58,2.11,4.58,6.01C73.48,77.5,71.7,79.43,68.14,79.5z M51.04,79.5V66.15
		c0-0.43,0.9-1.86,2.13-1.86h0.76V79.5H51.04z M99.28,53.43c-1.56,0-2.37,1.09-2.45,3.3c-0.02,2.32,0.76,3.49,2.41,3.49
		c1.65,0,2.47-1.17,2.47-3.49C101.64,54.51,100.84,53.43,99.28,53.43z M99.19,62.67c-3.56-0.07-5.34-2-5.34-5.82
		c0-3.91,1.52-5.9,4.58-6.01c1.43,0,2.54,0.59,3.28,1.78v-3.66l0.01-0.72c0.92-1.34,2.86-1.07,2.86-1.07v10.35
		C104.57,60.98,102.77,62.69,99.19,62.67z M89.39,56.75c-0.67,0.28-1.45,0.4-2.3,0.57c-1.15,0.22-1.74,0.76-1.74,1.61
		c0.07,0.91,0.54,1.35,1.45,1.35c1.61,0,2.58-0.95,2.58-2.58V56.75z M87.18,62.62c-2.76,0.22-4.67-1.06-4.67-3.6
		c0.07-2.76,2.06-3.49,4.97-3.78c1.24-0.15,1.87-0.52,1.87-1.15c-0.07-0.65-0.67-0.96-1.87-0.98c-1.35-0.02-1.79,0.79-1.94,1.33
		l-2.69,0c0.1-2.22,1.22-3.7,4.5-3.7c3.17,0,4.78,1.04,4.84,3.17v3.91C92.19,60.99,90.28,62.4,87.18,62.62z M68.04,53.87
		c-1.61,0-2.36,1.04-2.36,2.71v5.97h-2.93v-5.92c0.09-3.71,1.92-5.77,5.76-5.77h0.87v3L68.04,53.87z M47.1,62.54
		c-0.95-0.07-1.43-0.52-1.43-1.43v-5.9c-0.07-1.19-0.72-1.78-2-1.78c-1.28,0-1.93,0.59-1.95,1.78v7.29h-2.91v-7.34
		c-0.07-1.19-0.72-1.78-2-1.78c-1.28,0-1.93,0.59-1.95,1.78v7.34h-2.93v-6.75c0-3.28,1.65-4.9,4.93-4.9c1.48,0,2.6,0.33,3.43,0.98
		c0.83-0.63,1.95-0.93,3.43-0.93c3.28,0,4.9,1.63,4.88,4.9v6.75H47.1z"/>
	<g>
		<path class="st0" d="M101.54,20.82v1.09c0,10.87-11.02,19.66-28.43,19.66c-13.39,0-23.08-5.27-26.78-12.7
			c-1.08-2.17-1.65-4.51-1.65-6.97c0-0.09,0-0.82,0-1.09c0-0.26,0.01-0.52,0.02-0.77c0.3-4.81,3.41-9.15,8.28-12.35
			c2.48-1.63,5.41-2.96,8.67-3.9c3.5-1.01,7.38-1.58,11.45-1.58C88.82,2.23,101.54,10.58,101.54,20.82z"/>
		<path class="st1" d="M100.45,20.81c0,9.66-12.24,17.48-27.33,17.48c-10.51,0-19.64-3.8-24.21-9.37c-1.96-2.39-3.08-5.1-3.12-7.98
			c0-0.05,0-0.09,0-0.14c0-5.38,3.8-10.19,9.77-13.4c0.35-0.19,0.7-0.37,1.06-0.54c0.56-0.27,1.15-0.53,1.74-0.78
			c1-0.41,2.05-0.78,3.14-1.11c3.53-1.06,7.46-1.65,11.62-1.65C88.22,3.33,100.45,11.15,100.45,20.81z"/>
		<path class="st0" d="M73.25,27.1c-0.05,2.24-1.3,2.88-2.86,3.19c-1.56,0.31-5.06,0.48-8.4,0.62c-3.34,0.13-6.45-0.31-8.03-0.53
			c-1.58-0.22-3.26-0.68-3.7-0.68c-0.44,0-0.67,0.25-1.33,1.04c0,0-1.31-0.63-2.57-1.66c-1.09-2.2-1.67-4.58-1.67-7.07
			c0-0.09,0-0.84,0-1.1c0-0.26,0.01-0.52,0.03-0.78c0.71-0.17,1.86-0.28,3.71-0.36c3.03-0.13,5.06,0.14,8.91,1.27
			c3.85,1.12,5.54,1.83,5.54,1.83c-0.42-1.43-0.43-3.47-0.35-5.7c0.09-2.22-0.02-3.64-0.44-5.03c-0.4-1.32-0.99-2.66-0.99-2.66
			s-0.42,0.07-1.21,0.09c-0.79,0.02-1.79-0.26-2.76-0.74c-0.97-0.48-1.92-0.73-3.4-1.04c-0.23-0.05-0.44-0.11-0.61-0.19
			c-0.93-0.43-1-1.26-0.69-1.85c0.37-0.7,1.25-0.68,1.25-0.68s-0.35-0.31-0.31-0.97c0.04-0.66,0.75-1.32,1.36-1.76
			c0.62-0.44,1.41-1.01,2.2-1.52c0.79-0.51,1.67-0.29,2.05,0c0.37,0.29,0.79,0.68,1.74,1.63c0.31,0.31,0.73,0.72,1.2,1.19
			c0.96,0.98,2.13,2.21,2.96,3.33c1.23,1.67,2.33,3.96,3.14,5.94c0.81,1.98,2.95,6.75,3.54,8.16C72.16,22.46,73.3,24.86,73.25,27.1z
			"/>
		<path class="st2" d="M71.96,28.42c-0.73,0.82-1.78,1.07-3.61,1.18c-1.58,0.09-4.39,0.36-5.79,0.34c-1.41-0.02-2.96-0.01-5.76-0.27
			c-4.62-0.43-5.48-1-6.55-1.01c-0.58-0.01-1,0.24-1.27,0.47c-1.99-2.42-3.13-5.18-3.16-8.1c2.5-0.32,5.5-0.47,10.31,0.68
			c5.5,1.31,8.44,3.09,8.44,3.09s-0.66-1.12-0.84-3.41c-0.18-2.3-0.04-6.43-0.34-8.28c-0.3-1.85-1.01-3.2-1.49-4.11
			c-0.52-0.64-1.23-0.34-1.82-0.34c-0.59,0-2.19-0.55-2.81-0.93c-0.28-0.17-0.9-0.31-1.53-0.43C54.96,7.14,54.18,7.03,54,6.97
			c-0.32-0.11-0.91-0.36-0.66-0.87c0.25-0.52,1.44-0.05,2.03,0.25c0.54,0.28,0.82,0.57,1.43,0.39c0.06-0.02,0.12-0.04,0.19-0.06
			c0.75-0.3,1.03-0.45,1.41-0.04c0.37,0.41,0.91,1.1,1.33,1.16c0.43,0.05,0.75-0.03,0.75-0.03s-1.35-1.22-1.91-1.81
			c-0.03-0.03-0.05-0.05-0.07-0.08C58,5.32,57.8,4.89,58.1,4.4c0.17-0.26,0.31-0.59,0.32-0.61c-0.02,0.01-0.23,0.09-0.5,0.29
			c-0.16,0.12-0.57,0.4-0.57,0.4s-0.34-0.09-0.44-0.4c-0.1-0.31-0.23-0.75-0.23-0.75s-0.24,0.66-0.16,1.19c0,0-0.12,0.17-0.63,0.12
			c0,0,0.2,0.23,0.58,0.23c0,0-0.01,0.31-0.02,0.47c0,0,0.24-0.08,0.4-0.3c0.15-0.21,0.43-0.14,0.53-0.02
			c0.1,0.12,0.33,0.46,0.37,0.61c0.04,0.14-0.23,0.26-0.53,0.33c-0.3,0.06-0.61,0.23-0.93,0.16c-0.31-0.06-0.72-0.32-1.09-0.76
			c-0.36-0.44-0.92-0.92-0.91-1.28c0.01-0.36,1.15-1.06,1.68-1.42c0.53-0.36,1.36-0.93,1.51-1.04c0.15-0.12,0.63-0.43,1.19,0.12
			c0.43,0.43,2.13,2.12,3.1,3.08c0.27,0.26,0.48,0.48,0.59,0.59c0.53,0.53,1.69,1.81,2.21,2.78c0.53,0.96,2.82,5.68,3.84,7.96
			c1.01,2.28,3.19,7.48,3.56,8.51C72.33,25.68,72.69,27.6,71.96,28.42z"/>
		<path class="st0" d="M73.05,27.08c0.05,2.24,1.29,2.88,2.85,3.18c1.56,0.31,5.05,0.48,8.38,0.61c3.34,0.13,6.43-0.31,8.01-0.53
			c1.58-0.22,3.25-0.68,3.69-0.68c0.44,0,0.67,0.25,1.33,1.04c0,0,1.31-0.63,2.57-1.65c1.09-2.19,1.67-4.57,1.67-7.06
			c0-0.09,0-0.84,0-1.1c0-0.26-0.01-0.52-0.03-0.78c-0.71-0.16-1.86-0.27-3.7-0.36c-3.03-0.13-5.05,0.14-8.89,1.26
			c-3.84,1.12-5.52,1.82-5.52,1.82c0.42-1.43,0.43-3.47,0.35-5.68c-0.09-2.22,0.02-3.63,0.44-5.02c0.4-1.31,0.99-2.66,0.99-2.66
			s0.42,0.07,1.21,0.09c0.79,0.02,1.79-0.26,2.75-0.74c0.97-0.48,1.92-0.73,3.39-1.03c0.23-0.05,0.44-0.11,0.61-0.19
			c0.93-0.43,1-1.25,0.69-1.85c-0.37-0.7-1.25-0.68-1.25-0.68s0.35-0.31,0.31-0.97c-0.04-0.66-0.75-1.32-1.36-1.75
			c-0.61-0.44-1.4-1.01-2.19-1.51c-0.79-0.5-1.67-0.28-2.04,0c-0.37,0.29-0.79,0.68-1.73,1.62c-0.31,0.31-0.73,0.72-1.19,1.19
			c-0.96,0.97-2.13,2.2-2.95,3.33c-1.23,1.67-2.33,3.95-3.14,5.92s-2.94,6.74-3.53,8.14C74.15,22.45,73,24.84,73.05,27.08z"/>
		<path class="st2" d="M74.34,28.4c0.73,0.82,1.78,1.07,3.61,1.17c1.57,0.09,4.38,0.36,5.78,0.34c1.4-0.02,2.95-0.01,5.75-0.27
			c4.61-0.43,5.47-0.99,6.54-1.01c0.57-0.01,1,0.24,1.27,0.47c1.98-2.42,3.12-5.17,3.16-8.08c-2.5-0.32-5.48-0.47-10.29,0.67
			c-5.49,1.31-8.43,3.08-8.43,3.08s0.66-1.11,0.84-3.41c0.18-2.29,0.04-6.41,0.34-8.26c0.3-1.85,1.01-3.2,1.49-4.1
			c0.52-0.64,1.23-0.34,1.81-0.34c0.59,0,2.19-0.55,2.81-0.92c0.28-0.17,0.9-0.31,1.53-0.43c0.77-0.15,1.55-0.25,1.72-0.31
			c0.32-0.11,0.91-0.36,0.66-0.87c-0.25-0.51-1.44-0.05-2.02,0.25c-0.53,0.28-0.82,0.57-1.43,0.38c-0.06-0.02-0.12-0.04-0.18-0.06
			c-0.75-0.3-1.03-0.44-1.4-0.04c-0.37,0.41-0.91,1.1-1.33,1.15c-0.43,0.05-0.75-0.03-0.75-0.03s1.35-1.22,1.9-1.81
			c0.03-0.03,0.05-0.05,0.07-0.08c0.5-0.55,0.7-0.98,0.4-1.46C88,4.17,87.86,3.84,87.86,3.82c0.02,0.01,0.23,0.09,0.5,0.29
			c0.16,0.12,0.57,0.39,0.57,0.39s0.34-0.09,0.44-0.4c0.1-0.31,0.23-0.75,0.23-0.75s0.24,0.66,0.16,1.19c0,0,0.12,0.17,0.63,0.12
			c0,0-0.2,0.22-0.57,0.23c0,0,0.01,0.31,0.02,0.47c0,0-0.24-0.08-0.4-0.3c-0.15-0.21-0.43-0.14-0.53-0.02
			c-0.1,0.12-0.33,0.46-0.37,0.6c-0.04,0.14,0.23,0.26,0.53,0.33c0.3,0.06,0.61,0.22,0.92,0.16c0.31-0.06,0.72-0.32,1.08-0.76
			c0.36-0.44,0.92-0.92,0.91-1.28c-0.01-0.36-1.15-1.06-1.68-1.42c-0.53-0.36-1.36-0.92-1.51-1.04c-0.15-0.12-0.63-0.43-1.18,0.12
			c-0.43,0.43-2.13,2.11-3.09,3.08c-0.27,0.26-0.48,0.47-0.59,0.59c-0.53,0.53-1.68,1.81-2.21,2.77c-0.53,0.96-2.82,5.67-3.83,7.94
			c-1.01,2.27-3.18,7.46-3.55,8.49C73.97,25.66,73.61,27.58,74.34,28.4z"/>
	</g>
</g>
</svg>
