<?xml version="1.0" encoding="utf-8"?>
<!-- Generator: Adobe Illustrator 23.0.1, SVG Export Plug-In . SVG Version: 6.00 Build 0)  -->
<svg version="1.1" id="Layer_1" xmlns="http://www.w3.org/2000/svg" xmlns:xlink="http://www.w3.org/1999/xlink" x="0px" y="0px"
	 viewBox="0 0 150 80" style="enable-background:new 0 0 150 80;" xml:space="preserve">
<style type="text/css">
	.st0{fill:#006937;}
</style>
<g>
	<path class="st0" d="M76.3,25.55c-0.01,0-0.01,0-0.02,0.01l0.01,0.02L76.3,25.55z"/>
	<path class="st0" d="M74.55,22.47c-0.01,0-0.01,0-0.02,0.01l0.01,0.03L74.55,22.47z"/>
	<g>
		<polygon class="st0" points="69.77,30.51 69.82,30.37 69.72,30.37 		"/>
		<path class="st0" d="M134.35,44.14c-0.18-0.22-2.13-1.7-4.23-3V37.8c1.1,0.52,1.96,0.95,2.34,1.18l-2.53-11.52l-3.63,7.23
			l-2.52-8.92l-3.8,7.48c0,0,1.1,0.48,2.65,1.16v2.93c-1.48-0.59-3.03-1.12-4.64-1.55v-5.51l2.35,0.11l-3.62-9l-3.38,8.66l2.48,0.12
			v5.09c-1.52-0.32-3.09-0.56-4.7-0.7v-4.62l2.12,0.1l-3.1-8.71l-2.96,8.41l1.77,0.09v4.59c-0.34-0.01-0.68-0.01-1.02-0.01
			c-0.47-0.58-2.13-2.52-4.94-4.79V26.4c0.94,0.59,2.18,1.53,2.18,1.53l-2.86-10.35l-2.82,4.94l-1.34-8.01l-3.02,7.46l-0.06,0.04
			c0.58,0.29,1.14,0.57,1.67,0.85v2.57c-1.13-0.63-2.35-1.24-3.65-1.8l-0.01-3.02l1.61,0.39l0.14,0.08l-2.07-7.99l-2.07,4.43
			l-1.88-6.46l-2.1,5.23l-0.94,2.54l1.84,0.45v2.39c-1.3-0.37-2.67-0.69-4.09-0.95l0.01-3.55c0.33,0.06,0.65,0.14,0.95,0.23
			l1.11,0.04l-3.09-8.25l-1.82,4.63l-2.2-5.59l-3.35,6.08l-2.89-5.32l-2.27,8.5c0.77-0.07,1.63-0.09,2.5-0.09v3.11
			c-1.82,0.31-3.54,0.75-5.11,1.26v-3.24c1.21-0.32,2.03-0.54,2.03-0.54l-3.65-8.22l-1.81,8.18l-4.16-7.57l-1.91,9.12l-1.89-4.62
			l-1.99,4.3l-1.45-6.75l-2.71,4.09l-3.07-7.57l-3.07,7.16l-1.99-5.73l-2.34,8.55c0.52-0.16,1.04-0.31,1.53-0.44l-0.07,3.19
			c-0.86,0.27-1.77,0.6-2.73,0.99l0.02-3.35c0.41-0.13,0.82-0.26,1.22-0.38l-2.52-6.51l-3.43,8.8c0.33-0.27,1.15-0.63,2.19-1.03
			l-0.02,3.6c-1.35,0.65-2.79,1.4-4.31,2.25l-0.02-2.17l2.52-1.22l-3.98-6.75l-2.35,9.82l2.36-1.15l0.02,2.29
			c-1.17,0.68-2.38,1.42-3.64,2.21l0-1.64l1.44-0.7l-2.71-6.34l-1.6,5.92l-2.3-5.92l-4.13,10.63l0.89-0.32l2.19-0.57L19.99,33
			c-0.87,0.66-1.75,1.32-2.48,1.88c-0.4,0.29-0.8,0.57-1.2,0.86l0.02,0.05c-0.45,0.35-0.73,0.56-0.73,0.57
			c-0.33,0.26-0.52,0.66-0.55,1.08c-0.07,0.07-0.04,0.61,0.09,0.67c0.03,0.08,0.07,0.16,0.11,0.24c0.23,0.39,0.6,0.6,0.99,0.62
			c0.26,0.01,0.53-0.07,0.77-0.25c0.01-0.01,1.31-1.02,2.34-1.8h12.91c0.44,0,0.8-0.35,0.8-0.78c0-0.43-0.36-0.78-0.8-0.78H21.48
			c0.85-0.59,1.69-1.16,2.51-1.71h10.42c0.44,0,0.8-0.35,0.8-0.78c0-0.43-0.36-0.78-0.8-0.78h-8.02c0.93-0.6,1.85-1.17,2.74-1.71
			h9.56c0.44,0,0.8-0.35,0.8-0.78s-0.36-0.78-0.8-0.78h-6.89c1.09-0.62,2.15-1.19,3.18-1.71h7.97c0.44,0,0.8-0.35,0.8-0.78
			s-0.36-0.78-0.8-0.78h-4.62c2.91-1.23,5.39-1.91,7.3-1.9c0.17,0,0.34,0.01,0.51,0.02c1.42,0.1,3.01,0.49,4.71,1.11
			c0.31,0.11,0.58,0.23,0.59,0.23c0.01,0,0.22,0.09,0.23,0.09c10.1,4.03,23.47,15.26,27.34,18.62c-4.74,2.56-9.76,7.69-10.06,7.94
			c-0.57,0.45-0.71,1.35-0.31,1.99c0.4,0.65,1.19,0.81,1.76,0.35c0,0,0.26-0.26,0.75-0.71c0,0,0.01,0,0.01,0h25.49
			c0.44,0,0.8-0.35,0.8-0.78c0-0.43-0.36-0.78-0.8-0.78h-23.7c0.61-0.51,1.33-1.09,2.14-1.71c0.01,0,0.03,0,0.04,0h23.5
			c0.44,0,0.8-0.35,0.8-0.78c0-0.43-0.36-0.78-0.8-0.78H77.21c0.78-0.55,1.63-1.13,2.52-1.71h20.89c0.44,0,0.8-0.35,0.8-0.78
			c0-0.43-0.36-0.78-0.8-0.78H82.27c0.98-0.58,2.01-1.15,3.08-1.71h17.8c0.44,0,0.8-0.35,0.8-0.78c0-0.43-0.36-0.78-0.8-0.78H88.58
			c1.36-0.61,2.77-1.18,4.23-1.71h13.05c0.44,0,0.8-0.35,0.8-0.78c0-0.43-0.36-0.78-0.8-0.78h-7.83c3.81-0.93,7.87-1.43,12.1-1.27
			c10.96,0.43,22.23,8.58,22.35,8.73c0.25,0.31,0.59,0.46,0.93,0.46c0.31,0,0.61-0.12,0.86-0.38
			C134.79,45.63,134.82,44.72,134.35,44.14z M22.45,29.1l1.17-0.47l0,2.05c-0.37,0.24-0.75,0.49-1.13,0.75L22.45,29.1z M45.13,18.53
			v2.25c-0.76,0.04-1.6,0.16-2.5,0.37l0.07-3.16c0.72-0.17,1.27-0.27,1.52-0.27c0.25,0,0.44,0.01,0.9,0.06
			C45.14,18.05,45.13,18.26,45.13,18.53z M50.42,21.64c-0.96-0.3-1.88-0.53-2.76-0.68v-2.42c0-0.15-0.04-0.33-0.01-0.46
			c1.37,0.21,2.54,0.46,2.54,0.46l0.31,0.15L50.42,21.64z M54.64,23.31c-0.58-0.27-1.15-0.52-1.71-0.75L53,19.87l1.79,0.85
			L54.64,23.31z M98.53,23.82c0.69,0.38,1.33,0.73,1.91,1.07v2.85c-0.6-0.42-1.24-0.84-1.91-1.25V23.82z M89.42,19.71l1.84,0.45
			l0.01,2.73c-0.6-0.23-1.22-0.45-1.85-0.66V19.71z M79.31,16.57c0.47,0.04,0.94,0.08,1.37,0.16c0.35,0.06,0.7,0.11,1.04,0.16
			l-0.01,3.52c-0.64-0.09-1.28-0.17-1.95-0.24c-0.15-0.02-0.3-0.02-0.45-0.04V16.57z M74.28,17.4c0.54,0.02,1.06,0.04,1.53,0.06
			c0.22,0.01-0.22-1.06,0-1.05c0.55,0.04,1.12,0.05,1.7,0.07v3.58c-1.09-0.01-2.17,0.05-3.22,0.17V17.4z M62.44,19.81
			c0.79-0.21,1.61-0.43,2.4-0.64v3.49c-0.88,0.35-1.68,0.71-2.4,1.04V19.81z M59.91,25c-0.44,0.25-0.76,0.45-0.95,0.56
			c-0.62-0.35-1.24-0.69-1.85-1.02l0.16-2.65l1.97,0.94l-0.79-1.94c0.4-0.11,0.9-0.25,1.47-0.4V25z M94.14,36.77l0.01-1.49h1.2
			l-2.24-6.38l-2.34,6.38h1.21l-0.01,2.23c-1.18,0.43-2.34,0.88-3.46,1.36l0.01-2.18l1.97,0l-3.16-8.16l-3.19,8.19l2.2-0.03
			l-0.02,3.15c-1.27,0.59-2.48,1.19-3.63,1.79l0.01-2.17h1.64l-2.89-8.09l-2.32,8.09h1.4l-0.01,1.96c-0.77-0.67-1.9-1.64-3.29-2.79
			l0.02-2.7l1.28-0.04l-2.44-8.43l-2.03,8.5l1.46-0.1l0.03,1.38c-0.77-0.62-2.07-1.64-2.92-2.3l0.02-2.7l1.68-0.03l-2.33-7.63
			l0.03,0.1l-2.76,7.55l1.76-0.02l-0.03,1.48c-2.72-2.04-6.26-4.58-9.31-6.48c3.16-1.68,10.36-4.92,17.84-4.18
			c4.64,0.45,8.7,1.63,12.16,3.11c0.09,0.07,0.2,0.11,0.32,0.13c6.05,2.64,10.22,6.18,12.38,8.33
			C100.89,34.93,97.43,35.72,94.14,36.77z M128.31,40.08c-1.23-0.69-2.52-1.35-3.88-1.96v-2.89c1.26,0.56,2.63,1.17,3.88,1.74V40.08
			z"/>
		<path class="st0" d="M39.36,18.9c-0.01,0-0.02,0-0.02,0.01l0.01,0.03L39.36,18.9z"/>
	</g>
	<path class="st0" d="M15.14,71.28V58.83h6.45c0.28,0,0.58,0.01,0.92,0.02c0.33,0.02,0.67,0.06,1.02,0.12
		c0.34,0.07,0.67,0.17,0.99,0.31c0.32,0.14,0.6,0.33,0.85,0.57c0.25,0.24,0.45,0.55,0.6,0.92c0.15,0.37,0.22,0.83,0.22,1.37
		c0,0.58-0.07,1.06-0.22,1.44c-0.14,0.38-0.35,0.7-0.6,0.95c-0.26,0.25-0.57,0.45-0.92,0.6c-0.35,0.15-0.74,0.28-1.17,0.4
		c0.41,0.1,0.77,0.21,1.07,0.33c0.31,0.11,0.57,0.27,0.8,0.46c0.22,0.19,0.41,0.44,0.55,0.75c0.14,0.31,0.24,0.7,0.31,1.19
		c0.03,0.21,0.06,0.44,0.1,0.71c0.03,0.26,0.07,0.53,0.11,0.81c0.04,0.27,0.07,0.55,0.1,0.82c0.02,0.27,0.05,0.5,0.07,0.7h-3.91
		c-0.02-0.19-0.05-0.45-0.08-0.79c-0.03-0.34-0.07-0.7-0.12-1.07c-0.04-0.37-0.09-0.73-0.15-1.08c-0.05-0.35-0.12-0.61-0.19-0.8
		c-0.08-0.22-0.21-0.39-0.38-0.52c-0.17-0.13-0.37-0.23-0.57-0.3c-0.21-0.07-0.42-0.11-0.63-0.12c-0.21-0.02-0.39-0.02-0.54-0.02h-1
		v4.7H15.14z M18.81,61.11v3.23h1.78c0.2,0,0.41-0.02,0.62-0.05c0.21-0.03,0.41-0.1,0.59-0.21c0.18-0.11,0.33-0.27,0.45-0.49
		c0.12-0.22,0.18-0.51,0.18-0.87c0-0.36-0.06-0.65-0.18-0.86c-0.12-0.21-0.27-0.37-0.45-0.49c-0.18-0.11-0.38-0.19-0.59-0.22
		c-0.21-0.03-0.42-0.05-0.62-0.05H18.81z"/>
	<path class="st0" d="M36.38,67.25h-6.11v0.22c0,0.26,0.01,0.52,0.04,0.77c0.02,0.25,0.09,0.48,0.19,0.68
		c0.1,0.2,0.25,0.37,0.46,0.49c0.2,0.12,0.48,0.19,0.83,0.19c0.46,0,0.78-0.09,0.97-0.26c0.19-0.17,0.29-0.44,0.31-0.8h3.28
		c0,0.45-0.07,0.85-0.22,1.2c-0.15,0.36-0.4,0.66-0.76,0.92c-0.36,0.25-0.83,0.45-1.43,0.59c-0.59,0.14-1.33,0.21-2.2,0.21
		c-0.81,0-1.51-0.07-2.11-0.2c-0.6-0.13-1.11-0.38-1.52-0.73c-0.41-0.35-0.71-0.84-0.92-1.45c-0.2-0.62-0.31-1.4-0.31-2.35
		c0-1,0.1-1.82,0.31-2.44c0.2-0.62,0.51-1.1,0.92-1.44c0.41-0.34,0.91-0.57,1.52-0.68c0.6-0.11,1.31-0.17,2.11-0.17
		c0.97,0,1.75,0.09,2.35,0.28c0.6,0.19,1.07,0.46,1.41,0.82c0.34,0.36,0.57,0.8,0.69,1.34c0.12,0.53,0.19,1.15,0.19,1.84V67.25z
		 M33.07,65.59c0-0.27-0.02-0.51-0.06-0.73c-0.04-0.22-0.11-0.4-0.22-0.55c-0.1-0.15-0.25-0.26-0.43-0.34
		c-0.18-0.08-0.41-0.12-0.69-0.12c-0.28,0-0.51,0.04-0.69,0.12c-0.18,0.08-0.33,0.19-0.43,0.34c-0.1,0.15-0.18,0.33-0.22,0.55
		c-0.04,0.22-0.06,0.46-0.06,0.73v0.22h2.79V65.59z"/>
	<path class="st0" d="M56.52,64.07c-0.11,0.15-0.17,0.41-0.17,0.77v6.4h-3.19v-8.59l0.82-0.11c0.28-0.04,0.57-0.09,0.88-0.16
		c0.31-0.06,0.63-0.12,0.96-0.19c0.33-0.06,0.66-0.11,1-0.16c0.34-0.04,0.68-0.06,1.03-0.06c0.35,0,0.72,0.03,1.1,0.09
		c0.39,0.06,0.74,0.18,1.07,0.36c0.32,0.18,0.59,0.42,0.81,0.75c0.21,0.32,0.32,0.74,0.32,1.26v2.59h-3.19v-2.18
		c0-0.36-0.06-0.62-0.17-0.77c-0.11-0.15-0.33-0.23-0.63-0.23C56.84,63.85,56.63,63.92,56.52,64.07z"/>
	<path class="st0" d="M71.23,67.25h-6.11v0.22c0,0.26,0.01,0.52,0.04,0.77c0.02,0.25,0.09,0.48,0.19,0.68
		c0.1,0.2,0.25,0.37,0.46,0.49c0.2,0.12,0.48,0.19,0.83,0.19c0.46,0,0.78-0.09,0.97-0.26c0.19-0.17,0.29-0.44,0.31-0.8h3.28
		c0,0.45-0.07,0.85-0.22,1.2c-0.15,0.36-0.4,0.66-0.76,0.92c-0.36,0.25-0.83,0.45-1.43,0.59c-0.59,0.14-1.33,0.21-2.2,0.21
		c-0.81,0-1.51-0.07-2.11-0.2c-0.6-0.13-1.11-0.38-1.52-0.73c-0.41-0.35-0.71-0.84-0.92-1.45c-0.2-0.62-0.31-1.4-0.31-2.35
		c0-1,0.1-1.82,0.31-2.44c0.2-0.62,0.51-1.1,0.92-1.44c0.41-0.34,0.91-0.57,1.52-0.68c0.6-0.11,1.31-0.17,2.11-0.17
		c0.97,0,1.75,0.09,2.35,0.28c0.6,0.19,1.07,0.46,1.41,0.82c0.34,0.36,0.57,0.8,0.69,1.34c0.12,0.53,0.19,1.15,0.19,1.84V67.25z
		 M67.91,65.59c0-0.27-0.02-0.51-0.06-0.73c-0.04-0.22-0.11-0.4-0.22-0.55c-0.1-0.15-0.25-0.26-0.43-0.34
		c-0.18-0.08-0.41-0.12-0.69-0.12c-0.28,0-0.51,0.04-0.69,0.12c-0.18,0.08-0.33,0.19-0.43,0.34c-0.1,0.15-0.18,0.33-0.22,0.55
		c-0.04,0.22-0.06,0.46-0.06,0.73v0.22h2.79V65.59z"/>
	<path class="st0" d="M78.07,62.15c0.53,0.11,0.99,0.29,1.37,0.54c0.38,0.25,0.67,0.57,0.87,0.96c0.2,0.39,0.31,0.86,0.31,1.42
		h-2.99c0-0.39-0.1-0.69-0.31-0.9c-0.21-0.21-0.55-0.31-1.03-0.31c-0.67,0-1,0.28-1,0.85c0,0.11,0.02,0.22,0.06,0.32
		c0.04,0.1,0.12,0.19,0.23,0.28c0.11,0.09,0.28,0.17,0.49,0.23c0.21,0.07,0.49,0.13,0.84,0.18c0.63,0.09,1.19,0.19,1.68,0.28
		c0.49,0.09,0.91,0.23,1.25,0.42c0.34,0.19,0.61,0.45,0.79,0.78c0.18,0.34,0.28,0.8,0.28,1.39c0,0.65-0.16,1.17-0.47,1.55
		c-0.31,0.38-0.7,0.67-1.16,0.87c-0.46,0.2-0.95,0.32-1.47,0.37c-0.52,0.05-0.99,0.08-1.41,0.08c-0.58,0-1.14-0.04-1.69-0.13
		c-0.55-0.09-1.04-0.25-1.47-0.48c-0.43-0.23-0.77-0.55-1.03-0.95c-0.26-0.4-0.39-0.93-0.39-1.57h3.19c0,0.45,0.12,0.77,0.37,0.97
		c0.24,0.2,0.58,0.3,1.02,0.3c0.14,0,0.29-0.01,0.44-0.03c0.15-0.02,0.3-0.06,0.43-0.11c0.13-0.05,0.24-0.13,0.32-0.22
		c0.08-0.1,0.13-0.23,0.13-0.38c0-0.18-0.03-0.32-0.08-0.44c-0.06-0.12-0.16-0.22-0.31-0.3c-0.15-0.08-0.37-0.16-0.63-0.22
		c-0.27-0.06-0.62-0.12-1.04-0.19c-0.63-0.09-1.17-0.19-1.63-0.29c-0.46-0.1-0.83-0.25-1.13-0.45c-0.29-0.2-0.51-0.46-0.66-0.78
		c-0.14-0.33-0.22-0.76-0.22-1.3c0-0.62,0.13-1.12,0.39-1.5C72.66,63,73,62.7,73.41,62.5c0.41-0.21,0.87-0.34,1.37-0.41
		c0.5-0.07,1-0.1,1.5-0.1C76.94,61.98,77.54,62.04,78.07,62.15z"/>
	<path class="st0" d="M86.15,68.88c0.02,0.14,0.06,0.26,0.13,0.36c0.07,0.09,0.17,0.16,0.3,0.21c0.13,0.05,0.3,0.07,0.51,0.07
		c0.22,0,0.45-0.02,0.68-0.07c0.23-0.05,0.46-0.09,0.66-0.13v1.82c-0.38,0.11-0.76,0.2-1.13,0.25c-0.38,0.05-0.76,0.08-1.15,0.08
		c-0.72,0-1.29-0.07-1.72-0.21c-0.43-0.14-0.77-0.33-1-0.56c-0.23-0.23-0.39-0.49-0.47-0.78c-0.08-0.29-0.12-0.59-0.12-0.9v-4.94
		h-1.28V62.2h1.28v-3.39h3.28v3.39h2.31v1.86h-2.31v4.32C86.12,68.57,86.13,68.73,86.15,68.88z"/>
	<path class="st0" d="M112.47,62.19c0.48,0.11,0.89,0.28,1.24,0.5c0.35,0.23,0.62,0.51,0.81,0.85c0.19,0.34,0.29,0.75,0.29,1.21
		v6.52h-3.18v-6.15c0-0.16-0.02-0.31-0.05-0.46c-0.03-0.15-0.1-0.28-0.19-0.4c-0.09-0.11-0.22-0.21-0.39-0.28
		c-0.17-0.07-0.38-0.11-0.64-0.11c-0.27,0-0.49,0.04-0.66,0.11c-0.17,0.07-0.3,0.17-0.39,0.28c-0.09,0.11-0.15,0.25-0.19,0.4
		c-0.03,0.15-0.05,0.3-0.05,0.46v6.15h-3.18v-6.15c0-0.16-0.01-0.31-0.04-0.46c-0.03-0.15-0.09-0.28-0.17-0.4
		c-0.09-0.11-0.21-0.21-0.37-0.28c-0.16-0.07-0.37-0.11-0.63-0.11c-0.27,0-0.48,0.04-0.64,0.11c-0.16,0.07-0.28,0.17-0.37,0.28
		c-0.09,0.11-0.14,0.25-0.17,0.4c-0.02,0.15-0.04,0.3-0.04,0.46v6.15h-3.18v-8.45l0.29-0.03c0.17-0.02,0.39-0.07,0.64-0.16
		c0.25-0.08,0.56-0.17,0.9-0.26c0.35-0.09,0.74-0.18,1.18-0.25c0.44-0.07,0.92-0.11,1.45-0.11c0.38,0,0.72,0.03,1.01,0.09
		c0.29,0.06,0.54,0.14,0.76,0.24c0.22,0.1,0.42,0.23,0.6,0.37c0.18,0.15,0.35,0.3,0.51,0.47c0.38-0.32,0.83-0.6,1.35-0.82
		c0.51-0.23,1.14-0.34,1.88-0.34C111.46,62.03,111.98,62.08,112.47,62.19z"/>
	<path class="st0" d="M118.17,71.24c-0.62-0.14-1.14-0.4-1.55-0.75c-0.41-0.36-0.71-0.84-0.92-1.45c-0.2-0.61-0.31-1.38-0.31-2.31
		c0-0.93,0.1-1.7,0.31-2.31c0.2-0.61,0.51-1.09,0.92-1.45c0.41-0.36,0.92-0.61,1.55-0.75c0.62-0.14,1.35-0.22,2.19-0.22
		c0.84,0,1.57,0.07,2.19,0.22c0.62,0.15,1.14,0.4,1.55,0.75c0.41,0.36,0.71,0.84,0.92,1.45c0.2,0.61,0.31,1.38,0.31,2.31
		c0,0.93-0.1,1.7-0.31,2.31c-0.2,0.61-0.51,1.09-0.92,1.45c-0.41,0.36-0.92,0.61-1.55,0.75c-0.62,0.14-1.35,0.22-2.19,0.22
		C119.52,71.46,118.79,71.38,118.17,71.24z M121.06,69.48c0.19-0.08,0.36-0.22,0.49-0.43c0.13-0.21,0.22-0.5,0.28-0.88
		c0.06-0.38,0.09-0.86,0.09-1.45s-0.03-1.07-0.09-1.45c-0.06-0.38-0.15-0.67-0.28-0.88c-0.13-0.21-0.29-0.35-0.49-0.43
		c-0.19-0.08-0.43-0.12-0.71-0.12s-0.52,0.04-0.72,0.12c-0.2,0.08-0.36,0.22-0.49,0.43c-0.12,0.21-0.22,0.5-0.28,0.88
		c-0.06,0.38-0.09,0.86-0.09,1.45s0.03,1.07,0.09,1.45c0.06,0.38,0.15,0.67,0.28,0.88c0.12,0.21,0.29,0.35,0.49,0.43
		c0.2,0.08,0.44,0.12,0.72,0.12S120.87,69.55,121.06,69.48z"/>
	<path class="st0" d="M132.16,62.15c0.53,0.11,0.99,0.29,1.37,0.54c0.38,0.25,0.67,0.57,0.87,0.96c0.2,0.39,0.31,0.86,0.31,1.42
		h-2.99c0-0.39-0.1-0.69-0.31-0.9c-0.21-0.21-0.55-0.31-1.03-0.31c-0.67,0-1,0.28-1,0.85c0,0.11,0.02,0.22,0.06,0.32
		c0.04,0.1,0.12,0.19,0.23,0.28c0.11,0.09,0.28,0.17,0.49,0.23c0.21,0.07,0.49,0.13,0.84,0.18c0.63,0.09,1.19,0.19,1.68,0.28
		c0.49,0.09,0.91,0.23,1.25,0.42c0.34,0.19,0.61,0.45,0.79,0.78c0.18,0.34,0.28,0.8,0.28,1.39c0,0.65-0.16,1.17-0.47,1.55
		c-0.31,0.38-0.7,0.67-1.16,0.87c-0.46,0.2-0.95,0.32-1.47,0.37c-0.52,0.05-0.99,0.08-1.41,0.08c-0.58,0-1.14-0.04-1.69-0.13
		c-0.55-0.09-1.04-0.25-1.47-0.48c-0.43-0.23-0.77-0.55-1.03-0.95c-0.26-0.4-0.39-0.93-0.39-1.57h3.19c0,0.45,0.12,0.77,0.37,0.97
		c0.24,0.2,0.58,0.3,1.02,0.3c0.14,0,0.29-0.01,0.44-0.03c0.15-0.02,0.3-0.06,0.43-0.11c0.13-0.05,0.24-0.13,0.32-0.22
		c0.08-0.1,0.13-0.23,0.13-0.38c0-0.18-0.03-0.32-0.08-0.44c-0.05-0.12-0.16-0.22-0.31-0.3c-0.15-0.08-0.37-0.16-0.63-0.22
		c-0.27-0.06-0.62-0.12-1.04-0.19c-0.63-0.09-1.17-0.19-1.63-0.29c-0.46-0.1-0.83-0.25-1.13-0.45c-0.29-0.2-0.51-0.46-0.66-0.78
		c-0.14-0.33-0.22-0.76-0.22-1.3c0-0.62,0.13-1.12,0.39-1.5c0.26-0.38,0.59-0.67,1.01-0.88c0.41-0.21,0.87-0.34,1.37-0.41
		c0.5-0.07,1-0.1,1.5-0.1C131.03,61.98,131.62,62.04,132.16,62.15z"/>
	<path class="st0" d="M45.57,59.08c-0.4-0.18-0.86-0.3-1.37-0.37c-0.51-0.07-1.04-0.1-1.57-0.1c-0.54,0-1.07,0.03-1.6,0.1
		c-0.53,0.07-1,0.19-1.42,0.37c-0.42,0.18-0.76,0.41-1.02,0.71c-0.26,0.29-0.4,0.67-0.4,1.13v1.34h-1.12v2.08h1.12v6.96h3.4v-6.96
		h1.39v-2.08H41.6v-0.82c0-0.13,0.01-0.26,0.04-0.37c0.02-0.11,0.07-0.21,0.14-0.3c0.07-0.08,0.17-0.15,0.29-0.19
		c0.12-0.05,0.29-0.07,0.49-0.07c0.4,0,0.66,0.09,0.78,0.26c0.12,0.17,0.18,0.4,0.18,0.68v0.14h3.4v-0.65
		c0-0.46-0.12-0.83-0.37-1.13C46.3,59.49,45.98,59.25,45.57,59.08z"/>
	<g>
		<path class="st0" d="M47.81,66.87L47.81,66.87c-0.01,0-0.01,0-0.02,0c-0.01,0-0.01,0-0.02,0v0c-0.22-0.05-0.47-0.12-0.91-0.24
			c-0.96-0.27-2.82-0.89-2.82-0.89c-0.06,0.18-0.1,0.39-0.13,0.61c-0.14,0.75-0.23,1.72-0.23,2.12c0,0.56,0.13,1.03,0.38,1.42
			c0.25,0.39,0.61,0.7,1.1,0.95c0.27,0.14,0.71,0.31,0.87,0.38c0.02,0.01,0.03,0.01,0.03,0.01l0.54,0.56c0,0,0,0,0,0c0,0,0,0,0,0
			l0,0l0,0c0,0,0,0,0,0c0,0,0,0,0,0l0.01,0l0.01,0.01c0,0,0,0,0,0c0,0,0,0,0,0l0,0l0,0c0,0,0,0,0,0c0,0,0,0,0,0l0.73-0.26
			c0,0,0.01,0,0.03,0c0.17,0.02,0.65,0.06,0.95,0.06c0.55,0,1.02-0.12,1.41-0.35c0.39-0.23,0.72-0.6,0.98-1.1
			c0.18-0.36,0.54-1.26,0.76-1.99c0.07-0.21,0.13-0.42,0.16-0.6c0,0-1.94-0.29-2.92-0.48C48.28,66.98,48.03,66.92,47.81,66.87z"/>
		<path class="st0" d="M52.49,65.71c-0.16-0.55-0.49-0.83-0.79-1.14c-0.54-0.56-1.69-1.05-2.59-1.31c0.18-0.9,0.89-0.72,0.87-0.76
			c-0.41-0.64-0.41-1.18-0.41-1.18c-0.13-0.01-1.03,0.13-1.3,1.74c-0.93-0.19-2.18-0.27-2.93-0.01c-0.41,0.14-0.83,0.24-1.22,0.66
			c-0.41,0.44-0.51,1.14,0.21,1.44c0.33,0.14,1.68,0.55,3.6,1.05l0,0c0.01,0,0.01,0,0.02,0c0.01,0,0.01,0,0.02,0l0,0
			c1.94,0.43,3.33,0.67,3.69,0.69C52.44,66.96,52.66,66.29,52.49,65.71z"/>
	</g>
	<g>
		<path class="st0" d="M89.94,65.26c0-0.56,0.12-1.03,0.35-1.43c0.23-0.4,0.56-0.71,0.99-0.96c0.43-0.24,0.94-0.42,1.53-0.53
			c0.59-0.11,1.25-0.17,1.98-0.17c0.46,0,0.92,0.05,1.4,0.14c0.48,0.09,0.91,0.24,1.3,0.45c0.39,0.21,0.71,0.47,0.97,0.8
			c0.25,0.32,0.38,0.71,0.38,1.17v6.01l-0.59,0.09c-0.18,0.03-0.41,0.08-0.68,0.15c-0.27,0.07-0.58,0.14-0.93,0.21
			c-0.34,0.07-0.72,0.13-1.13,0.18c-0.41,0.06-0.84,0.08-1.3,0.08c-0.68,0-1.3-0.05-1.87-0.15c-0.57-0.1-1.06-0.27-1.48-0.49
			c-0.42-0.23-0.74-0.52-0.97-0.89c-0.23-0.37-0.35-0.81-0.35-1.32c0-0.67,0.11-1.17,0.34-1.51c0.23-0.33,0.54-0.57,0.94-0.71
			c0.4-0.14,0.87-0.23,1.41-0.25c0.54-0.03,1.12-0.07,1.73-0.13c0.6-0.05,1.02-0.14,1.26-0.27c0.24-0.13,0.37-0.35,0.37-0.68
			c0-0.31-0.08-0.57-0.24-0.76C95.18,64.1,94.88,64,94.46,64c-0.43,0-0.74,0.09-0.95,0.27c-0.21,0.18-0.31,0.51-0.31,1H89.94z
			 M93.3,67.95c-0.21,0.12-0.32,0.34-0.32,0.67c0,0.21,0.04,0.39,0.12,0.52c0.08,0.13,0.19,0.23,0.32,0.3
			c0.13,0.07,0.28,0.11,0.45,0.14c0.17,0.03,0.34,0.04,0.51,0.04c0.16,0,0.31-0.01,0.46-0.04c0.14-0.03,0.27-0.08,0.38-0.15
			c0.11-0.08,0.2-0.18,0.27-0.33c0.07-0.14,0.1-0.32,0.1-0.55V67.5c-0.13,0.04-0.25,0.07-0.35,0.1c-0.1,0.03-0.21,0.05-0.32,0.06
			c-0.11,0.02-0.24,0.03-0.38,0.05c-0.14,0.02-0.31,0.03-0.5,0.04C93.76,67.76,93.51,67.83,93.3,67.95z"/>
	</g>
</g>
</svg>
