<?xml version="1.0" encoding="utf-8"?>
<!-- Generator: Adobe Illustrator 23.0.1, SVG Export Plug-In . SVG Version: 6.00 Build 0)  -->
<svg version="1.1" id="Capa_1" xmlns="http://www.w3.org/2000/svg" xmlns:xlink="http://www.w3.org/1999/xlink" x="0px" y="0px"
	 viewBox="0 0 150 80" style="enable-background:new 0 0 150 80;" xml:space="preserve">
<style type="text/css">
	.st0{fill:#006430;}
	.st1{fill:#006631;}
</style>
<g>
	<path class="st0" d="M73.12,51.64c0.68,0,1.05,0,1.42,0c7.03,0,14.06,0,21.09,0c0.28,0,0.62-0.09,0.84,0.03
		c0.32,0.17,0.55,0.5,0.82,0.76c-0.26,0.23-0.48,0.54-0.78,0.67c-0.27,0.12-0.63,0.03-0.95,0.03c-7.74,0-15.48-0.01-23.22,0.02
		c-0.52,0-1.14,0.17-1.55,0.48c-0.66,0.49-1.24,0.75-1.85,0.06c-0.61-0.7-0.56-1.46,0.11-2.09c1.37-1.29,2.71-2.61,4.17-3.79
		c1.81-1.47,3.73-2.81,5.69-4.27c-1.44-1.21-2.9-2.48-4.41-3.69c-5.13-4.14-10.43-8.07-16.11-11.43c-3.17-1.88-6.46-3.48-10.07-4.37
		c-3.21-0.79-6.07,0.22-8.95,1.31c0,0.1,0.01,0.2,0.01,0.29c0.92,0,1.83,0,2.75,0c0.35,0,0.75-0.1,1.05,0.03
		c0.33,0.14,0.57,0.48,0.85,0.73c-0.28,0.24-0.56,0.69-0.85,0.7c-1.99,0.06-3.98,0.14-5.96,0.01c-1.77-0.12-3.09,0.71-4.45,1.74
		c1.61,0,3.22,0,4.83,0c0.46,0,0.94-0.08,1.38,0.04c0.31,0.08,0.8,0.47,0.77,0.64c-0.06,0.33-0.38,0.68-0.68,0.89
		c-0.19,0.14-0.55,0.06-0.83,0.06c-2.45,0-4.9,0.08-7.35-0.03c-1.45-0.07-2.45,0.63-3.75,1.6c2.4,0,4.51,0,6.62,0
		c0.35,0,0.77-0.09,1.05,0.06c0.32,0.17,0.53,0.56,0.79,0.86c-0.3,0.24-0.57,0.6-0.91,0.68c-0.51,0.12-1.06,0.03-1.59,0.03
		c-2.45,0-4.9,0-7.35,0c-1.38,0-2.3,0.44-3.45,1.72c0.97,0,1.85,0,2.72,0c2.41,0,4.83,0,7.24,0c0.54,0,1.15-0.05,1.15,0.73
		c0,0.77-0.59,0.76-1.14,0.76c-3.09,0-6.18,0.08-9.26-0.03c-2.02-0.07-3.84,0.12-5.33,1.7c-0.26,0.28-1.15,0.32-1.48,0.09
		c-0.34-0.24-0.5-0.95-0.47-1.44c0.02-0.38,0.4-0.81,0.73-1.08c0.95-0.79,1.93-1.56,2.96-2.24c0.9-0.59,1.33-1.29,1.09-2.37
		c-0.08-0.37-0.09-0.77-0.14-1.3c-0.95,0.24-1.85,0.47-2.9,0.73c1.35-3.48,2.66-6.84,4.05-10.42c0.78,1.96,1.46,3.7,2.15,5.44
		c0.07,0,0.15,0,0.22,0c0.49-1.75,0.97-3.5,1.51-5.42c0.92,2.15,1.78,4.15,2.64,6.15c-1.48,1.01-1.48,1.01-1.31,2.34
		c1.16-0.7,2.37-1.25,3.3-2.1c0.39-0.36,0.18-1.37,0.26-2.25c-0.84,0.36-1.47,0.63-2.36,1.02c0.77-3.25,1.49-6.29,2.29-9.65
		c1.41,2.38,2.68,4.51,3.95,6.65c-1.16,0.81-3.32,0.85-2.33,3.26c1.25-0.63,2.51-1.25,3.74-1.93c0.19-0.11,0.36-0.44,0.37-0.67
		c0.04-0.95,0.02-1.91,0.02-3.01c-0.7,0.26-1.28,0.49-2.08,0.79c1.11-2.85,2.17-5.56,3.32-8.53c0.86,2.2,1.63,4.15,2.52,6.4
		c0.8-2.9,1.53-5.51,2.34-8.42c0.68,1.94,1.27,3.62,1.96,5.59c1.07-2.46,2.02-4.65,3.05-7.02c1.03,2.52,2,4.88,3.06,7.45
		c0.9-1.35,1.7-2.56,2.66-4c0.5,2.25,0.95,4.26,1.39,6.28c0.07,0,0.15,0,0.22,0c0.57-1.2,1.14-2.41,1.81-3.83
		c0.62,1.49,1.16,2.79,1.7,4.09c0.08,0.01,0.15,0.03,0.23,0.04c0.59-2.78,1.19-5.56,1.83-8.6c1.39,2.51,2.67,4.81,3.95,7.12
		c0.08-0.02,0.16-0.03,0.24-0.05c0.56-2.48,1.11-4.96,1.73-7.69c1.26,2.83,2.42,5.43,3.57,8.02c-0.67,0.3-1.7,0.45-1.87,0.92
		c-0.3,0.83-0.09,1.85-0.09,2.86c1.62-0.38,3.13-0.71,4.63-1.09c0.18-0.04,0.41-0.32,0.42-0.5c0.04-0.84,0.02-1.68,0.02-2.61
		c-0.81,0-1.51,0-2.45,0c0.73-2.79,1.43-5.44,2.2-8.35c1.02,1.84,1.92,3.46,2.89,5.22c1.12-2.02,2.16-3.89,3.31-5.95
		c0.73,1.83,1.41,3.51,2.19,5.45c0.65-1.61,1.19-2.97,1.81-4.5c1.03,2.75,2.01,5.34,3.02,8.03c-0.68,0-1.25,0-2.01,0
		c0,0.96-0.03,1.94,0.02,2.91c0.01,0.2,0.28,0.5,0.48,0.55c1.09,0.29,2.2,0.51,3.31,0.75c0.49-1.77,0.35-2.03-1.58-2.83
		c0.96-2.43,1.91-4.85,2.87-7.28c0.08,0.01,0.15,0.03,0.23,0.04c0.56,1.9,1.13,3.8,1.78,6.02c0.73-1.55,1.34-2.83,2.05-4.33
		c0.7,2.71,1.35,5.19,2.03,7.79c-0.61-0.1-1.11-0.18-1.72-0.28c0,0.86-0.02,1.64,0.01,2.41c0.01,0.22,0.13,0.53,0.29,0.62
		c1.05,0.55,2.13,1.05,3.25,1.59c0.25-1.52,0.36-2.85-1.57-3.22c1-2.46,1.96-4.82,3.03-7.46c0.46,2.7,0.87,5.11,1.34,7.84
		c1-1.72,1.84-3.15,2.8-4.81c0.97,3.5,1.87,6.75,2.81,10.15c-0.73-0.48-1.32-0.87-2.12-1.4c0.05,1.6-0.49,3.01,1.04,4.16
		c1.26,0.95,2.28,2.22,3.45,3.3c0.31,0.28,0.82,0.35,1.44,0.6c0-1.55,0.03-2.82-0.03-4.09c-0.01-0.22-0.38-0.49-0.64-0.6
		c-0.28-0.11-0.62-0.06-1.11-0.09c0.95-2.73,1.88-5.38,2.91-8.31c1.06,2.96,2.04,5.66,3.01,8.37c0.09,0,0.17,0.01,0.26,0.01
		c1.05-2.67,2.11-5.35,3.27-8.31c1.25,3.09,2.41,5.96,3.61,8.92c-0.83-0.05-1.52-0.09-2.35-0.13c0,1.76-0.01,3.42,0.01,5.08
		c0,0.16,0.18,0.4,0.33,0.45c1.36,0.47,2.73,0.9,4.29,1.41c-0.07-1.06,0.17-2.15-0.26-2.81c-0.41-0.63-1.51-0.8-2.41-1.21
		c1.23-2.4,2.45-4.77,3.77-7.36c0.85,2.97,1.62,5.71,2.5,8.78c1.25-2.47,2.38-4.69,3.6-7.12c0.85,3.85,1.65,7.48,2.49,11.31
		c-0.82-0.37-1.47-0.66-2.32-1.04c0,1.07-0.06,1.98,0.03,2.88c0.03,0.3,0.4,0.62,0.69,0.83c1.03,0.76,2.1,1.45,3.12,2.21
		c0.57,0.42,0.9,0.99,0.61,1.76c-0.38,0.99-1.13,1.2-2.01,0.58c-5.18-3.69-10.79-6.48-17-8c-5.25-1.29-10.48-0.86-15.71,0.15
		c-0.2,0.04-0.38,0.14-0.56,0.38c1.93,0,3.85,0,5.78,0c0.35,0,0.76-0.09,1.05,0.05c0.29,0.13,0.58,0.47,0.65,0.77
		c0.04,0.15-0.38,0.52-0.65,0.61c-0.36,0.12-0.77,0.07-1.16,0.07c-3.51,0-7.03,0-10.54,0c-1.4,0-3.57,0.72-4.93,1.67
		c0.44,0.02,0.78,0.05,1.11,0.05c4.01,0,8.02,0,12.04,0c0.32,0,0.67-0.06,0.94,0.06c0.25,0.11,0.51,0.41,0.56,0.67
		c0.04,0.2-0.18,0.58-0.38,0.67c-0.37,0.16-0.81,0.22-1.23,0.22c-5.15,0.01-10.3,0.07-15.44-0.03c-1.55-0.03-2.66,0.69-3.81,1.6
		c0.37,0,0.74,0,1.11,0c5.11,0,10.22,0,15.34,0c0.25,0,0.5-0.01,0.75,0c0.59,0.04,1.28,0.14,1.15,0.88
		c-0.05,0.31-0.76,0.71-1.17,0.71c-4.58,0.05-9.16,0.03-13.74,0.03c-1.74,0-3.49,0.1-5.22-0.03c-1.5-0.11-2.4,0.75-3.66,1.68
		c0.63,0.03,1,0.06,1.37,0.06c6.25,0,12.5,0,18.74,0c0.32,0,0.68-0.08,0.95,0.04c0.3,0.13,0.53,0.45,0.78,0.69
		c-0.28,0.26-0.51,0.59-0.84,0.74c-0.26,0.12-0.63,0.03-0.95,0.03c-7.03,0-14.06,0.04-21.09-0.03
		C75.01,49.86,74.25,50.64,73.12,51.64z M72.14,24.8c0.8,2.63,1.52,4.99,2.25,7.37c-0.63,0.06-1.11,0.1-1.56,0.15
		c-0.25,2.64-0.12,2.97,1.36,3.48c0.63-2.6,1.26-5.2,1.9-7.8c0.08,0.01,0.15,0.02,0.23,0.03c0.74,2.56,1.49,5.12,2.25,7.75
		c-0.78,0.1-1.48,0.21-1.28,1.18c0.14,0.66,0.07,1.5,0.45,1.95c0.74,0.87,1.74,1.52,2.77,2.37c0-0.7,0-1.23,0-1.77
		c-0.48-0.04-0.86-0.08-1.3-0.12c0.74-2.56,1.47-5.08,2.2-7.6c0.07,0,0.15,0,0.22-0.01c0.89,2.52,1.79,5.03,2.7,7.6
		c-0.63,0.06-1.07,0.1-1.53,0.15c0,0.68,0,1.27,0,2.04c1.01-0.5,1.91-0.98,2.84-1.39c0.54-0.23,0.71-0.56,0.72-1.13
		c0.05-2.16,0.07-2.16-2.14-2.46c1.01-2.6,2.01-5.16,3.1-7.98c1.1,2.86,2.09,5.42,3.09,8.03c-0.68,0.04-1.24,0.07-1.85,0.1
		c0,0.69,0,1.31,0,2.03c0.63-0.22,1.2-0.41,1.75-0.62c1.8-0.67,1.86-0.77,1.51-2.7c-0.31-0.11-0.62-0.22-1.02-0.37
		c0.73-1.99,1.44-3.9,2.25-6.09c0.78,2.24,1.45,4.16,2.14,6.14c-0.42,0.12-0.75,0.22-1.04,0.3c0,0.45,0,0.84,0,1.14
		c3.31-0.7,6.55-1.39,10-2.13c-1.41-1.16-2.67-2.28-4.02-3.3c-6.27-4.72-13.34-7.44-21.15-8.04c-5.96-0.46-11.47,1.32-16.72,4.02
		c-0.07,0.04-0.09,0.17-0.13,0.26c2.96,2.06,5.89,4.1,8.97,6.24c-0.03-0.57-0.05-0.95-0.07-1.34c-0.57-0.04-1.05-0.08-1.61-0.12
		C70.33,29.76,71.18,27.43,72.14,24.8z M115.47,35.15c0-1.65,0-3.24,0-4.95c-1.58,0-3.05,0-4.51,0c0,1.48,0,2.91,0,4.35
		c1.47,0.23,2.86,0.45,4.26,0.66C115.29,35.22,115.36,35.18,115.47,35.15z M124.11,35.26c0,0.94-0.02,1.67,0.02,2.39
		c0.01,0.2,0.16,0.49,0.32,0.58c1.11,0.59,2.24,1.14,3.52,1.78c0-0.97,0.02-1.77-0.02-2.57c-0.01-0.2-0.17-0.48-0.35-0.57
		C126.51,36.34,125.4,35.85,124.11,35.26z M74.43,17.62c0,0.91,0,1.77,0,2.73c1.04-0.05,2.01-0.1,3.02-0.15c0-1.21,0-2.32,0-3.49
		c-0.54,0-1.02,0-1.5,0c-0.04,0.31-0.07,0.59-0.11,0.92C75.34,17.62,74.93,17.62,74.43,17.62z M58.72,21.04
		c0.21,0.59,0.4,1.13,0.65,1.84c-0.7-0.28-1.24-0.5-1.95-0.79c0,0.6,0.07,1-0.01,1.37c-0.3,1.28,0.58,1.73,1.5,2
		c0.32,0.09,1.11-0.31,1.13-0.52c0.1-1.38,0.05-2.78,0.05-4.27C59.52,20.82,59.16,20.92,58.72,21.04z M38.47,22.64
		c2.83-0.66,3.23-1.27,2.65-3.84c-2.36,0.16-2.65,0.45-2.65,2.7C38.47,21.85,38.47,22.21,38.47,22.64z M64.94,19.37
		c-0.7,0.19-1.29,0.3-1.84,0.51c-0.21,0.08-0.47,0.36-0.48,0.56c-0.05,1.07-0.02,2.15-0.02,3.4c0.68-0.3,1.18-0.47,1.62-0.74
		c0.29-0.18,0.66-0.48,0.68-0.76C64.99,21.39,64.94,20.44,64.94,19.37z M81.75,20.58c0-0.59,0-1.08,0-1.56c0-2.08,0-2.08-2.11-2.2
		c-0.06,0-0.12,0.06-0.28,0.13c0,0.51,0,1.07,0,1.63c0,0.55,0,1.11,0,1.67C80.17,20.36,80.83,20.45,81.75,20.58z M45.48,17.99
		c-0.68,0-1.22-0.08-1.72,0.03c-0.29,0.07-0.69,0.43-0.72,0.69c-0.1,0.79-0.03,1.6-0.03,2.5c0.75-0.1,1.41-0.15,2.06-0.28
		c0.17-0.03,0.38-0.32,0.39-0.51C45.5,19.63,45.48,18.83,45.48,17.99z M50.62,21.7c0.07-0.87,0.16-1.57,0.15-2.26
		c0-0.25-0.22-0.65-0.41-0.71c-0.75-0.21-1.53-0.3-2.38-0.45c0,0.86-0.04,1.52,0.02,2.18c0.02,0.25,0.22,0.62,0.42,0.69
		C49.1,21.39,49.83,21.51,50.62,21.7z M98.52,24.15c-0.37,2.27-0.06,2.88,1.7,3.42C100.52,25.04,100.4,24.78,98.52,24.15z
		 M53.45,20.18c-0.81,1.89-0.35,2.89,1.39,3.01C55.16,20.82,55.16,20.82,53.45,20.18z M89.47,19.97c-0.3,2.38-0.18,2.59,1.59,2.85
		C91.51,20.68,91.28,20.24,89.47,19.97z M23.04,31.31c1.21-0.56,1.39-1.11,0.87-2.45C22.8,29.26,22.79,29.28,23.04,31.31z"/>
	<g>
		<path class="st1" d="M15,70.85V58.47h3.87c1.27,0,2.19,0.05,2.76,0.15c0.57,0.1,1.04,0.27,1.4,0.51c0.42,0.29,0.73,0.65,0.94,1.07
			c0.21,0.42,0.31,0.93,0.31,1.51c0,0.71-0.15,1.31-0.44,1.79c-0.3,0.48-0.76,0.88-1.38,1.19c1.06,0.4,1.63,1.34,1.68,2.82
			c0,0.02,0,0.03,0,0.04c0.01,0.16,0.01,0.38,0.02,0.68c0.03,1.39,0.3,2.27,0.82,2.62h-4.03c-0.09-0.26-0.15-0.53-0.2-0.81
			c-0.04-0.28-0.06-0.58-0.06-0.9c0-0.2,0.01-0.44,0.02-0.72c0.01-0.28,0.02-0.46,0.02-0.55c0-0.76-0.12-1.27-0.35-1.55
			c-0.24-0.28-0.66-0.42-1.27-0.42H18.4v4.95H15z M18.4,63.63c0.06,0,0.13,0,0.22,0.01c0.09,0.01,0.16,0.01,0.21,0.01
			c0.71,0,1.22-0.12,1.52-0.36c0.3-0.24,0.44-0.65,0.44-1.22c0-0.53-0.15-0.91-0.44-1.13c-0.3-0.22-0.8-0.33-1.52-0.33
			c-0.04,0-0.11,0-0.21,0.01c-0.09,0.01-0.17,0.01-0.22,0.01V63.63z"/>
		<path class="st1" d="M31.25,67.59h2.9v0.23c0,1.09-0.34,1.91-1.01,2.46c-0.68,0.55-1.68,0.82-3.02,0.82
			c-0.68,0-1.29-0.08-1.84-0.24c-0.55-0.16-0.98-0.38-1.28-0.67c-0.34-0.33-0.59-0.76-0.74-1.3c-0.15-0.54-0.22-1.41-0.22-2.6
			c0-1.31,0.07-2.23,0.22-2.75c0.15-0.52,0.41-0.95,0.77-1.29c0.35-0.32,0.8-0.55,1.33-0.72s1.16-0.24,1.88-0.24
			c0.73,0,1.35,0.09,1.88,0.26s0.96,0.43,1.29,0.78c0.28,0.29,0.48,0.64,0.6,1.04c0.12,0.4,0.18,1.09,0.18,2.06v1.12h-5.03
			c-0.01,0.03-0.01,0.06-0.01,0.1c-0.03,0.39-0.04,0.66-0.04,0.82c0,0.65,0.08,1.11,0.25,1.36c0.17,0.25,0.45,0.38,0.85,0.38
			c0.35,0,0.61-0.1,0.79-0.29c0.18-0.2,0.27-0.49,0.27-0.89c0-0.08-0.01-0.2-0.03-0.37C31.26,67.64,31.25,67.61,31.25,67.59z
			 M29.26,64.94h2.07c0-0.01,0-0.03,0-0.05c0.03-0.24,0.04-0.4,0.04-0.5c0-0.46-0.09-0.79-0.26-1.01c-0.18-0.22-0.45-0.33-0.82-0.33
			c-0.38,0-0.65,0.11-0.81,0.32c-0.16,0.21-0.24,0.56-0.24,1.05c0,0.13,0,0.24,0,0.31C29.24,64.82,29.25,64.88,29.26,64.94z"/>
		<path class="st1" d="M36.6,70.85v-7.32h-1.25v-1.98h1.25c0-0.06,0-0.14-0.01-0.24c-0.01-0.1-0.01-0.17-0.01-0.22
			c0-0.98,0.25-1.66,0.74-2.07c0.49-0.4,1.34-0.6,2.53-0.6c0.18,0,0.36,0,0.56,0.01c0.19,0.01,0.4,0.02,0.61,0.04v1.87
			c-0.04-0.01-0.09-0.01-0.14-0.01c-0.05,0-0.12,0-0.22,0c-0.36,0-0.61,0.07-0.76,0.21c-0.15,0.14-0.22,0.37-0.22,0.7
			c0,0.08,0,0.14,0,0.18c0,0.04,0.01,0.09,0.02,0.13h1.33v1.98H39.7v7.32H36.6z"/>
		<path class="st1" d="M52.16,70.85v-9.3H55v1.3c0.34-0.47,0.71-0.82,1.11-1.06c0.4-0.24,0.86-0.38,1.37-0.43v2.95
			c-0.17-0.03-0.34-0.06-0.49-0.07c-0.16-0.02-0.3-0.02-0.43-0.02c-0.5,0-0.84,0.15-1.04,0.44c-0.19,0.29-0.29,0.87-0.29,1.73v4.46
			H52.16z"/>
		<path class="st1" d="M63.94,67.59h2.9v0.23c0,1.09-0.34,1.91-1.01,2.46c-0.68,0.55-1.68,0.82-3.02,0.82
			c-0.68,0-1.29-0.08-1.84-0.24c-0.55-0.16-0.98-0.38-1.28-0.67c-0.34-0.33-0.59-0.76-0.74-1.3c-0.15-0.54-0.22-1.41-0.22-2.6
			c0-1.31,0.07-2.23,0.22-2.75c0.15-0.52,0.41-0.95,0.77-1.29c0.35-0.32,0.8-0.55,1.33-0.72c0.54-0.16,1.16-0.24,1.88-0.24
			c0.73,0,1.35,0.09,1.88,0.26c0.53,0.17,0.96,0.43,1.29,0.78c0.28,0.29,0.48,0.64,0.6,1.04c0.12,0.4,0.18,1.09,0.18,2.06v1.12
			h-5.03c-0.01,0.03-0.01,0.06-0.01,0.1c-0.03,0.39-0.04,0.66-0.04,0.82c0,0.65,0.08,1.11,0.25,1.36c0.17,0.25,0.45,0.38,0.85,0.38
			c0.35,0,0.61-0.1,0.79-0.29c0.18-0.2,0.27-0.49,0.27-0.89c0-0.08-0.01-0.2-0.03-0.37C63.95,67.64,63.94,67.61,63.94,67.59z
			 M61.94,64.94h2.07c0-0.01,0-0.03,0-0.05c0.03-0.24,0.04-0.4,0.04-0.5c0-0.46-0.09-0.79-0.26-1.01c-0.18-0.22-0.45-0.33-0.82-0.33
			c-0.38,0-0.65,0.11-0.81,0.32c-0.16,0.21-0.24,0.56-0.24,1.05c0,0.13,0,0.24,0,0.31C61.93,64.82,61.94,64.88,61.94,64.94z"/>
		<path class="st1" d="M68.09,67.9l2.76,0.01c0.03,0.48,0.14,0.83,0.33,1.06c0.19,0.22,0.48,0.33,0.86,0.33
			c0.31,0,0.56-0.08,0.76-0.23s0.3-0.35,0.3-0.59c0-0.21-0.07-0.38-0.21-0.52c-0.14-0.14-0.44-0.3-0.91-0.49
			c-0.1-0.04-0.26-0.11-0.48-0.19c-1.12-0.43-1.89-0.84-2.33-1.22c-0.31-0.26-0.55-0.56-0.72-0.9c-0.17-0.34-0.25-0.7-0.25-1.08
			c0-0.85,0.34-1.52,1.03-2.03c0.69-0.5,1.61-0.76,2.78-0.76c1.21,0,2.14,0.24,2.8,0.73s0.98,1.18,0.98,2.09v0.17l-2.71-0.01
			c-0.01-0.47-0.1-0.8-0.25-1c-0.16-0.2-0.41-0.3-0.76-0.3c-0.31,0-0.56,0.07-0.75,0.21c-0.18,0.14-0.28,0.33-0.28,0.56
			c0,0.41,0.46,0.78,1.39,1.13c0.13,0.05,0.23,0.09,0.3,0.11c1.26,0.48,2.11,0.94,2.53,1.39c0.43,0.45,0.64,1.04,0.64,1.77
			c0,0.94-0.34,1.66-1.03,2.18c-0.69,0.51-1.67,0.77-2.94,0.77c-1.21,0-2.15-0.26-2.83-0.78c-0.67-0.52-1.01-1.25-1.01-2.19V67.9z"
			/>
		<path class="st1" d="M82.33,70.82c-0.38,0.06-0.7,0.1-0.98,0.13C81.06,70.98,80.82,71,80.63,71c-0.61,0-1.13-0.08-1.56-0.25
			s-0.75-0.4-0.95-0.72c-0.13-0.21-0.23-0.48-0.28-0.81c-0.05-0.32-0.08-0.82-0.08-1.48v-1.15v-3.12h-1.2v-1.92h1.2v-2.57h3.11v2.57
			h1.47v1.92h-1.47v3.79c0,0.81,0.07,1.31,0.21,1.5c0.14,0.19,0.41,0.28,0.81,0.28c0.07,0,0.18-0.01,0.34-0.02
			c0.04-0.01,0.08-0.01,0.11-0.01V70.82z"/>
		<path class="st1" d="M88.75,67.59h2.9v0.23c0,1.09-0.34,1.91-1.01,2.46c-0.68,0.55-1.68,0.82-3.02,0.82
			c-0.68,0-1.29-0.08-1.84-0.24c-0.55-0.16-0.98-0.38-1.28-0.67c-0.34-0.33-0.59-0.76-0.74-1.3c-0.15-0.54-0.22-1.41-0.22-2.6
			c0-1.31,0.07-2.23,0.22-2.75c0.15-0.52,0.41-0.95,0.77-1.29c0.35-0.32,0.8-0.55,1.33-0.72c0.54-0.16,1.16-0.24,1.88-0.24
			c0.73,0,1.35,0.09,1.88,0.26c0.53,0.17,0.96,0.43,1.29,0.78c0.28,0.29,0.48,0.64,0.6,1.04c0.12,0.4,0.18,1.09,0.18,2.06v1.12
			h-5.03c-0.01,0.03-0.01,0.06-0.01,0.1c-0.03,0.39-0.04,0.66-0.04,0.82c0,0.65,0.08,1.11,0.25,1.36c0.17,0.25,0.45,0.38,0.85,0.38
			c0.35,0,0.61-0.1,0.79-0.29c0.18-0.2,0.27-0.49,0.27-0.89c0-0.08-0.01-0.2-0.03-0.37C88.76,67.64,88.75,67.61,88.75,67.59z
			 M86.76,64.94h2.07c0-0.01,0-0.03,0-0.05c0.03-0.24,0.04-0.4,0.04-0.5c0-0.46-0.09-0.79-0.26-1.01c-0.18-0.22-0.45-0.33-0.82-0.33
			c-0.38,0-0.65,0.11-0.81,0.32c-0.16,0.21-0.24,0.56-0.24,1.05c0,0.13,0,0.24,0,0.31C86.74,64.82,86.75,64.88,86.76,64.94z"/>
		<path class="st1" d="M98.92,70.85L98.74,70c-0.39,0.34-0.81,0.6-1.28,0.78c-0.46,0.17-0.96,0.26-1.51,0.26
			c-0.87,0-1.55-0.24-2.06-0.71c-0.51-0.47-0.76-1.11-0.76-1.91c0-0.7,0.22-1.28,0.65-1.74c0.43-0.46,1.14-0.85,2.12-1.18
			c0.24-0.07,0.55-0.17,0.96-0.3c1.15-0.35,1.73-0.75,1.73-1.2c0-0.27-0.08-0.48-0.25-0.62c-0.17-0.14-0.4-0.21-0.72-0.21
			c-0.38,0-0.65,0.1-0.84,0.29c-0.18,0.19-0.27,0.48-0.27,0.88v0.06h-3.1c0-1.05,0.35-1.83,1.04-2.34c0.69-0.51,1.75-0.77,3.16-0.77
			c0.64,0,1.21,0.05,1.71,0.15c0.5,0.1,0.92,0.24,1.26,0.43c0.43,0.25,0.74,0.54,0.91,0.89c0.18,0.35,0.26,0.98,0.26,1.91v0.28v3.3
			c0,0.73,0.03,1.28,0.09,1.67c0.06,0.38,0.16,0.7,0.3,0.94H98.92z M98.52,66.37c-0.8,0.19-1.38,0.42-1.74,0.7
			c-0.37,0.28-0.55,0.63-0.55,1.04c0,0.29,0.09,0.53,0.27,0.71c0.18,0.18,0.43,0.27,0.73,0.27c0.45,0,0.78-0.13,0.98-0.39
			c0.2-0.26,0.31-0.69,0.31-1.29V66.37z"/>
		<path class="st1" d="M103.79,70.85v-9.3h2.73v1.1c0.33-0.44,0.7-0.77,1.11-0.98c0.41-0.21,0.89-0.31,1.44-0.31
			c0.5,0,0.94,0.11,1.31,0.33c0.37,0.22,0.65,0.54,0.85,0.96c0.33-0.44,0.71-0.76,1.12-0.97c0.42-0.21,0.9-0.31,1.44-0.31
			c0.82,0,1.42,0.24,1.8,0.72c0.38,0.48,0.57,1.24,0.57,2.28v6.49h-2.95v-5.89c0-0.66-0.06-1.08-0.17-1.26
			c-0.11-0.17-0.3-0.26-0.58-0.26c-0.33,0-0.59,0.14-0.78,0.43c-0.19,0.28-0.28,0.68-0.28,1.17v5.81h-2.9v-5.89
			c0-0.66-0.05-1.08-0.16-1.26c-0.11-0.17-0.3-0.26-0.58-0.26c-0.33,0-0.58,0.14-0.77,0.43c-0.19,0.28-0.28,0.68-0.28,1.17v5.81
			H103.79z"/>
		<path class="st1" d="M117.83,66.21c0-1.81,0.31-3.08,0.93-3.81c0.62-0.73,1.68-1.09,3.18-1.09c1.5,0,2.57,0.36,3.18,1.09
			c0.62,0.72,0.93,2,0.93,3.82c0,1.81-0.31,3.08-0.93,3.81c-0.62,0.73-1.68,1.09-3.18,1.09c-1.51,0-2.57-0.36-3.19-1.08
			C118.14,69.3,117.83,68.03,117.83,66.21z M120.96,66.21c0,1.31,0.07,2.13,0.21,2.46c0.14,0.33,0.39,0.49,0.77,0.49
			c0.38,0,0.63-0.16,0.77-0.47c0.14-0.32,0.21-1.14,0.21-2.48s-0.07-2.16-0.21-2.48c-0.14-0.32-0.39-0.48-0.77-0.48
			c-0.38,0-0.63,0.17-0.77,0.5C121.03,64.08,120.96,64.9,120.96,66.21z"/>
		<path class="st1" d="M127.19,67.9l2.76,0.01c0.03,0.48,0.14,0.83,0.33,1.06c0.19,0.22,0.48,0.33,0.86,0.33
			c0.31,0,0.56-0.08,0.76-0.23s0.3-0.35,0.3-0.59c0-0.21-0.07-0.38-0.21-0.52c-0.14-0.14-0.44-0.3-0.91-0.49
			c-0.1-0.04-0.26-0.11-0.48-0.19c-1.12-0.43-1.89-0.84-2.33-1.22c-0.31-0.26-0.55-0.56-0.72-0.9c-0.17-0.34-0.25-0.7-0.25-1.08
			c0-0.85,0.34-1.52,1.03-2.03c0.69-0.5,1.61-0.76,2.78-0.76c1.21,0,2.14,0.24,2.8,0.73s0.98,1.18,0.98,2.09v0.17l-2.71-0.01
			c-0.01-0.47-0.1-0.8-0.25-1c-0.16-0.2-0.41-0.3-0.76-0.3c-0.31,0-0.56,0.07-0.75,0.21c-0.18,0.14-0.28,0.33-0.28,0.56
			c0,0.41,0.46,0.78,1.39,1.13c0.13,0.05,0.23,0.09,0.3,0.11c1.26,0.48,2.11,0.94,2.53,1.39c0.43,0.45,0.64,1.04,0.64,1.77
			c0,0.94-0.34,1.66-1.03,2.18c-0.69,0.51-1.67,0.77-2.94,0.77c-1.21,0-2.15-0.26-2.83-0.78c-0.67-0.52-1.01-1.25-1.01-2.19V67.9z"
			/>
		<g>
			<g>
				<path class="st1" d="M42.58,65.74c2.53,0.61,4.98,1.2,7.55,1.82c-0.45,1.32-0.55,2.99-2.11,3.61c-1.77,0.7-3.54,0.33-4.95-0.99
					C41.67,68.86,42.42,67.24,42.58,65.74z"/>
				<path class="st1" d="M48.28,61.45c-0.11,0.52-0.22,1.05-0.36,1.74c0.13,0.06,0.5,0.15,0.79,0.36c0.73,0.53,1.48,1.06,2.1,1.7
					c0.21,0.22,0.17,0.83,0.03,1.17c-0.08,0.2-0.62,0.37-0.9,0.31c-2.2-0.49-4.39-1.01-6.57-1.58c-0.35-0.09-0.89-0.53-0.85-0.74
					c0.06-0.42,0.39-1.03,0.73-1.12c1.13-0.31,2.31-0.43,3.56-0.63c0.26-0.38,0.62-0.9,0.97-1.42
					C47.93,61.31,48.11,61.38,48.28,61.45z"/>
			</g>
		</g>
	</g>
</g>
</svg>
