<?xml version="1.0" encoding="utf-8"?>
<!-- Generator: Adobe Illustrator 23.0.1, SVG Export Plug-In . SVG Version: 6.00 Build 0)  -->
<svg version="1.1" id="Layer_1" xmlns="http://www.w3.org/2000/svg" xmlns:xlink="http://www.w3.org/1999/xlink" x="0px" y="0px"
	 viewBox="0 0 150 80" style="enable-background:new 0 0 150 80;" xml:space="preserve">
<style type="text/css">
	.st0{fill:#95C11F;}
	.st1{fill:#3C3C3B;}
</style>
<g>
	<path class="st0" d="M44.19,38.03v-0.79c-0.31,0.26-0.74,0.49-1.28,0.68c-0.54,0.19-1.05,0.28-1.5,0.28
		c-2.18,0-3.28-1.16-3.28-3.48v-6.11h2.2v5.94c0,1.21,0.54,1.81,1.63,1.81c0.5,0,0.96-0.13,1.39-0.39c0.43-0.26,0.71-0.56,0.85-0.9
		v-6.47h2.2v9.42H44.19z M54.82,38.02v-5.44c0-0.8-0.15-1.39-0.46-1.76c-0.31-0.37-0.81-0.55-1.51-0.55c-0.32,0-0.67,0.09-1.03,0.27
		c-0.37,0.18-0.65,0.41-0.86,0.68v6.8h-2.2v-9.41h1.58l0.4,0.88c0.6-0.7,1.48-1.05,2.64-1.05c1.12,0,2,0.34,2.65,1.01
		c0.65,0.67,0.97,1.61,0.97,2.81v5.77H54.82z M64.82,30.66c-0.39-0.26-0.82-0.39-1.29-0.39c-0.51,0-0.96,0.23-1.36,0.69
		c-0.4,0.46-0.59,1.03-0.59,1.7v5.36h-2.2v-9.41h2.2v0.86c0.61-0.69,1.43-1.04,2.45-1.04c0.75,0,1.32,0.11,1.72,0.34L64.82,30.66z
		 M75.47,33.99h-6.72c0.04,0.75,0.3,1.33,0.77,1.75c0.47,0.42,1.11,0.62,1.92,0.62c1,0,1.76-0.26,2.28-0.78l0.85,1.68
		c-0.77,0.63-1.93,0.94-3.46,0.94c-1.44,0-2.57-0.42-3.4-1.26c-0.83-0.84-1.25-2.01-1.25-3.52c0-1.48,0.46-2.68,1.38-3.6
		c0.92-0.92,2.02-1.38,3.3-1.38c1.36,0,2.46,0.41,3.29,1.22c0.83,0.81,1.24,1.85,1.24,3.11C75.66,33.04,75.6,33.45,75.47,33.99z
		 M68.83,32.34h4.62c-0.15-1.38-0.91-2.07-2.28-2.07C69.91,30.27,69.14,30.96,68.83,32.34z M82.65,37.08
		c-0.2,0.33-0.55,0.6-1.04,0.8c-0.5,0.21-1.01,0.31-1.55,0.31c-1.01,0-1.81-0.25-2.39-0.76c-0.58-0.51-0.87-1.23-0.87-2.16
		c0-1.09,0.41-1.94,1.23-2.56c0.82-0.62,1.98-0.92,3.48-0.92c0.26,0,0.56,0.04,0.91,0.13c0-1.11-0.7-1.66-2.1-1.66
		c-0.83,0-1.52,0.14-2.07,0.41l-0.47-1.7c0.76-0.36,1.65-0.54,2.7-0.54c1.44,0,2.49,0.33,3.15,0.98c0.67,0.65,1,1.89,1,3.71v2.01
		c0,1.25,0.25,2.04,0.76,2.36c-0.18,0.32-0.38,0.51-0.61,0.58s-0.48,0.11-0.76,0.11c-0.32,0-0.6-0.12-0.85-0.35
		C82.91,37.61,82.74,37.36,82.65,37.08z M82.44,33.59c-0.37-0.08-0.66-0.11-0.84-0.11c-1.73,0-2.6,0.57-2.6,1.7
		c0,0.84,0.49,1.27,1.47,1.27c1.32,0,1.98-0.66,1.98-1.98V33.59z M86.42,37.42l0.78-1.75c0.66,0.52,1.4,0.78,2.22,0.78
		c0.86,0,1.28-0.3,1.28-0.91c0-0.36-0.13-0.65-0.39-0.88c-0.26-0.23-0.76-0.5-1.5-0.81c-1.62-0.67-2.43-1.62-2.43-2.83
		c0-0.81,0.31-1.45,0.93-1.9c0.62-0.45,1.41-0.68,2.38-0.68c0.98,0,1.9,0.22,2.76,0.66l-0.63,1.7c-0.48-0.41-1.15-0.62-2-0.62
		c-0.77,0-1.15,0.3-1.15,0.91c0,0.24,0.13,0.46,0.38,0.65c0.25,0.19,0.79,0.45,1.62,0.78c0.83,0.32,1.42,0.72,1.78,1.18
		c0.36,0.46,0.54,1.02,0.54,1.68c0,0.87-0.32,1.56-0.97,2.06c-0.65,0.5-1.53,0.75-2.64,0.75c-0.63,0-1.13-0.05-1.51-0.15
		C87.5,37.94,87.01,37.73,86.42,37.42z M94.14,33.3c0-1.44,0.41-2.6,1.24-3.51s1.92-1.35,3.28-1.35c1.43,0,2.54,0.43,3.33,1.3
		c0.79,0.87,1.19,2.05,1.19,3.56c0,1.5-0.4,2.69-1.21,3.58c-0.81,0.88-1.91,1.33-3.31,1.33c-1.43,0-2.54-0.45-3.33-1.34
		C94.53,35.97,94.14,34.78,94.14,33.3z M96.42,33.3c0,2.07,0.75,3.11,2.24,3.11c0.69,0,1.23-0.27,1.63-0.81
		c0.4-0.54,0.6-1.31,0.6-2.3c0-2.04-0.74-3.07-2.23-3.07c-0.69,0-1.23,0.27-1.63,0.81C96.62,31.58,96.42,32.33,96.42,33.3z
		 M110.99,38.02v-5.44c0-0.8-0.15-1.39-0.46-1.76c-0.31-0.37-0.81-0.55-1.51-0.55c-0.32,0-0.67,0.09-1.03,0.27s-0.65,0.41-0.86,0.68
		v6.8h-2.2v-9.41h1.58l0.4,0.88c0.6-0.7,1.48-1.05,2.64-1.05c1.12,0,2,0.34,2.65,1.01c0.65,0.67,0.97,1.61,0.97,2.81v5.77H110.99z
		 M120.79,37.08c-0.2,0.33-0.55,0.6-1.04,0.8c-0.5,0.21-1.01,0.31-1.55,0.31c-1.01,0-1.81-0.25-2.39-0.76
		c-0.58-0.51-0.87-1.23-0.87-2.16c0-1.09,0.41-1.94,1.23-2.56c0.82-0.62,1.98-0.92,3.48-0.92c0.26,0,0.56,0.04,0.91,0.13
		c0-1.11-0.7-1.66-2.1-1.66c-0.83,0-1.52,0.14-2.07,0.41l-0.47-1.7c0.76-0.36,1.65-0.54,2.7-0.54c1.44,0,2.49,0.33,3.15,0.98
		c0.67,0.65,1,1.89,1,3.71v2.01c0,1.25,0.25,2.04,0.76,2.36c-0.18,0.32-0.38,0.51-0.61,0.58c-0.22,0.07-0.48,0.11-0.76,0.11
		c-0.32,0-0.6-0.12-0.85-0.35C121.05,37.61,120.88,37.36,120.79,37.08z M120.58,33.59c-0.37-0.08-0.66-0.11-0.84-0.11
		c-1.73,0-2.6,0.57-2.6,1.7c0,0.84,0.49,1.27,1.47,1.27c1.32,0,1.98-0.66,1.98-1.98V33.59z M126.7,37.5l-0.49,0.69h-1.24V25.11
		l2.2-0.53v4.39c0.59-0.36,1.22-0.54,1.92-0.54c1.38,0,2.49,0.43,3.33,1.3s1.27,1.98,1.27,3.34c0,1.58-0.42,2.82-1.27,3.74
		c-0.85,0.92-2,1.38-3.45,1.38C128.08,38.2,127.33,37.97,126.7,37.5z M127.16,30.85v4.91c0.32,0.38,0.76,0.57,1.31,0.57
		c1.06,0,1.81-0.25,2.25-0.76c0.44-0.5,0.66-1.31,0.66-2.42c0-1.91-0.91-2.86-2.74-2.86C128,30.3,127.5,30.48,127.16,30.85z
		 M135.99,25.11l2.2-0.53v10.58c0,1.16,0.35,1.85,1.04,2.07c-0.34,0.64-0.92,0.97-1.74,0.97c-1,0-1.49-0.69-1.49-2.07V25.11z
		 M149.32,33.99h-6.72c0.04,0.75,0.3,1.33,0.77,1.75c0.47,0.42,1.11,0.62,1.92,0.62c1,0,1.76-0.26,2.28-0.78l0.85,1.68
		c-0.77,0.63-1.93,0.94-3.46,0.94c-1.44,0-2.57-0.42-3.4-1.26c-0.83-0.84-1.25-2.01-1.25-3.52c0-1.48,0.46-2.68,1.38-3.6
		c0.92-0.92,2.02-1.38,3.3-1.38c1.36,0,2.46,0.41,3.29,1.22c0.83,0.81,1.24,1.85,1.24,3.11C149.5,33.04,149.44,33.45,149.32,33.99z
		 M142.67,32.34h4.62c-0.15-1.38-0.91-2.07-2.28-2.07C143.76,30.27,142.98,30.96,142.67,32.34z"/>
	<path class="st1" d="M48.32,52.38v-5.63c0-1.18-0.53-1.77-1.59-1.77c-0.31,0-0.62,0.09-0.91,0.28c-0.29,0.18-0.5,0.4-0.61,0.64
		v6.49h-2.1v-5.96c0-0.44-0.14-0.79-0.41-1.05c-0.27-0.26-0.66-0.39-1.16-0.39c-0.26,0-0.55,0.1-0.86,0.29
		c-0.31,0.2-0.54,0.41-0.68,0.65v6.47h-2.1v-8.99h1.44l0.43,0.79c0.58-0.64,1.34-0.96,2.26-0.96c1.19,0,2.09,0.32,2.7,0.97
		c0.26-0.3,0.63-0.53,1.1-0.71c0.47-0.18,0.94-0.26,1.41-0.26c1,0,1.78,0.29,2.34,0.86c0.56,0.57,0.84,1.36,0.84,2.36v5.94H48.32z
		 M60.72,48.53H54.3c0.04,0.72,0.29,1.27,0.74,1.67c0.45,0.4,1.06,0.6,1.83,0.6c0.96,0,1.69-0.25,2.18-0.75l0.81,1.6
		c-0.74,0.6-1.84,0.9-3.31,0.9c-1.37,0-2.46-0.4-3.25-1.21c-0.8-0.8-1.2-1.92-1.2-3.36c0-1.42,0.44-2.56,1.31-3.44
		c0.88-0.88,1.93-1.32,3.15-1.32c1.3,0,2.35,0.39,3.14,1.17c0.79,0.78,1.18,1.77,1.18,2.97C60.9,47.62,60.84,48.01,60.72,48.53z
		 M54.37,46.95h4.42c-0.15-1.32-0.87-1.97-2.18-1.97C55.41,44.98,54.66,45.63,54.37,46.95z M59.09,39.72l-1.9,2.46h-1.6l1.42-2.46
		H59.09z M68.35,52.38l-2.31-2.93l-2.07,2.93h-2.49l3.45-4.6l-3.17-4.39h2.41l1.9,2.75l2.12-2.75h2.39l-3.45,4.39l3.77,4.6H68.35z
		 M72.64,52.38v-7.27h-1.15v-1.72h3.28v8.99H72.64z M73.72,39.9c0.34,0,0.62,0.12,0.86,0.36c0.24,0.24,0.36,0.53,0.36,0.86
		s-0.12,0.62-0.36,0.86s-0.52,0.36-0.86,0.36c-0.34,0-0.62-0.12-0.86-0.36s-0.36-0.53-0.36-0.86s0.12-0.62,0.36-0.86
		C73.1,40.02,73.38,39.9,73.72,39.9z M84.26,44.1l-0.9,1.57c-0.49-0.46-1.15-0.7-1.98-0.7c-0.8,0-1.42,0.26-1.89,0.79
		c-0.46,0.53-0.69,1.26-0.69,2.2c0,1.89,0.9,2.83,2.7,2.83c0.78,0,1.46-0.26,2.06-0.77l0.77,1.65c-0.61,0.38-1.14,0.62-1.6,0.72
		c-0.46,0.1-1,0.15-1.62,0.15c-1.39,0-2.48-0.4-3.29-1.21s-1.21-1.93-1.21-3.37c0-1.42,0.44-2.56,1.32-3.44
		c0.88-0.87,2.08-1.31,3.59-1.31C82.58,43.22,83.49,43.51,84.26,44.1z M85.42,47.86c0-1.37,0.4-2.49,1.19-3.35
		c0.79-0.86,1.84-1.29,3.14-1.29c1.37,0,2.43,0.41,3.18,1.24c0.76,0.83,1.13,1.96,1.13,3.4c0,1.43-0.39,2.57-1.15,3.42
		c-0.77,0.85-1.82,1.27-3.16,1.27c-1.37,0-2.43-0.43-3.19-1.28C85.8,50.42,85.42,49.28,85.42,47.86z M87.6,47.86
		c0,1.98,0.71,2.97,2.14,2.97c0.66,0,1.17-0.26,1.56-0.77c0.38-0.51,0.58-1.25,0.58-2.2c0-1.95-0.71-2.93-2.13-2.93
		c-0.66,0-1.18,0.26-1.56,0.77C87.79,46.22,87.6,46.94,87.6,47.86z"/>
	<g>
		<path class="st1" d="M32.38,33.31c-0.25-2.45-1.62-4.26-3.39-5.81c-1.52-1.33-3.27-2.15-5.34-2.09c-1.87,0.06-3.6,0.63-5.2,1.56
			c-1.14,0.67-2.17,1.47-2.86,2.63c-0.54,0.91-0.77,1.93-1,2.94c-0.36,1.54-0.72,3.07-1.49,4.46c-0.16,0.28-0.33,0.55-0.56,0.82
			c-0.35-0.99-0.72-1.91-1.35-2.69c-0.67-0.82-1.51-1.31-2.59-1.34c-1.01-0.03-1.96,0.23-2.9,0.58c-1.74,0.66-3.34,1.67-5.21,2.06
			c0.36,0.56,0.9,0.72,1.48,0.79c0.6,0.07,1.21,0.11,1.82,0.17c0.1,0.01,0.23-0.02,0.26,0.09c0.03,0.1-0.07,0.18-0.13,0.26
			c-0.14,0.17-0.29,0.32-0.42,0.49c-0.18,0.24-0.17,0.45,0.12,0.62c0.41,0.24,0.85,0.31,1.31,0.38c0.21,0.03,0.44,0,0.65,0.1
			c-0.12,0.28-0.37,0.38-0.53,0.57C4.9,40.1,4.91,40.24,5.09,40.4c0.27,0.24,0.58,0.34,0.93,0.39c0.35,0.05,0.69-0.05,1.09-0.05
			c-0.12,0.15-0.21,0.24-0.28,0.35c-0.27,0.4-0.08,0.84,0.4,0.9c0.51,0.07,1.01-0.11,1.51-0.15c0.35-0.02,0.69-0.03,0.87,0.38
			c-0.08,0.03-0.15,0.06-0.22,0.09c-1.15,0.5-2.2,1.82-0.92,3.17c0.04,0.05,0.08,0.1,0.11,0.15c0.11,0.19,0.27,0.38,0.21,0.6
			c-0.11,0.37,0.07,0.56,0.34,0.74c0.19,0.13,0.35,0.29,0.53,0.44c0.53,0.43,1.07,0.87,1.67,1.2c0.18,0.1,0.37,0.17,0.51-0.03
			c0.17-0.24,0.32-0.16,0.51-0.04c0.14,0.09,0.28,0.18,0.42,0.26c0.74,0.41,0.91,0.38,1.46-0.25c0.29-0.33,0.57-0.68,0.96-0.92
			c0.21-0.12,0.32-0.14,0.37,0.15c0.12,0.6,0.25,1.19,0.41,1.78c0.2,0.73,0.48,1.42,0.96,2.01c0.22,0.28,0.36,0.19,0.52-0.04
			c0.17-0.25,0.2-0.54,0.24-0.83c0.05-0.34,0.02-0.7,0.24-1.08c0.08,0.18,0.16,0.31,0.2,0.45c0.21,0.67,0.4,1.34,0.61,2.01
			c0.12,0.38,0.25,0.75,0.53,1.04c0.36,0.37,0.85,0.27,1.04-0.21c0.07-0.16,0.08-0.35,0.24-0.48c0.05,0.12,0.1,0.24,0.15,0.36
			c0.25,0.53,0.64,0.9,1.2,1.1c0.29,0.1,0.45,0.06,0.53-0.25c0.08-0.35,0.18-0.69,0.29-1.03c0.04-0.15,0.08-0.31,0.28-0.39
			c0.07,0.44,0.1,0.86,0.2,1.27c0.18,0.74,0.44,1.45,1.21,1.8c0.51,0.23,0.56,0.19,0.54-0.34c0-0.1,0-0.2,0-0.3
			c0.04-1.44,0.46-2.8,0.86-4.16c0.18-0.61,0.33-1.23,0.5-1.84c0.38-1.35-0.11-2.38-1.19-3.19c-1.09-0.82-2.33-1.34-3.6-1.81
			c-0.42-0.16-0.84-0.32-1.3-0.49c0.84-0.85,1.83-1.29,2.91-1.53c1.81-0.4,3.56-0.92,5.18-1.85c1.9-1.1,3.25-2.62,3.9-4.73
			C32.4,34.47,32.44,33.89,32.38,33.31z M23.26,45.17c0.73,0.36,1.37,0.82,1.95,1.39c0.47,0.46,0.61,1,0.49,1.64
			c-0.07,0.35-0.16,0.7-0.31,1.02c-0.68,1.47-0.92,3.03-0.97,4.63c0,0.1-0.02,0.2-0.03,0.37c-0.34-0.36-0.47-0.74-0.54-1.15
			c-0.14-0.8-0.1-1.6-0.07-2.4c0.01-0.3-0.07-0.38-0.37-0.3c-0.51,0.13-0.8,0.48-0.98,0.94c-0.21,0.53-0.38,1.08-0.58,1.68
			c-0.68-0.81-1.19-1.62-1.09-2.69c0.03-0.27,0.01-0.53-0.14-0.77c-0.11-0.18-0.21-0.19-0.35-0.03c-0.27,0.3-0.32,0.68-0.35,1.06
			c-0.04,0.58,0.03,1.17-0.17,1.79c-0.32-0.51-0.47-1.04-0.65-1.55c-0.29-0.87-0.58-1.74-0.85-2.61c-0.09-0.28-0.21-0.26-0.4-0.13
			c-0.32,0.23-0.46,0.57-0.55,0.93c-0.09,0.33-0.14,0.66-0.31,1.01c-0.3-0.4-0.41-0.83-0.51-1.25c-0.11-0.48-0.23-0.97-0.3-1.46
			c-0.05-0.32-0.22-0.47-0.5-0.6c-0.86-0.41-1.03-0.36-1.45,0.52c-0.15,0.32-0.27,0.66-0.52,0.93c-0.09,0.1-0.17,0.22-0.35,0.1
			c-1.18-0.79-2.45-1.46-3.52-2.42c-0.41-0.37-0.76-0.78-1.09-1.22c-0.2-0.27-0.21-0.5,0.02-0.74c0.13-0.14,0.24-0.29,0.38-0.46
			c0.55,0.61,1.07,1.21,1.62,1.79c0.57,0.61,1.22,1.11,2.03,1.38c0.33,0.11,0.35-0.05,0.32-0.29c-0.04-0.29-0.24-0.49-0.48-0.6
			c-1.23-0.57-2.02-1.59-2.76-2.67c-0.06-0.09-0.18-0.18-0.1-0.3c0.08-0.11,0.19-0.01,0.27,0.03c0.22,0.1,0.3-0.01,0.34-0.2
			c0.06-0.3-0.05-0.55-0.18-0.8c-0.44-0.8-0.44-0.8-1.32-0.62c-0.3,0.06-0.6,0.09-0.93,0.14c0.02-0.17,0.16-0.24,0.26-0.34
			c0.13-0.12,0.27-0.24,0.38-0.38c0.13-0.16,0.17-0.37,0.07-0.54c-0.09-0.15-0.28-0.06-0.42-0.05c-0.57,0.04-1.13,0.18-1.71,0.15
			c-0.07,0-0.15-0.02-0.31-0.04c0.17-0.13,0.29-0.22,0.39-0.31c0.17-0.15,0.36-0.29,0.51-0.46c0.14-0.15,0.25-0.37,0.17-0.56
			c-0.07-0.16-0.29-0.08-0.45-0.09c-0.81-0.06-1.62,0-2.46-0.22c0.1-0.22,0.28-0.34,0.43-0.47c0.22-0.19,0.46-0.37,0.66-0.58
			c0.28-0.29,0.25-0.38-0.14-0.5c-0.42-0.13-0.85-0.1-1.29-0.12c-0.45-0.01-0.91,0.01-1.37-0.32c0.99-0.41,1.93-0.8,2.88-1.17
			c0.85-0.33,1.73-0.62,2.66-0.63c1.63-0.01,2.61,0.7,3.15,2.25c0.22,0.62,0.39,1.26,0.69,1.86c0.09,0.17,0.03,0.3-0.04,0.43
			c-0.23,0.38-0.46,0.76-0.71,1.13c-0.49,0.72-0.58,1.5-0.43,2.34c0.05,0.25,0.13,0.49,0.33,0.67c0.08,0.07,0.16,0.15,0.27,0.13
			c0.13-0.03,0.1-0.18,0.1-0.26c0.01-0.44-0.01-0.89-0.02-1.33c0-0.14-0.02-0.28,0.06-0.42c0.4,0.2,0.73,0.5,1.06,0.8
			c0.85,0.78,1.56,1.71,2.43,2.48c0.15,0.13,0.08,0.22-0.06,0.28c-0.15,0.06-0.32,0.1-0.47,0.17c-0.11,0.05-0.33-0.01-0.27,0.25
			c0.05,0.23,0.14,0.36,0.41,0.32c1.02-0.13,1.94-0.52,2.75-1.13c0.41-0.3,0.79-0.64,1.18-0.96c0.1-0.08,0.18-0.17,0.33-0.1
			C20.39,44.13,21.88,44.5,23.26,45.17z M31.03,36c-0.74,1.52-2,2.5-3.42,3.32c-1.37,0.79-2.88,1.2-4.4,1.58
			c-1.33,0.33-2.63,0.72-3.64,1.72c-0.13,0.13-0.28,0.11-0.43,0.07c-0.35-0.1-0.61,0.04-0.86,0.27c-0.35,0.32-0.69,0.65-1.05,0.95
			c-0.86,0.72-1.37,0.72-2.08-0.12c-0.88-1.04-1.84-2-2.88-2.88c-0.2-0.17-0.22-0.31-0.1-0.55c0.56-1.07,1.1-2.15,1.64-3.23
			c0.72-1.43,1.29-2.91,1.52-4.49c0.34-2.35,1.65-3.95,3.64-5.11c1.1-0.64,2.25-1.13,3.58-1.36c2.33-0.29,4.38,0.51,6.17,2.06
			c0.9,0.78,1.62,1.71,2.21,2.75C31.91,32.64,31.85,34.31,31.03,36z"/>
		<path class="st1" d="M30.8,33.26c-0.03-0.08-0.08-0.16-0.16-0.25c-0.08-0.09-0.18-0.17-0.31-0.23c-0.13-0.06-0.28-0.1-0.45-0.09
			c-0.15,0.01-0.33,0.06-0.48,0.15c-0.15,0.1-0.27,0.24-0.35,0.41c-0.04,0.09-0.05,0.18-0.06,0.27c-0.01,0.09,0,0.19,0.01,0.27
			c0.01,0.09,0.04,0.18,0.08,0.26c0.04,0.08,0.09,0.16,0.15,0.22c0.06,0.07,0.13,0.13,0.2,0.17c0.08,0.05,0.15,0.08,0.24,0.11
			c0.08,0.02,0.17,0.04,0.25,0.04c0.05,0,0.08,0,0.12-0.01c0.05-0.01,0.08-0.01,0.12-0.02c0.15-0.04,0.29-0.11,0.4-0.21
			c0.11-0.09,0.18-0.2,0.23-0.3c0.05-0.1,0.07-0.2,0.08-0.29c0.01-0.04,0.01-0.08,0.01-0.11c0.01-0.11-0.04-0.29-0.04-0.29
			C30.83,33.33,30.82,33.3,30.8,33.26z M30.71,33.75c-0.01,0.07-0.02,0.15-0.06,0.24c-0.04,0.09-0.1,0.18-0.18,0.26
			c-0.09,0.08-0.2,0.15-0.33,0.19c-0.03,0.01-0.07,0.02-0.1,0.02c-0.04,0-0.08,0.01-0.11,0.01c-0.07,0-0.15-0.01-0.22-0.02
			c-0.15-0.04-0.29-0.12-0.4-0.23c-0.05-0.06-0.1-0.13-0.14-0.2c-0.04-0.07-0.06-0.15-0.07-0.23c-0.01-0.08-0.01-0.16,0.01-0.24
			c0.02-0.08,0.05-0.15,0.09-0.22c0.04-0.07,0.08-0.13,0.13-0.19c0.05-0.05,0.11-0.1,0.17-0.14c0.13-0.08,0.26-0.12,0.4-0.12
			c0.13,0,0.26,0.03,0.36,0.08c0.11,0.05,0.19,0.12,0.25,0.19c0.06,0.07,0.1,0.14,0.13,0.2c0.01,0.03,0.03,0.06,0.03,0.08
			c0.01,0.03,0.01,0.05,0.02,0.06c0.01,0.03,0.01,0.05,0.01,0.05c0,0.01,0,0.03,0.01,0.06c0,0.02,0,0.04,0,0.07
			C30.71,33.69,30.71,33.72,30.71,33.75z"/>
		<path class="st1" d="M30.41,33.29c-0.03-0.04-0.06-0.07-0.09-0.1c-0.02-0.02-0.03-0.02-0.05-0.04c-0.02-0.02-0.04-0.02-0.06-0.03
			c-0.07-0.04-0.16-0.06-0.23-0.07c-0.08-0.01-0.15,0.01-0.21,0.03c-0.06,0.02-0.12,0.05-0.16,0.08c-0.04,0.03-0.07,0.07-0.09,0.1
			c-0.02,0.04-0.03,0.06-0.03,0.08c0,0.02-0.01,0.03-0.01,0.03l0.03,0.02c0,0,0.01,0,0.03-0.01c0.02-0.01,0.04-0.02,0.07-0.04
			c0.05-0.03,0.12-0.07,0.22-0.09c0.05-0.01,0.1-0.01,0.15,0c0.05,0.01,0.1,0.03,0.15,0.05c0.01,0.01,0.03,0.01,0.03,0.02
			c0.01,0.01,0.03,0.02,0.04,0.03c0.02,0.02,0.04,0.04,0.06,0.06c0.04,0.05,0.06,0.1,0.07,0.16c0.01,0.06,0.03,0.12,0.02,0.18
			c-0.01,0.06-0.04,0.12-0.08,0.16c-0.04,0.04-0.09,0.07-0.13,0.1c-0.05,0.02-0.09,0.04-0.14,0.05c-0.04,0.01-0.09,0.02-0.13,0.02
			c-0.04,0-0.07,0-0.11,0c-0.03,0-0.06-0.01-0.07-0.01c-0.02,0-0.03,0-0.03,0l-0.02,0.03c0,0,0.01,0.01,0.02,0.02
			c0.01,0.02,0.03,0.03,0.06,0.06c0.03,0.02,0.07,0.04,0.12,0.06c0.05,0.02,0.11,0.02,0.18,0.02c0.07-0.01,0.14-0.03,0.2-0.07
			c0.07-0.04,0.12-0.1,0.17-0.17c0.04-0.06,0.08-0.14,0.1-0.22c0.03-0.08,0.05-0.17,0.03-0.26C30.5,33.44,30.47,33.36,30.41,33.29z"
			/>
	</g>
</g>
</svg>
