<?xml version="1.0" encoding="utf-8"?>
<!-- Generator: Adobe Illustrator 23.0.1, SVG Export Plug-In . SVG Version: 6.00 Build 0)  -->
<svg version="1.1" id="Capa_1" xmlns="http://www.w3.org/2000/svg" xmlns:xlink="http://www.w3.org/1999/xlink" x="0px" y="0px"
	 viewBox="0 0 150 80" style="enable-background:new 0 0 150 80;" xml:space="preserve">
<g>
	<path d="M73.94,0.5c2.8,1.16,3.79,3.42,3.81,6.28c0.01,0.91-0.33,1.52-1.2,1.81c-1.72,0.58-3.36,1.26-4.67,2.59
		c-0.51,0.52-1.19,0.4-1.69,0.01c-0.79-0.61-1.22-0.25-1.69,0.39c-1.93,2.57-2.8,5.53-3.26,8.64c-0.3,2.06-0.29,4.11,0.23,6.14
		c0.74,2.91,2.51,4.96,5.25,6.18c0.52,0.23,1.04,0.48,1.59,0.64c1.48,0.42,2.54,1.14,2.91,2.8c0.3,1.33,1.46,1.76,2.7,1.45
		c1.58-0.39,2.95-0.28,4.37,0.64c1.07,0.7,2.24,0.25,2.87-0.94c0.51-0.96,1.2-1.47,2.28-1.47c8.39-0.03,11.42-5.95,11.82-12.34
		c0.03-0.48,0-0.96,0-1.56c0.61,0.22,0.63,0.69,0.75,1.05c1.41,4.2,1.67,8.49,1.08,12.86c-0.7,5.14-1.77,10.2-4,14.92
		c-1.6,3.41-4.19,5.69-8.01,6.36c-0.64,0.11-1.31,0.16-1.96,0.11c-2.18-0.15-3-1.22-2.72-3.4c0.28-2.17,0.52-4.35,0.76-6.53
		c0.13-1.14,0.1-2.29-0.17-3.4c-0.18-0.76-0.57-1.4-1.46-1.48c-0.87-0.08-1.54,0.24-1.98,1.01c-0.56,0.99-0.68,2.08-0.71,3.18
		c-0.08,3.45,0.34,6.82,1.65,10.05c0.74,1.84,0.22,2.9-1.75,3.2c-4.54,0.69-8.56-0.2-11.48-4.12c-1.21-1.62-2.2-3.38-3.14-5.16
		c-1.01-1.93-2.01-3.87-3.18-6.14c-0.23,1.99,0.21,3.51,0.63,5.03c0.58,2.14,0.06,3.03-2.18,3.27c-3.28,0.34-6.16-0.58-8.03-3.44
		c-2.5-3.84-4.39-7.91-3.65-12.71c0.09-0.56,0.03-1.13-0.11-1.7c-0.42-1.74-0.8-3.49-1.2-5.24c0-1.67,0-3.34,0-5
		c0.1-0.46,0.2-0.92,0.29-1.38c1.08-6.11,4.01-10.97,9.54-14.06c0.25-0.14,0.5-0.43,0.91-0.23c-11.36,8.27-8.3,22.7,0.61,28.43
		c-1.17-2.38-0.66-4.52-0.18-6.66c0.2-0.87,0.14-1.74,0.02-2.61c-1.03-7.53,1.51-13.52,7.78-17.86c0.65-0.45,0.76-0.68,0.25-1.37
		c-1.75-2.37-1.44-4.53,0.77-6.49c0.93-0.83,2.09-1.2,3.18-1.74C72.36,0.5,73.15,0.5,73.94,0.5z M77.13,38.36
		c1,2.36,4.18,2.81,5.78,0.81C80.95,38.97,79.06,38.8,77.13,38.36z"/>
	<path d="M54.19,79.5c-1.3-3.9-2.61-7.79-3.9-11.69c-0.25-0.74-0.74-1.21-1.42-1.68c2.09,0,4.18,0,6.57,0
		c-1.53,0.82-1.07,1.86-0.73,2.88c0.54,1.61,1.08,3.23,1.65,4.93c1.97-4.38,2.44-5.9-0.19-7.65c0.86-0.37,4.96-0.43,6.55-0.05
		c-1.41,0.64-1.08,1.6-0.71,2.62c0.55,1.52,1.02,3.07,1.54,4.61c0.04,0.12,0.13,0.22,0.28,0.48c0.76-2.1,1.49-4.1,2.2-6.09
		c0.26-0.73-0.14-1.21-0.96-1.69c1.35-0.27,2.39-0.22,3.54,0.01c-1.72,0.72-1.9,2.36-2.4,3.78c-1.12,3.17-2.42,6.28-3.34,9.52
		c-0.44,0-0.88,0-1.32,0c-0.94-2.86-1.89-5.71-2.83-8.57c-0.09,0.02-0.19,0.04-0.28,0.06c-0.98,2.84-1.96,5.67-2.94,8.51
		C55.07,79.5,54.63,79.5,54.19,79.5z"/>
	<path d="M75,79.5c-1.28-3.82-2.55-7.63-3.82-11.45c-0.27-0.81-0.69-1.48-1.56-1.9c2.12,0,4.23,0,6.76,0
		c-1.55,0.7-1.31,1.6-0.95,2.6c0.6,1.68,1.13,3.4,1.72,5.2c2.01-4.32,2.43-6.03-0.19-7.61c0.75-0.39,4.42-0.5,6.7-0.14
		c-1.92,0.77-1.07,1.93-0.74,2.98c0.49,1.58,1.04,3.13,1.65,4.95c0.8-2.21,1.5-4.14,2.21-6.07c0.29-0.77,0.07-1.34-0.95-1.82
		c1.38-0.33,2.42-0.3,3.54,0.02c-1.28,0.51-1.63,1.62-2.02,2.73c-1.09,3.1-2.23,6.18-3.33,9.27c-0.14,0.4-0.42,0.78-0.32,1.25
		c-0.44,0-0.88,0-1.32,0c-0.96-2.86-1.91-5.71-2.87-8.57c-0.09,0.01-0.18,0.03-0.27,0.04c-0.97,2.84-1.94,5.69-2.92,8.53
		C75.87,79.5,75.44,79.5,75,79.5z"/>
	<path d="M96.3,14.22c-0.79,0.11-1.29-0.33-1.62-1.02c-0.66-1.39-1.72-2.27-3.2-2.69c-0.99-0.28-1.38-1.01-1.29-2.01
		c0.21-2.21,1.49-3.68,3.38-4.67c1.77-0.93,3.44-0.48,4.9,0.66c3.77,2.94,3.62,6.65-0.28,9.19C97.64,14.04,97.01,14.25,96.3,14.22z"
		/>
	<path d="M90.08,78.87c1.73-0.03,1.8-1.11,1.77-2.35c-0.05-2.41-0.01-4.82-0.01-7.23c0-2.19,0-2.19-1.76-3.03
		c0.31-0.38,0.72-0.24,1.08-0.25c3.07-0.01,6.14,0.03,9.2-0.03c1.01-0.02,1.32,0.31,1.22,1.27c-0.08,0.79-0.02,1.6-0.02,2.66
		c-0.34-0.32-0.47-0.39-0.51-0.48c-0.8-2.13-2.26-2.92-4.47-2.5c-0.57,0.11-0.57,0.43-0.57,0.84c0,1.01-0.05,2.02,0.02,3.02
		c0.03,0.44-0.39,1.16,0.44,1.28c0.77,0.11,1.53-0.05,1.9-0.85c0.24-0.53,0.34-1.12,0.75-1.65c0,1.96,0,3.93,0,5.95
		c-0.62-0.21-0.38-0.7-0.49-1.02c-0.23-0.71-0.57-1.27-1.35-1.46c-0.8-0.19-1.38-0.17-1.28,0.93c0.07,0.74,0,1.49,0.02,2.23
		c0.02,1.21-0.42,2.68,1.54,2.99c-2.45,0-4.9,0-7.35,0C90.17,79.09,90.13,78.98,90.08,78.87z"/>
	<path d="M70.21,25.52c0.02-2.48,1.54-4.77,3.58-5.6c1.45-0.6,2.88-0.29,3.82,0.83c1.06,1.26,1.27,2.98,0.49,4.23
		c-0.75,1.19-1.58,2.32-2.59,3.29c-0.89,0.85-1.84,1.54-3.16,1.05c-1.3-0.49-1.81-1.58-2.05-2.84C70.21,26.1,70.22,25.7,70.21,25.52
		z"/>
	<path d="M93.16,27.19c0.03,1.21-0.27,2.25-0.96,3.15c-1.52,1.99-4.01,1.75-5.03-0.51c-0.61-1.35-1.01-2.8-1.94-3.99
		c-0.21-0.27-0.23-0.55-0.09-0.86c0.04-0.08,0.07-0.16,0.09-0.24c0.65-1.98,1.99-3.37,3.46-3.34c1.9,0.03,2.97,1.3,3.77,2.84
		C92.95,25.19,93.2,26.2,93.16,27.19z"/>
	<path d="M84.19,34.29c0.02,0.66-0.4,0.84-0.91,0.95c-0.93,0.2-1.92,0.27-2.59,1.11c-0.21,0.27-0.63,0.32-0.77-0.03
		c-0.43-1-1.34-1.31-2.22-1.69c-0.5-0.22-0.92-0.55-0.81-1.2c0.11-0.6,0.55-0.95,1.09-0.99c1.8-0.14,3.59-0.04,5.27,0.72
		C83.74,33.4,84.14,33.73,84.19,34.29z"/>
</g>
</svg>
