<?xml version="1.0" encoding="utf-8"?>
<!-- Generator: Adobe Illustrator 23.0.1, SVG Export Plug-In . SVG Version: 6.00 Build 0)  -->
<svg version="1.1" id="Layer_1" xmlns="http://www.w3.org/2000/svg" xmlns:xlink="http://www.w3.org/1999/xlink" x="0px" y="0px"
	 viewBox="0 0 150 80" style="enable-background:new 0 0 150 80;" xml:space="preserve">
<style type="text/css">
	.st0{fill-rule:evenodd;clip-rule:evenodd;fill:#67788A;}
	.st1{fill:#67788A;}
</style>
<g>
	<g>
		<path class="st0" d="M70.54,45.38c-4.42,0-7.84,3.24-7.84,7.61c0,2.29,0.94,4.26,2.46,5.63c0.13,0.12,0.21,0.27,0.21,0.45
			l0.04,1.4c0.01,0.44,0.47,0.73,0.88,0.56l1.56-0.69c0.13-0.06,0.28-0.07,0.42-0.03c0.71,0.2,1.48,0.3,2.27,0.3
			c4.42,0,7.84-3.24,7.84-7.61C78.39,48.62,74.96,45.38,70.54,45.38z M75.25,51.23l-2.3,3.65c-0.37,0.58-1.15,0.73-1.7,0.31
			l-1.83-1.37c-0.17-0.13-0.4-0.12-0.57,0l-2.48,1.88c-0.33,0.25-0.76-0.15-0.54-0.5l2.3-3.65c0.37-0.58,1.15-0.73,1.7-0.31
			l1.83,1.37c0.17,0.13,0.4,0.12,0.57,0l2.47-1.88C75.04,50.49,75.48,50.88,75.25,51.23z"/>
		<g>
			<g id="WA_Logo_22_">
				<g>
					<path class="st0" d="M121.95,47.63c-1.47-1.48-3.43-2.29-5.52-2.29c-4.3,0-7.81,3.5-7.81,7.81c0,1.38,0.36,2.72,1.04,3.9
						l-1.11,4.05l4.14-1.09c1.14,0.62,2.42,0.95,3.73,0.95h0c4.3,0,7.81-3.5,7.81-7.81C124.23,51.07,123.42,49.11,121.95,47.63z
						 M116.42,59.64L116.42,59.64c-1.17,0-2.31-0.31-3.31-0.9l-0.24-0.14l-2.46,0.64l0.66-2.39l-0.15-0.25
						c-0.65-1.03-0.99-2.23-0.99-3.45c0-3.58,2.91-6.49,6.49-6.49c1.73,0,3.36,0.68,4.59,1.9c1.23,1.23,1.9,2.86,1.9,4.59
						C122.91,56.73,120,59.64,116.42,59.64z M119.98,54.78c-0.2-0.1-1.15-0.57-1.33-0.63c-0.18-0.07-0.31-0.1-0.44,0.1
						c-0.13,0.2-0.5,0.63-0.62,0.76c-0.11,0.13-0.23,0.15-0.42,0.05s-0.82-0.3-1.57-0.97c-0.58-0.52-0.97-1.16-1.09-1.35
						c-0.11-0.2-0.01-0.3,0.09-0.4c0.09-0.09,0.2-0.23,0.29-0.34s0.13-0.2,0.2-0.33c0.07-0.13,0.03-0.24-0.02-0.34
						c-0.05-0.1-0.44-1.06-0.6-1.45c-0.16-0.38-0.32-0.33-0.44-0.33c-0.11-0.01-0.24-0.01-0.37-0.01c-0.13,0-0.34,0.05-0.52,0.24
						s-0.68,0.67-0.68,1.63c0,0.96,0.7,1.89,0.8,2.02c0.1,0.13,1.38,2.1,3.33,2.95c0.47,0.2,0.83,0.32,1.11,0.41
						c0.47,0.15,0.89,0.13,1.23,0.08c0.37-0.06,1.15-0.47,1.32-0.93c0.16-0.46,0.16-0.85,0.11-0.93
						C120.31,54.93,120.18,54.88,119.98,54.78z"/>
				</g>
			</g>
		</g>
		<g>
			<path class="st1" d="M100.77,48.17c-0.2-0.51-0.46-0.94-0.89-1.37c-0.43-0.43-0.86-0.69-1.37-0.89
				c-0.49-0.19-1.05-0.32-1.87-0.36c-0.82-0.04-1.08-0.05-3.18-0.05c-2.09,0-2.36,0.01-3.18,0.05c-0.82,0.04-1.38,0.17-1.87,0.36
				c-0.51,0.2-0.94,0.46-1.37,0.89c-0.43,0.43-0.69,0.86-0.89,1.37c-0.19,0.49-0.32,1.05-0.36,1.87c-0.04,0.82-0.05,1.08-0.05,3.18
				s0.01,2.36,0.05,3.18c0.04,0.82,0.17,1.38,0.36,1.87c0.2,0.51,0.46,0.94,0.89,1.37c0.43,0.43,0.86,0.69,1.37,0.89
				c0.49,0.19,1.05,0.32,1.87,0.36c0.82,0.04,1.08,0.05,3.18,0.05c2.09,0,2.36-0.01,3.18-0.05c0.82-0.04,1.38-0.17,1.87-0.36
				c0.51-0.2,0.94-0.46,1.37-0.89c0.43-0.43,0.69-0.86,0.89-1.37c0.19-0.49,0.32-1.05,0.36-1.87c0.04-0.82,0.05-1.08,0.05-3.18
				s-0.01-2.36-0.05-3.18C101.09,49.22,100.96,48.66,100.77,48.17z M99.74,56.34c-0.03,0.75-0.16,1.16-0.27,1.43
				c-0.14,0.36-0.31,0.62-0.58,0.89c-0.27,0.27-0.53,0.44-0.89,0.58c-0.27,0.11-0.68,0.23-1.43,0.27c-0.81,0.04-1.06,0.04-3.12,0.04
				c-2.06,0-2.3-0.01-3.12-0.04c-0.75-0.03-1.16-0.16-1.43-0.27c-0.36-0.14-0.62-0.31-0.89-0.58c-0.27-0.27-0.44-0.53-0.58-0.89
				c-0.11-0.27-0.23-0.68-0.27-1.43c-0.04-0.81-0.04-1.06-0.04-3.12c0-2.06,0.01-2.3,0.04-3.12c0.03-0.75,0.16-1.16,0.27-1.43
				c0.14-0.36,0.31-0.62,0.58-0.89c0.27-0.27,0.53-0.44,0.89-0.58c0.27-0.11,0.68-0.23,1.43-0.27c0.81-0.04,1.06-0.04,3.12-0.04
				c2.06,0,2.3,0.01,3.12,0.04c0.75,0.03,1.16,0.16,1.43,0.27c0.36,0.14,0.62,0.31,0.89,0.58c0.27,0.27,0.44,0.53,0.58,0.89
				c0.11,0.27,0.23,0.68,0.27,1.43c0.04,0.81,0.04,1.06,0.04,3.12C99.79,55.28,99.78,55.52,99.74,56.34z M93.47,49.26
				c-2.19,0-3.96,1.77-3.96,3.96s1.77,3.96,3.96,3.96c2.19,0,3.96-1.77,3.96-3.96S95.65,49.26,93.47,49.26z M93.47,55.79
				c-1.42,0-2.57-1.15-2.57-2.57s1.15-2.57,2.57-2.57c1.42,0,2.57,1.15,2.57,2.57S94.89,55.79,93.47,55.79z M97.58,48.18
				c-0.51,0-0.93,0.41-0.93,0.93c0,0.51,0.41,0.93,0.93,0.93c0.51,0,0.93-0.41,0.93-0.93C98.51,48.59,98.09,48.18,97.58,48.18z"/>
		</g>
		<path class="st1" d="M47.62,45.43c-4.33,0-7.84,3.51-7.84,7.84c0,3.92,2.87,7.16,6.62,7.75v-5.48h-2v-2.27h2l0-1.73
			c0-1.97,1.16-3.06,2.96-3.06c0.86,0,1.75,0.17,1.75,0.17v1.92h-0.98c-0.97,0-1.29,0.61-1.29,1.23l0,1.47h2.18l-0.35,2.27h-1.83
			v5.48c3.75-0.59,6.62-3.83,6.62-7.75C55.46,48.94,51.95,45.43,47.62,45.43z"/>
		<g>
			<path class="st1" d="M147.4,48.84c-0.66-0.53-1.42-0.9-2.24-1.09c-0.47-0.11-0.94-0.16-1.43-0.18c-0.36-0.01-0.71-0.01-1.07-0.01
				c-1.69,0-3.39,0-5.08,0c-0.36,0-0.71,0-1.07,0.01c-0.48,0.02-0.95,0.07-1.43,0.18c-0.82,0.2-1.58,0.56-2.24,1.1
				c-1.33,1.07-2.1,2.68-2.1,4.38c0,1.7,0.77,3.32,2.1,4.38c0.66,0.53,1.42,0.9,2.24,1.09c0.47,0.11,0.94,0.16,1.43,0.18
				c0.36,0.01,0.71,0.01,1.07,0.01c1.69,0,3.39,0,5.08,0c0.36,0,0.71,0,1.07-0.01c0.48-0.02,0.95-0.07,1.43-0.18
				c0.82-0.2,1.58-0.56,2.24-1.1c1.33-1.07,2.1-2.68,2.1-4.38C149.5,51.52,148.73,49.91,147.4,48.84z M144.92,54.75
				c-0.25,0.17-0.53,0.28-0.83,0.33c-0.3,0.05-0.59,0.05-0.89,0.05c-2.05,0-4.1,0-6.15,0c-0.3,0-0.6,0-0.89-0.05
				c-0.3-0.05-0.58-0.16-0.83-0.33c-0.5-0.35-0.8-0.92-0.8-1.53c0-0.61,0.3-1.18,0.8-1.52c0.25-0.17,0.53-0.28,0.83-0.33
				c0.3-0.05,0.59-0.05,0.89-0.05c2.05,0,4.1,0,6.15,0c0.3,0,0.6,0,0.89,0.05c0.3,0.05,0.58,0.16,0.83,0.33
				c0.5,0.35,0.8,0.92,0.8,1.53C145.72,53.83,145.42,54.4,144.92,54.75z"/>
		</g>
	</g>
	<g>
		<g>
			<path class="st1" d="M12.22,19.42v2.06c0,0.13-0.09,0.22-0.22,0.22H3.16v4.21h7.29c0.13,0,0.22,0.09,0.22,0.22v2.06
				c0,0.13-0.09,0.22-0.22,0.22H3.16v6.22c0,0.13-0.09,0.22-0.22,0.22H0.72c-0.13,0-0.22-0.09-0.22-0.22V19.42
				c0-0.13,0.09-0.22,0.22-0.22H12C12.13,19.19,12.22,19.28,12.22,19.42z"/>
			<path class="st1" d="M30.25,34.85h-2.44c-0.13,0-0.22-0.07-0.26-0.2c-0.32-1.29-0.72-2.64-1.16-4h-7.48
				c-0.45,1.36-0.84,2.72-1.15,4c-0.03,0.13-0.12,0.2-0.26,0.2h-2.35c-0.16,0-0.25-0.09-0.2-0.25c1.41-4.99,3.56-10.49,5.73-15.12
				c0.1-0.21,0.22-0.29,0.44-0.29h3.18c0.21,0,0.34,0.08,0.44,0.29c2.19,4.62,4.31,10.13,5.73,15.12
				C30.5,34.76,30.41,34.85,30.25,34.85z M25.57,28.23c-0.82-2.26-1.72-4.52-2.65-6.58h-0.53c-0.93,2.06-1.85,4.32-2.66,6.58H25.57z
				"/>
			<path class="st1" d="M34.26,27.16c0-4.85,3.2-8.26,7.76-8.26h0.34c2.86,0,5.08,1.45,6.25,3.56c0.08,0.13,0.06,0.25-0.08,0.31
				l-1.97,0.97c-0.13,0.07-0.3,0.07-0.39-0.1c-0.83-1.43-2.07-2.19-3.9-2.19h-0.34c-2.87,0-4.85,2.28-4.85,5.59
				c0,3.32,1.95,5.55,4.85,5.55h0.34c1.88,0,2.98-0.64,3.81-1.61c0.11-0.12,0.23-0.15,0.37-0.08l2.02,0.98
				c0.08,0.04,0.11,0.1,0.11,0.16c0,0.06-0.02,0.1-0.07,0.17c-1.24,1.81-3.48,2.93-6.21,2.93h-0.34
				C37.33,35.15,34.26,31.96,34.26,27.16z"/>
			<path class="st1" d="M66.43,32.57v2.06c0,0.13-0.09,0.22-0.22,0.22H54.46c-0.13,0-0.22-0.09-0.22-0.22V19.42
				c0-0.13,0.09-0.22,0.22-0.22H66c0.13,0,0.22,0.09,0.22,0.22v2.06c0,0.13-0.09,0.22-0.22,0.22H56.9v4.07h7.41
				c0.13,0,0.22,0.09,0.22,0.22v2.04c0,0.13-0.09,0.22-0.22,0.22H56.9v4.09h9.31C66.34,32.35,66.43,32.44,66.43,32.57z"/>
			<path class="st1" d="M86.65,30.56c0,2.74-2.1,4.3-5.82,4.3h-7.7c-0.13,0-0.22-0.09-0.22-0.22V19.42c0-0.13,0.09-0.22,0.22-0.22
				h7.01c3.61,0,5.58,1.43,5.58,4.05c0,1.72-0.87,2.85-2.64,3.38C85.58,27.15,86.65,28.63,86.65,30.56z M80.1,21.63h-4.52v4.21h4.52
				c2.02,0,2.95-0.66,2.95-2.1S82.12,21.63,80.1,21.63z M83.92,30.32c0-1.45-0.96-2.11-3.08-2.11h-5.27v4.21h5.27
				C82.99,32.42,83.92,31.79,83.92,30.32z"/>
			<path class="st1" d="M91.34,27.02c0-4.72,3.13-8.12,8.05-8.12h0.34c4.92,0,8.05,3.4,8.05,8.12c0,4.72-3.13,8.12-8.05,8.12h-0.34
				C94.47,35.15,91.34,31.74,91.34,27.02z M99.73,32.59c3.21,0,5.23-2.2,5.23-5.57c0-3.37-2.02-5.57-5.23-5.57h-0.34
				c-3.21,0-5.23,2.2-5.23,5.57c0,3.37,2.02,5.57,5.23,5.57H99.73z"/>
			<path class="st1" d="M112.32,27.02c0-4.72,3.13-8.12,8.05-8.12h0.34c4.92,0,8.05,3.4,8.05,8.12c0,4.72-3.13,8.12-8.05,8.12h-0.34
				C115.46,35.15,112.32,31.74,112.32,27.02z M120.71,32.59c3.21,0,5.23-2.2,5.23-5.57c0-3.37-2.02-5.57-5.23-5.57h-0.34
				c-3.21,0-5.23,2.2-5.23,5.57c0,3.37,2.02,5.57,5.23,5.57H120.71z"/>
			<path class="st1" d="M148.06,34.85h-2.89c-0.19,0-0.27-0.04-0.39-0.19c-2.02-2.38-4.42-4.75-6.45-6.5h-1.3v6.47
				c0,0.13-0.09,0.22-0.22,0.22h-2.21c-0.13,0-0.22-0.09-0.22-0.22V19.42c0-0.13,0.09-0.22,0.22-0.22h2.21
				c0.13,0,0.22,0.09,0.22,0.22v6.17h1.32c2.18-1.97,4.19-4.09,5.84-6.23c0.11-0.15,0.2-0.17,0.34-0.17h2.73
				c0.13,0,0.2,0.07,0.2,0.16c0,0.04-0.02,0.1-0.08,0.17c-2.4,2.96-4.79,5.39-6.99,7.27c2.77,2.35,5.4,4.97,7.8,7.79
				C148.31,34.72,148.24,34.85,148.06,34.85z"/>
		</g>
	</g>
</g>
</svg>
