<?xml version="1.0" encoding="utf-8"?>
<!-- Generator: Adobe Illustrator 23.0.1, SVG Export Plug-In . SVG Version: 6.00 Build 0)  -->
<svg version="1.1"
	 id="svg855" xmlns:cc="http://creativecommons.org/ns#" xmlns:dc="http://purl.org/dc/elements/1.1/" xmlns:inkscape="http://www.inkscape.org/namespaces/inkscape" xmlns:rdf="http://www.w3.org/1999/02/22-rdf-syntax-ns#" xmlns:sodipodi="http://sodipodi.sourceforge.net/DTD/sodipodi-0.dtd" xmlns:svg="http://www.w3.org/2000/svg"
	 xmlns="http://www.w3.org/2000/svg" xmlns:xlink="http://www.w3.org/1999/xlink" x="0px" y="0px" viewBox="0 0 150 80"
	 style="enable-background:new 0 0 150 80;" xml:space="preserve">
<style type="text/css">
	.st0{fill:#0058A3;}
	.st1{fill:#FFDB00;}
</style>
<sodipodi:namedview  bordercolor="#666666" borderopacity="1.0" id="base" inkscape:current-layer="layer1" inkscape:cx="400" inkscape:cy="560" inkscape:document-units="mm" inkscape:pageopacity="0.0" inkscape:pageshadow="2" inkscape:window-height="962" inkscape:window-maximized="1" inkscape:window-width="1280" inkscape:window-x="-8" inkscape:window-y="-8" inkscape:zoom="0.175" pagecolor="#ffffff" showgrid="false" units="in">
	</sodipodi:namedview>
<g id="layer1" transform="translate(0,43)" inkscape:groupmode="layer" inkscape:label="Capa 1">
	<path id="path836" inkscape:connector-curvature="0" class="st0" d="M140,23.4H10v-52.8h130L140,23.4L140,23.4z"/>
	<path id="path838" inkscape:connector-curvature="0" class="st1" d="M12.5-3c0,12.8,26.2,23.4,62.5,23.4S137.4,9.8,137.4-3
		S111.3-26.4,75-26.4S12.5-15.8,12.5-3L12.5-3z"/>
	<path id="path840" inkscape:connector-curvature="0" class="st0" d="M53.9-13.2c-0.3,0.6-0.3,1.1-0.3,1.7v7c0,0,3.7-4.9,4.6-6
		c0.7-0.9,1.5-2.1,1.5-2.6h12.2c-0.8,0.6-1.8,1.6-2.5,2.5c-0.7,0.8-4.5,5.5-4.5,5.5s5.6,8.6,6.4,9.7c0.4,0.6,0.9,1.2,1.4,1.7H58.6
		c0-0.6-0.5-1.7-1.1-2.6c-0.6-0.9-3.8-5.8-3.8-5.8v6.7c0,0.6,0,1.1,0.3,1.7H42.2c0.3-0.6,0.3-1.1,0.3-1.7v-16c0-0.6,0-1.1-0.3-1.7
		H53.9z M97.3-13.2H74.7c0.3,0.6,0.3,1.1,0.3,1.7v16c0,0.6,0,1.1-0.3,1.7h22.6V0.8c-0.6,0.3-1.1,0.3-1.7,0.3h-9.5v-2.5h9.1v-4.1
		h-9.1v-2.6h9.5c0.6,0,1.1,0,1.7,0.3L97.3-13.2z M128.7,4.5c0.2,0.6,0.5,1.2,0.9,1.7h-12.3c0.1-0.6-0.1-1.1-0.4-1.7
		c0,0-0.2-0.4-0.4-1.1l-0.1-0.3h-7.1l-0.1,0.3c0,0-0.2,0.5-0.4,1.1c-0.2,0.6-0.4,1.1-0.3,1.7h-9.7c0.4-0.5,0.7-1,0.9-1.7l5.8-16
		c0.2-0.6,0.4-1.1,0.3-1.7h16.3c-0.1,0.6,0.1,1.1,0.4,1.7C123-10.3,128.3,3.4,128.7,4.5 M114.8-1l-1.7-4.5c-0.1-0.4-0.3-0.8-0.4-1.3
		c-0.1,0.4-0.2,0.9-0.3,1.3c-0.1,0.2-0.8,2.1-1.6,4.5H114.8z M36.4-11.5c0-0.6,0-1.1,0.3-1.7H23.9c0.3,0.6,0.3,1.1,0.3,1.7v16
		c0,0.6,0,1.1-0.3,1.7h12.7c-0.3-0.6-0.3-1.1-0.3-1.7V-11.5z M124.8-11.6c0,1.4,1.1,2.6,2.5,2.6c1.4,0,2.6-1.1,2.6-2.5
		c0,0,0-0.1,0-0.1c0-1.4-1.1-2.5-2.4-2.5c0,0-0.1,0-0.1,0c-1.4-0.1-2.5,1-2.5,2.4C124.7-11.7,124.7-11.7,124.8-11.6 M129.3-11.6
		c0,1.1-0.9,2.1-2,2.1c-1.1,0-2.1-0.9-2.1-2c0,0,0-0.1,0-0.1c0-1.1,0.8-2,1.9-2c0.1,0,0.1,0,0.1,0C128.4-13.7,129.3-12.8,129.3-11.6
		C129.3-11.7,129.3-11.6,129.3-11.6 M128.5-10.1H128l-0.6-1.1h-0.7v1.1h-0.4v-3.1h1.1c0.5,0,1,0.4,1,1c0,0.4-0.2,0.7-0.5,0.9
		L128.5-10.1z M127.4-11.6c0.3,0,0.6-0.2,0.6-0.5c0-0.3-0.2-0.6-0.5-0.6c0,0,0,0-0.1,0h-0.6v1.1L127.4-11.6"/>
</g>
</svg>
