<?xml version="1.0" encoding="utf-8"?>
<!-- Generator: Adobe Illustrator 23.0.1, SVG Export Plug-In . SVG Version: 6.00 Build 0)  -->
<svg version="1.1" id="Capa_1" xmlns="http://www.w3.org/2000/svg" xmlns:xlink="http://www.w3.org/1999/xlink" x="0px" y="0px"
	 viewBox="0 0 150 80" style="enable-background:new 0 0 150 80;" xml:space="preserve">
<style type="text/css">
	.st0{fill:#DE348B;}
	.st1{fill:#008E3A;}
	.st2{fill:#EA722F;}
	.st3{fill:#F8BD2B;}
	.st4{fill:#009BC0;}
</style>
<g>
	<path class="st0" d="M5.3,67.4l-0.4-1.5H2.6l-0.9,1.5H1l3.4-5.3h0.2l1.3,5.3H5.3z M4.4,63.9c0-0.2-0.1-0.5-0.2-0.8l0,0
		c-0.2,0.3-0.3,0.5-0.5,0.8l-1,1.6h2L4.4,63.9z"/>
	<path class="st0" d="M8.1,67.1c-0.9,1.3-1.6,1.9-2.3,2.2L5.5,69c0.6-0.3,1.3-0.8,2-1.8l-0.9-3.4h0.6l0.5,1.9
		c0.1,0.3,0.2,0.6,0.2,0.9l0,0c0.2-0.3,0.4-0.6,0.6-0.9l1.2-1.9h0.6L8.1,67.1z"/>
	<path class="st0" d="M13.6,67.4h-0.5l0.2-1.1h0c-0.3,0.5-0.9,1.2-1.8,1.2c-0.6,0-1.1-0.4-1.1-0.9c0-0.1,0-0.2,0-0.2l0.5-2.5h0.5
		L11,66.3c0,0.1,0,0.1,0,0.2c0,0.3,0.2,0.5,0.6,0.5c0.8,0,1.6-0.8,2-2.3l0.2-1h0.5L13.6,67.4z"/>
	<path class="st0" d="M17.9,67.4h-0.5l0.2-1.1h0c-0.4,0.7-1.1,1.2-1.8,1.2c-0.7,0-1.2-0.4-1.2-1.2c0-1.5,1.4-2.5,2.9-2.5
		c0.2,0,0.4,0,0.6,0l0.4-2.1H19L17.9,67.4z M17.4,64.1c-1.2,0-2.3,0.9-2.3,2.1c0,0.5,0.3,0.8,0.8,0.8c0.7,0,1.6-0.7,1.8-2.1l0.2-0.7
		C17.8,64.2,17.6,64.1,17.4,64.1"/>
	<path class="st0" d="M22.3,67.4h-0.5l0.2-1.1h0c-0.4,0.7-1,1.2-1.7,1.2c-0.7,0-1.2-0.4-1.2-1.2c0-1.6,1.4-2.6,2.9-2.6
		c0.4,0,0.8,0,1,0.1L22.3,67.4z M21.9,64.1c-1.2,0-2.3,0.9-2.3,2.1c0,0.5,0.3,0.7,0.7,0.7c0.7,0,1.6-0.7,1.8-2.1l0.2-0.7
		C22.3,64.2,22.1,64.1,21.9,64.1"/>
	<path class="st0" d="M29.6,64.9l-0.5,2.5h-0.5l0.5-2.5c0,0,0-0.1,0-0.2c0-0.3-0.2-0.6-0.5-0.6c-0.7,0-1.5,0.7-1.8,2.2l-0.2,1.1H26
		l0.5-2.5c0,0,0-0.1,0-0.2c0-0.3-0.2-0.6-0.5-0.6c-0.7,0-1.5,0.7-1.8,2.2L24,67.4h-0.5l0.7-3.7h0.5l-0.2,1h0
		c0.3-0.5,0.7-1.1,1.6-1.1c0.5,0,0.9,0.3,0.9,0.8c0,0.1,0,0.2,0,0.3h0c0.3-0.4,0.8-1.1,1.7-1.1c0.5,0,1,0.4,1,1
		C29.6,64.7,29.6,64.8,29.6,64.9"/>
	<path class="st0" d="M31.8,67.5c-1,0-1.6-0.6-1.6-1.5c0-1.3,1.1-2.3,2.5-2.3c1,0,1.6,0.6,1.6,1.5C34.2,66.4,33.1,67.5,31.8,67.5
		 M32.6,64.1c-1,0-1.8,0.9-1.8,1.9c0,0.7,0.4,1.1,1.1,1.1c0.9,0,1.8-0.9,1.8-1.8C33.6,64.5,33.3,64.1,32.6,64.1"/>
	<path class="st0" d="M37.4,64.2c-0.2-0.1-0.4-0.1-0.7-0.1c-0.5,0-0.9,0.3-0.9,0.7c0,0.2,0.1,0.4,0.5,0.5c0.7,0.3,0.9,0.5,0.9,1
		c0,0.7-0.7,1.2-1.6,1.2c-0.4,0-0.7,0-1-0.2v-0.5c0.3,0.2,0.6,0.2,1,0.2c0.6,0,1-0.3,1-0.7c0-0.2-0.2-0.4-0.5-0.6
		c-0.6-0.2-0.9-0.5-0.9-0.9c0-0.8,0.7-1.2,1.5-1.2c0.4,0,0.7,0.1,0.8,0.2L37.4,64.2z"/>
	<path class="st0" d="M42.9,67.4h-0.5l0.2-1.1h0c-0.4,0.7-1,1.2-1.7,1.2c-0.7,0-1.2-0.4-1.2-1.2c0-1.6,1.4-2.6,2.9-2.6
		c0.4,0,0.8,0,1,0.1L42.9,67.4z M42.5,64.1c-1.2,0-2.3,0.9-2.3,2.1c0,0.5,0.3,0.7,0.7,0.7c0.7,0,1.6-0.7,1.8-2.1l0.2-0.7
		C42.8,64.2,42.7,64.1,42.5,64.1"/>
	<path class="st0" d="M50.9,62.8c-0.3-0.1-0.8-0.2-1.2-0.2c-1.8,0-3.1,1.2-3.1,2.6c0,1.1,1,1.8,2.1,1.8c0.5,0,1.2-0.2,1.6-0.4
		l-0.2,0.5c-0.4,0.2-0.9,0.3-1.6,0.3c-1.3,0-2.5-0.8-2.5-2.3c0-1.7,1.5-3.1,3.7-3.1c0.5,0,1,0.1,1.3,0.2L50.9,62.8z"/>
	<path class="st0" d="M53.8,64.1c-0.8,0-1.7,1-2,2.4l-0.2,0.9h-0.5l0.7-3.7h0.5L52,65l0,0c0.2-0.6,0.9-1.3,1.7-1.3L53.8,64.1
		L53.8,64.1L53.8,64.1z"/>
	<path class="st0" d="M54.4,66c0,0.6,0.5,1,1.2,1c0.4,0,0.8-0.1,1.1-0.4l-0.2,0.6c-0.2,0.2-0.6,0.2-1,0.2c-1,0-1.7-0.5-1.7-1.6
		c0-1.3,1.3-2.3,2.5-2.3c0.7,0,1.1,0.3,1.1,0.8C57.3,65.4,56.1,66,54.4,66 M56.2,64.1c-0.7,0-1.7,0.7-1.8,1.5c1.3,0,2.3-0.6,2.3-1.1
		C56.8,64.3,56.6,64.1,56.2,64.1"/>
	<path class="st0" d="M60.9,64.1c-0.2,0-0.3,0-0.5,0c-1.2,0-2.2,1-2.2,2c0,0.5,0.4,1,1.1,1c0.5,0,0.9-0.2,1.3-0.4l-0.2,0.5
		c-0.3,0.2-0.7,0.3-1.2,0.3c-0.8,0-1.6-0.5-1.6-1.4c0-1.4,1.4-2.4,2.8-2.4c0.2,0,0.4,0,0.6,0L60.9,64.1z"/>
	<path class="st0" d="M61.6,66c0,0.6,0.5,1,1.2,1c0.4,0,0.8-0.1,1.1-0.4l-0.2,0.6c-0.2,0.2-0.6,0.2-1,0.2c-1,0-1.7-0.5-1.7-1.6
		c0-1.3,1.3-2.3,2.5-2.3c0.7,0,1.1,0.3,1.1,0.8C64.5,65.4,63.2,66,61.6,66 M63.4,64.1c-0.7,0-1.7,0.7-1.8,1.5c1.3,0,2.3-0.6,2.3-1.1
		C63.9,64.3,63.8,64.1,63.4,64.1"/>
	<path class="st0" d="M67.6,64.1c-0.8,0-1.7,1-2,2.4l-0.2,0.9h-0.5l0.7-3.7h0.5L65.9,65l0,0c0.2-0.6,0.9-1.3,1.7-1.3L67.6,64.1
		L67.6,64.1L67.6,64.1z"/>
	<path class="st1" d="M4.8,56.6c-0.6,0-1.1-0.2-1.5-0.3V60H1.5V49.1H3l0,0.4c0.5-0.4,1.2-0.5,2-0.5c1.6,0,3.6,1.3,3.6,3.8
		C8.6,55,6.9,56.6,4.8,56.6 M4.8,50.6c-0.7,0-1.2,0.2-1.5,0.6v3.3C3.6,54.8,4.2,55,4.8,55c1.1,0,2-0.9,2-2.2
		C6.8,51.4,5.9,50.6,4.8,50.6"/>
	<path class="st1" d="M13.8,50.6c-1.1,0-2.3,0.5-2.3,2.4v3.5H9.7v-7.4h1.7l0,0.7c0.5-0.5,1.4-0.8,2.2-0.7h0.7L14,50.6h0H13.8"/>
	<path class="st1" d="M61.4,50.6c-1.1,0-2.3,0.5-2.3,2.4v3.5h-1.8v-7.4H59l0,0.7c0.5-0.5,1.4-0.8,2.2-0.7h0.7l-0.4,1.6l0,0H61.4"/>
	<path class="st1" d="M18.1,56.6c-2.1,0-3.9-1.6-3.9-3.8s1.7-3.9,3.9-3.9c2.1,0,3.9,1.6,3.9,3.9C22,55,20.3,56.6,18.1,56.6
		 M18.1,50.6c-1.1,0-2.1,0.9-2.1,2.2c0,1.3,1,2.2,2.1,2.2c1.1,0,2.1-0.9,2.1-2.2C20.2,51.4,19.2,50.6,18.1,50.6"/>
	<path class="st1" d="M32,56.4h-0.2v-5c0-0.6-0.4-0.9-1.3-0.9c-0.9,0-1.3,0.5-1.3,0.9v5h-1.8v-5c0-0.5-0.4-0.9-1.3-0.9
		c-0.9,0-1.3,0.5-1.3,0.9v5h-1.8v-7.3h1.6l0,0.4c0.5-0.4,1.1-0.6,2-0.6c0.8,0,1.5,0.4,2,0.9c0.5-0.5,1.3-0.9,2.5-0.9
		c1.5,0,2.7,1,2.7,2.4v5.1L32,56.4"/>
	<path class="st1" d="M38.5,56.6c-2.1,0-3.9-1.6-3.9-3.8s1.7-3.9,3.9-3.9c2.1,0,3.9,1.6,3.9,3.9C42.4,55,40.7,56.6,38.5,56.6
		 M38.5,50.6c-1.1,0-2.1,0.9-2.1,2.2c0,1.3,1,2.2,2.1,2.2c1.1,0,2.1-0.9,2.1-2.2C40.6,51.4,39.6,50.6,38.5,50.6"/>
	<path class="st1" d="M44.8,56c-0.5-0.4-0.7-1-0.7-1.7v-3.6h-1.4v-1.5H44v-1.3l1.8-0.9v2.3h2.5L48,50.5l0,0.2h-2.1v3.7
		c0,0.4,0.3,0.7,0.8,0.7c0.3,0,0.5,0,0.7-0.1l0.4-0.1l-0.4,1.7l-0.1,0c-0.2,0-0.4,0.1-0.7,0.1C45.8,56.6,45.2,56.4,44.8,56"/>
	<path class="st1" d="M52.3,56.6c-2.1,0-3.9-1.6-3.9-3.8s1.7-3.9,3.9-3.9c2.1,0,3.9,1.6,3.9,3.9C56.2,55,54.5,56.6,52.3,56.6
		 M48.8,52.8L48.8,52.8 M52.3,50.6c-1.1,0-2.1,0.9-2.1,2.2c0,1.3,1,2.2,2.1,2.2c1.1,0,2.1-0.9,2.1-2.2
		C54.4,51.4,53.4,50.6,52.3,50.6"/>
	<path class="st1" d="M72.3,56.4c-0.9,0-1.5-0.2-2-0.6l-0.3-1.1c0.6,0.5,1.4,0.9,2.2,0.9c0.8,0,1.4-0.4,1.4-1.1s-0.5-1.1-1.3-1.3
		c-1.3-0.5-2-1.1-2-2.1s0.9-1.8,2.1-1.8c0.7,0,1.4,0.3,1.7,0.4l-0.2,0.8c-0.3-0.2-0.9-0.4-1.5-0.4c-0.7,0-1.2,0.4-1.2,1
		s0.4,0.9,1.2,1.2c1.3,0.5,2.1,1.1,2.1,2.3C74.7,55.6,73.8,56.4,72.3,56.4"/>
	<path class="st1" d="M79.2,56.4c-2.1,0-3.7-1.5-3.7-3.6c0-2.1,1.6-3.6,3.7-3.6c2.1,0,3.6,1.5,3.6,3.6
		C82.8,54.9,81.2,56.4,79.2,56.4 M79.2,50c-1.5,0-2.7,1.1-2.7,2.8c0,1.6,1.2,2.8,2.7,2.8c1.5,0,2.7-1.1,2.7-2.8
		C81.8,51.2,80.6,50,79.2,50"/>
	<path class="st1" d="M89.6,50.5c-0.5-0.4-1.2-0.5-1.9-0.5c-1.6,0-2.8,1.1-2.8,2.8c0,1.6,1.2,2.8,2.8,2.8c0.7,0,1.3-0.2,2-0.5
		l-0.2,1c-0.5,0.3-1.2,0.4-1.9,0.4c-2,0-3.7-1.4-3.7-3.6s1.7-3.6,3.7-3.6c0.9,0,1.6,0.2,2.2,0.5L89.6,50.5z"/>
	<path class="st1" d="M91.8,48c-0.2,0-0.6-0.5-0.6-0.7c0-0.3,0.4-0.7,0.6-0.7c0.2,0,0.7,0.5,0.7,0.7C92.5,47.5,92.1,48,91.8,48
		 M91.3,49.3h1v7h-1V49.3z"/>
	<path class="st1" d="M99.1,56.4c-0.5-0.1-0.9-0.5-1.1-1.1c-0.4,0.6-1.2,1.1-2,1.1c-1.3,0-2.2-0.9-2.2-2c0-1.4,1.1-2,2.2-2.1
		l1.9-0.2v-0.7c0-0.9-0.6-1.4-1.6-1.4c-0.7,0-1.4,0.2-1.8,0.5l-0.2-0.8c0.5-0.4,1.3-0.5,2.1-0.5c1.5,0,2.6,0.8,2.6,2.3v3.2
		c0,0.7,0.4,1.1,0.9,1.1L99.1,56.4z M97.9,52.8L96.2,53c-0.9,0.1-1.4,0.6-1.4,1.4c0,0.7,0.6,1.2,1.3,1.2c0.8,0,1.8-0.7,1.8-1.8V52.8
		z"/>
	<path class="st1" d="M102.3,56.5c-0.5-0.2-1.2-0.6-1.2-1.8v-9.4h1v9.3c0,0.7,0.4,1.1,0.9,1.2L102.3,56.5z"/>
	<path class="st0" d="M114.3,56.4h-0.2v-5c0-0.6-0.4-0.9-1.3-0.9c-0.9,0-1.3,0.5-1.3,0.9v5h-1.8v-5c0-0.5-0.4-0.9-1.3-0.9
		c-0.9,0-1.3,0.5-1.3,0.9v5h-1.8v-7.3h1.6l0,0.4c0.5-0.4,1.1-0.6,2-0.6c0.8,0,1.5,0.4,2,0.9c0.5-0.5,1.3-0.9,2.5-0.9
		c1.5,0,2.7,1,2.7,2.4v5.1L114.3,56.4"/>
	<path class="st0" d="M128.4,56.4h-0.1l-1-1.7c-0.1-0.2-0.2-0.3-0.3-0.5c-0.1,0.2-0.2,0.4-0.3,0.5l-1,1.7h-2l2.3-3.7l-2.2-3.6h2
		l0.9,1.6c0.1,0.2,0.2,0.3,0.3,0.5c0.1-0.2,0.2-0.3,0.3-0.5l0.9-1.6h2l-2.1,3.6l2.3,3.7L128.4,56.4"/>
	<path class="st0" d="M131.6,56.4h-0.2v-7.3h1.8v7.3L131.6,56.4 M132.3,48.2c-0.3,0-0.5-0.2-0.7-0.4c-0.2-0.2-0.4-0.4-0.4-0.7
		c0-0.3,0.2-0.5,0.4-0.7c0.2-0.2,0.4-0.4,0.7-0.4c0.3,0,0.5,0.2,0.7,0.4c0.2,0.2,0.4,0.4,0.4,0.7c0,0.3-0.2,0.5-0.4,0.7
		C132.8,48,132.6,48.2,132.3,48.2"/>
	<path class="st0" d="M134.4,52.8c0-2.4,2-3.9,4-3.9c0.9,0,1.7,0.2,2.3,0.5l0.1,0.1l-0.3,1.4l-0.1,0.3l-0.2-0.2
		c-0.6-0.4-1.1-0.5-1.8-0.5c-1.2,0-2.3,0.8-2.3,2.2c0,1.4,1.1,2.2,2.3,2.2c0.6,0,1.1-0.1,1.9-0.5l0.4-0.2l-0.4,1.9l-0.1,0
		c-0.5,0.2-1.2,0.4-1.9,0.4C136.3,56.6,134.4,55.2,134.4,52.8"/>
	<path class="st0" d="M145.1,56.6c-2.1,0-3.9-1.6-3.9-3.8s1.7-3.9,3.9-3.9c2.1,0,3.9,1.6,3.9,3.9C149,55,147.3,56.6,145.1,56.6
		 M145.1,50.6c-1.1,0-2.1,0.9-2.1,2.2c0,1.3,1,2.2,2.1,2.2s2.1-0.9,2.1-2.2C147.2,51.4,146.2,50.6,145.1,50.6"/>
	<path class="st1" d="M68.4,55.3c-0.4-0.1-0.6-0.3-0.6-0.9v-2.8c0-0.9-0.3-1.6-0.8-2c-0.5-0.5-1.2-0.7-2-0.7c-0.6,0-1.2,0.1-1.7,0.3
		l-0.5,2l0,0l0.2-0.2c0.5-0.3,1.2-0.5,1.8-0.5c0.9,0,1.1,0.4,1.1,0.9v0.3l-1.4,0.2C63.2,52,62,52.8,62,54.3c0,1.2,0.9,2.3,2.4,2.3
		c0.7,0,1.4-0.2,1.9-0.7c0.2,0.4,0.6,0.6,1,0.7l0.1,0l0.1-0.1l1.2-1.2L68.4,55.3z M66,53.7c0,0.4-0.2,0.7-0.5,1
		c-0.3,0.2-0.6,0.4-0.9,0.4c-0.4,0-0.8-0.4-0.8-0.7c0-0.4,0.3-0.9,1-0.9l1.2-0.1L66,53.7L66,53.7z"/>
	<path class="st0" d="M120.4,50.3c-0.9,0-1.8,0.7-2,1.6h3.5c0-0.1,0-0.1,0-0.2C121.9,51.1,121.4,50.3,120.4,50.3 M120.6,56.6
		c-2.1,0-3.9-1.6-3.9-3.8c0-2.5,2-3.9,3.6-3.9c2,0,3.2,1.4,3.2,2.9c0,0.2,0,0.4,0,0.6v0.1l-0.9,0.9h-4c0.2,0.7,0.9,1.7,2.2,1.7
		c0.9,0,1.5-0.2,2.1-0.7l0.4-0.3l-0.5,2.1l-0.1,0C122.3,56.4,121.6,56.6,120.6,56.6L120.6,56.6L120.6,56.6z"/>
	<path class="st0" d="M121.9,47.9l0.4-1.4h-0.8c-1,0-2,0.2-2.6,0.9l-0.1,0.5C118.8,47.9,121.9,47.9,121.9,47.9z"/>
	<path class="st0" d="M60.2,14.2c0,1.9-1.6,3.5-3.5,3.5c-1.9,0-3.5-1.6-3.5-3.5s1.6-3.5,3.5-3.5C58.6,10.7,60.2,12.3,60.2,14.2"/>
	<path class="st2" d="M51.5,27.3v4.1l0,0c0,3.3-2.6,6.1-5.9,6.2h-0.3c0,0-0.1,0-0.1,0l0,0v4.2l0,0c5.7,0,10.3-4.6,10.4-10.3l0,0V26
		C54.2,26.2,52.8,26.6,51.5,27.3"/>
	<path class="st1" d="M67.8,37c0-5.7-4.4-10.5-10-11v4.1c3.4,0.5,5.9,3.4,5.9,6.8v4.7h4.1V37z"/>
	<path class="st1" d="M27.8,32.4L27.8,32.4c0,3-2.3,5.4-5.3,5.6h-0.2c0,0-0.1,0-0.1,0l0,0v3.7l0,0c5.2,0,9.3-4.1,9.4-9.3l0,0v-4.9
		c-1.4,0.1-2.6,0.5-3.7,1.1V32.4z"/>
	<path class="st3" d="M33.4,27.6v3.7c3,0.4,5.3,3,5.3,6.1v4.2h3.7v-4.2C42.4,32.3,38.4,28.1,33.4,27.6"/>
	<path class="st4" d="M35.6,16.9c0-1.7-1.4-3.1-3.1-3.1c-1.7,0-3.1,1.4-3.1,3.1s1.4,3.1,3.1,3.1C34.2,20,35.6,18.7,35.6,16.9"/>
	<path class="st0" d="M11.5,29v3.4c2.7,0.4,4.8,2.7,4.8,5.5v3.8h3.3V38C19.6,33.2,16.1,29.4,11.5,29"/>
	<path class="st2" d="M13.5,19.4c0-1.6-1.2-2.8-2.8-2.8s-2.8,1.2-2.8,2.8c0,1.6,1.2,2.8,2.8,2.8S13.5,21,13.5,19.4"/>
	<path class="st2" d="M18.5,30.7h4.3c2-2.8,5.2-4.7,8.7-5V22C25.8,22.3,20.9,25.8,18.5,30.7"/>
	<path class="st4" d="M22.7,30.7c-2.3-3.8-6.4-6.4-11.2-6.7v3.4c2.8,0.2,5.2,1.5,7,3.4L22.7,30.7L22.7,30.7z"/>
	<path class="st3" d="M9.9,29c-1.2,0-2.3-0.2-3.4-0.6v4.9l0,0c0,2.7-2.1,4.9-4.8,5.1H1.5c0,0-0.1,0-0.1,0l0,0v3.4l0,0
		c4.6,0,8.4-3.7,8.5-8.4l0,0L9.9,29L9.9,29"/>
	<path class="st1" d="M9.9,24C7.2,24,5,21.8,5,19.1c0-0.1,0-0.2,0-0.4H1.6c0,0.1,0,0.2,0,0.4c0,4.6,3.7,8.3,8.3,8.3h0L9.9,24
		C9.9,24,9.9,24,9.9,24"/>
	<path class="st4" d="M41.2,29.5H46c2.2-3.1,5.7-5.2,9.7-5.5v-4.1C49.3,20.2,43.8,24,41.2,29.5"/>
	<path class="st0" d="M45.8,29.5c-2.6-4.3-7.1-7.2-12.4-7.5v3.7c3,0.2,5.8,1.6,7.8,3.7H45.8z"/>
	<path class="st3" d="M63.6,12.5c0,0.3,0.1,0.7,0.1,1c0,3.4-2.7,6.1-6,6.3V24c5.7-0.1,10.2-4.8,10.2-10.5c0-0.3,0-0.7,0-1
		C67.9,12.5,63.6,12.5,63.6,12.5z"/>
</g>
</svg>
