<?xml version="1.0" encoding="utf-8"?>
<!-- Generator: Adobe Illustrator 22.0.1, SVG Export Plug-In . SVG Version: 6.00 Build 0)  -->
<svg version="1.1" id="logo_Oaxacanita" xmlns="http://www.w3.org/2000/svg" xmlns:xlink="http://www.w3.org/1999/xlink" x="0px"
	 y="0px" viewBox="0 0 150 80" style="enable-background:new 0 0 150 80;" xml:space="preserve">
<style type="text/css">
	.st0{fill:#DA3829;}
	.st1{clip-path:url(#SVGID_2_);}
	.st2{fill:#DCAE76;}
	.st3{fill:#E2BD92;}
	.st4{fill:#F29100;}
</style>
<g>
	<g>
		<g>
			<g>
				<path class="st0" d="M4.9,36.5c-0.1-0.2-0.1-0.3-0.1-0.5c0-0.1,0-0.3,0-0.4c0-0.2,0-0.4,0.1-0.7c0-0.3,0.1-0.6,0.3-0.8
					c0.1-0.3,0.3-0.5,0.5-0.8s0.4-0.5,0.7-0.7C6.7,32.4,7,32.2,7.3,32c0.7-0.4,1.6-0.5,2.6-0.5c2.1,0,3.8,0.7,5.1,2.1s2,3.2,2,5.3
					c0,2.2-0.8,3.9-2.3,5.4c-1.6,1.4-3.5,2.1-5.9,2.1s-4.4-0.7-5.9-2.1c-1.6-1.4-2.4-3.3-2.4-5.5c0-1.5,0.3-2.8,1-3.9
					c0.7-1.1,1.7-2,2.9-2.7l0.1,0.2C3.6,33,3,33.8,2.6,34.9S2,37.2,2,38.4c0,2.3,0.6,4.1,1.9,5.4c1.3,1.3,2.9,1.9,4.8,1.9
					s3.6-0.7,4.8-2s1.9-3,1.9-5.1c0-1.8-0.5-3.4-1.5-4.7S11.5,32,9.7,32c-0.8,0-1.5,0.1-2.2,0.4c-1.2,0.5-2,1.3-2.4,2.5
					c-0.1,0.3-0.2,0.6-0.2,0.9C4.9,36,4.9,36.2,4.9,36.5L4.9,36.5z"/>
			</g>
			<g>
				<path class="st0" d="M20.7,31c0.9-0.4,1.7-0.6,2.6-0.6c0.7,0,1.4,0.3,2.1,0.8c0.4,0.3,0.8,0.8,1.3,1.6c0.3,0.5,0.7,1.5,1.2,3
					l2.5,7.1c0.6,1.6,1.2,2.8,1.7,3.8c0.6,0.9,1.1,1.6,1.6,2.1s1,0.8,1.5,1s1,0.3,1.3,0.3s0.7,0,0.9-0.1v0.2
					c-0.7,0.2-1.3,0.3-1.9,0.3c-0.6,0-1.3-0.2-1.9-0.5c-0.6-0.3-1.2-0.8-1.8-1.3c-1.2-1.2-2.2-3-3-5.4L28,41h-5.6L21,44.6
					c-0.1,0.2-0.1,0.3-0.1,0.5s0.1,0.3,0.2,0.5s0.4,0.3,0.7,0.3H22V46h-4.1v-0.2h0.2c0.3,0,0.6-0.1,1-0.3c0.3-0.2,0.6-0.5,0.8-0.9
					L25,32.5c-0.7-1-1.6-1.6-2.7-1.6c-0.5,0-1,0.1-1.6,0.3L20.7,31z M22.9,40.3h5.2l-1.6-4.8c-0.3-0.9-0.6-1.6-0.9-2.1L22.9,40.3z"
					/>
			</g>
			<g>
				<path class="st0" d="M46.3,45.8h0.3V46h-5v-0.2h0.2c0.3,0,0.5-0.1,0.7-0.4c0.1-0.1,0.1-0.3,0.1-0.4c0-0.1,0-0.3-0.1-0.4l-3.1-5
					l-3.9,5.8c-1,1.4-1.9,2.4-2.9,3c-0.8,0.5-1.6,0.7-2.6,0.7c-0.2,0-0.5,0-0.7,0v-0.2c1,0,1.8-0.4,2.6-1.1c0.7-0.6,1.3-1.3,1.9-2.2
					c0.1-0.1,0.3-0.4,0.6-0.8l4.3-6.1l-3.5-5.5c-0.3-0.5-0.7-0.8-1.2-1c-0.3-0.1-0.5-0.2-0.8-0.2H33v-0.2h4.9V32h-0.2
					c-0.2,0-0.3,0.1-0.5,0.2c-0.3,0.3-0.4,0.6-0.2,1l2.8,4.3l3.9-5.6c0.9-1.3,1.8-2.2,2.6-2.7s1.7-0.8,2.6-0.8c0.2,0,0.4,0,0.5,0
					v0.2c-0.7,0-1.2,0.2-1.7,0.5c-0.3,0.2-0.5,0.4-0.7,0.5s-0.4,0.4-0.7,0.7c-0.3,0.3-0.4,0.5-0.6,0.7c-0.1,0.1-0.3,0.4-0.6,0.7
					s-0.4,0.6-0.5,0.6l-4.4,6.1l3.9,6.2c0.2,0.3,0.5,0.6,0.9,0.8C45.5,45.7,45.9,45.8,46.3,45.8z"/>
			</g>
			<g>
				<path class="st0" d="M48.8,31c0.9-0.4,1.7-0.6,2.6-0.6c0.7,0,1.4,0.3,2.1,0.8c0.4,0.3,0.8,0.8,1.3,1.6c0.3,0.5,0.7,1.5,1.2,3
					l2.5,7.1c0.6,1.6,1.2,2.8,1.7,3.8c0.6,0.9,1.1,1.6,1.6,2.1s1,0.8,1.5,1s1,0.3,1.3,0.3s0.7,0,0.9-0.1v0.2
					c-0.7,0.2-1.3,0.3-1.9,0.3s-1.3-0.2-1.9-0.5c-0.6-0.3-1.2-0.8-1.8-1.3c-1.2-1.2-2.2-3-3-5.4L56.1,41h-5.6l-1.4,3.6
					C49,44.8,49,44.9,49,45.1s0.1,0.3,0.2,0.5c0.1,0.2,0.4,0.3,0.7,0.3h0.2V46H46v-0.2h0.2c0.3,0,0.6-0.1,1-0.3
					c0.3-0.2,0.6-0.5,0.8-0.9l5.1-12.1c-0.7-1-1.6-1.6-2.7-1.6c-0.5,0-1,0.1-1.6,0.3V31z M51,40.3h5.2l-1.6-4.8
					c-0.3-0.9-0.6-1.6-0.9-2.1L51,40.3z"/>
			</g>
			<g>
				<path class="st0" d="M77.2,38.8c0,2.3-0.6,4.2-1.9,5.5s-3,2-5.3,2c-1.6,0-3-0.3-4.2-1s-2.2-1.5-2.9-2.7c-0.7-1.1-1-2.4-1-3.8
					c0-1.4,0.3-2.7,1-3.8s1.6-2,2.8-2.7c1.2-0.6,2.5-1,4-1c0.9,0,1.9,0.1,2.8,0.4c1,0.3,1.8,0.6,2.4,1l0.4,2.9h-0.2
					c-0.3-1.1-0.9-2-2-2.7c-1-0.6-2.2-1-3.5-1c-1.8,0-3.3,0.6-4.5,1.9c-1.2,1.3-1.8,2.9-1.8,4.9c0,1.9,0.6,3.6,1.9,4.9
					c1.2,1.3,2.9,2,4.9,2s3.7-0.7,4.9-2c1.3-1.3,1.9-3.1,1.9-5.4h0.2C77.2,38.5,77.2,38.7,77.2,38.8z"/>
			</g>
			<g>
				<path class="st0" d="M80.2,31c0.9-0.4,1.7-0.6,2.6-0.6c0.7,0,1.4,0.3,2.1,0.8c0.4,0.3,0.8,0.8,1.3,1.6c0.3,0.5,0.7,1.5,1.2,3
					l2.5,7.1c0.6,1.6,1.2,2.8,1.7,3.8c0.6,0.9,1.1,1.6,1.6,2.1s1,0.8,1.5,1s1,0.3,1.3,0.3s0.7,0,0.9-0.1v0.2
					c-0.7,0.2-1.3,0.3-1.9,0.3s-1.3-0.2-1.9-0.5s-1.2-0.8-1.8-1.3c-1.2-1.2-2.2-3-3-5.4L87.5,41h-5.6l-1.4,3.6
					c-0.1,0.2-0.1,0.3-0.1,0.5s0.1,0.3,0.2,0.5s0.4,0.3,0.7,0.3h0.2V46h-4.1v-0.2h0.2c0.3,0,0.6-0.1,1-0.3c0.3-0.2,0.6-0.5,0.8-0.9
					l5.1-12.1c-0.7-1-1.6-1.6-2.7-1.6c-0.5,0-1,0.1-1.6,0.3V31z M82.3,40.3h5.2l-1.6-4.8c-0.3-0.9-0.6-1.6-0.9-2.1L82.3,40.3z"/>
			</g>
			<g>
				<path class="st0" d="M113.9,49.1c-1.1,0.3-2.1,0.4-2.9,0.2c-0.9-0.2-1.7-0.6-2.4-1.1c-0.6-0.5-1.3-1.1-2-1.9l-10.8-12v10.2
					c0,0.5,0.2,0.8,0.6,1.1c0.2,0.1,0.4,0.2,0.6,0.2h0.4V46h-4.2v-0.2h0.4c0.3,0,0.6-0.1,0.9-0.4c0.2-0.2,0.4-0.5,0.4-0.9V33.3
					c-0.1-0.1-0.2-0.3-0.4-0.5c-0.2-0.3-0.4-0.5-0.5-0.6c-0.1-0.2-0.3-0.4-0.6-0.6c-0.2-0.3-0.4-0.5-0.6-0.6
					c-0.2-0.2-0.4-0.4-0.7-0.6c-0.4-0.3-0.8-0.5-1.3-0.7c-0.5-0.1-0.9-0.2-1.2-0.2c-0.3,0-0.7,0.1-1,0.2l-0.1-0.2
					c0.7-0.3,1.3-0.4,1.9-0.4s1.1,0.1,1.6,0.2c0.4,0.1,0.9,0.4,1.4,0.8s0.9,0.7,1.2,1c0.3,0.3,0.7,0.7,1.2,1.2L106,43.6V33.1
					c0-0.4-0.1-0.7-0.4-0.9c-0.2-0.2-0.5-0.4-0.9-0.4h-0.4v-0.2h4.2v0.2h-0.4c-0.3,0-0.6,0.1-0.9,0.4c-0.2,0.2-0.4,0.5-0.4,0.9v11.6
					c0.1,0.2,0.3,0.4,0.6,0.7c0.3,0.3,0.4,0.5,0.5,0.6s0.3,0.3,0.5,0.5s0.4,0.4,0.5,0.5s0.3,0.3,0.5,0.5s0.4,0.4,0.6,0.5
					s0.4,0.2,0.6,0.4c0.3,0.2,0.7,0.3,1.1,0.4c0.4,0.1,0.8,0.1,1,0.1c0.3,0,0.5,0,0.8-0.1L113.9,49.1z"/>
			</g>
			<g>
				<path class="st0" d="M116.1,45.8h0.3V46h-4.5v-0.2h0.3c0.4,0,0.7-0.1,0.9-0.4c0.3-0.3,0.4-0.6,0.4-0.9V32.2l-2.2,0.1
					c-1.4,0.1-2.1,0.6-2.1,1.5c0,0.4,0.1,0.7,0.4,0.9c0.2,0.3,0.6,0.4,1.1,0.4v0.1c-0.2,0-0.4,0.1-0.6,0.1c-0.6,0-1-0.2-1.3-0.7
					c-0.2-0.3-0.3-0.6-0.3-0.9c0-1.2,0.9-1.8,2.6-2c0,0,0.7,0,2-0.1s2.4-0.2,3.2-0.4v0.2c-0.6,0.1-1,0.3-1.2,0.6s-0.4,0.7-0.4,1.2
					v11.2c0,0.4,0.1,0.7,0.4,0.9C115.4,45.7,115.7,45.8,116.1,45.8z"/>
			</g>
			<g>
				<path class="st0" d="M116.3,35.8c-0.4-0.5-0.6-1-0.6-1.5s0.1-0.9,0.3-1.3c0.2-0.4,0.6-0.7,1.1-0.9c0.5-0.3,1.1-0.4,1.8-0.4h8.4
					c0.4,0,0.9,0,1.4-0.1s0.9-0.2,1.1-0.2V34h-0.2v-0.3c0-0.3-0.1-0.6-0.3-0.8s-0.5-0.4-0.8-0.4h-3.9v12.2c0,0.5,0.2,0.9,0.7,1.1
					c0.2,0.1,0.4,0.2,0.7,0.2h0.3l0,0h-4.5v-0.2h0.3c0.4,0,0.7-0.1,0.9-0.4c0.3-0.2,0.4-0.5,0.4-0.9V32.3h-4.3c-1.1,0-1.9,0.3-2.4,1
					c-0.3,0.4-0.4,0.7-0.4,1.1c0,0.4,0.1,0.8,0.3,1.2L116.3,35.8z"/>
			</g>
			<g>
				<path class="st0" d="M132.6,31c0.9-0.4,1.7-0.6,2.6-0.6c0.7,0,1.4,0.3,2.1,0.8c0.4,0.3,0.8,0.8,1.3,1.6c0.3,0.5,0.7,1.5,1.2,3
					l2.5,7.1c0.6,1.6,1.2,2.8,1.7,3.8c0.6,0.9,1.1,1.6,1.6,2.1s1,0.8,1.5,1s1,0.3,1.3,0.3s0.7,0,0.9-0.1v0.2
					c-0.7,0.2-1.3,0.3-1.9,0.3c-0.6,0-1.3-0.2-1.9-0.5c-0.6-0.3-1.2-0.8-1.8-1.3c-1.2-1.2-2.2-3-3-5.4l-0.8-2.3h-5.6l-1.4,3.6
					c-0.1,0.2-0.1,0.3-0.1,0.5s0.1,0.3,0.2,0.5c0.1,0.2,0.4,0.3,0.7,0.3h0.2V46H130v-0.2h0.2c0.3,0,0.6-0.1,1-0.3
					c0.3-0.2,0.6-0.5,0.8-0.9l5.1-12.1c-0.7-1-1.6-1.6-2.7-1.6c-0.5,0-1,0.1-1.6,0.3L132.6,31z M134.8,40.3h5.2l-1.6-4.8
					c-0.3-0.9-0.6-1.6-0.9-2.1L134.8,40.3z"/>
			</g>
		</g>
		<g>
			<g>
				<g>
					<defs>
						<rect id="SVGID_1_" x="0.5" y="19.1" width="143.4" height="20.8"/>
					</defs>
					<clipPath id="SVGID_2_">
						<use xlink:href="#SVGID_1_"  style="overflow:visible;"/>
					</clipPath>
					<g class="st1">
						<g>
							<path class="st2" d="M4.9,36.5c-0.1-0.2-0.1-0.3-0.1-0.5c0-0.1,0-0.3,0-0.4c0-0.2,0-0.4,0.1-0.7c0-0.3,0.1-0.6,0.3-0.8
								c0.1-0.3,0.3-0.5,0.5-0.8s0.4-0.5,0.7-0.7C6.7,32.4,7,32.2,7.3,32c0.7-0.4,1.6-0.5,2.6-0.5c2.1,0,3.8,0.7,5.1,2.1
								s2,3.2,2,5.3c0,2.2-0.8,3.9-2.3,5.4c-1.6,1.4-3.5,2.1-5.9,2.1s-4.4-0.7-5.9-2.1c-1.6-1.4-2.4-3.3-2.4-5.5
								c0-1.5,0.3-2.8,1-3.9c0.7-1.1,1.7-2,2.9-2.7l0.1,0.2C3.6,33,3,33.8,2.6,34.9S2,37.2,2,38.4c0,2.3,0.6,4.1,1.9,5.4
								c1.3,1.3,2.9,1.9,4.8,1.9s3.6-0.7,4.8-2s1.9-3,1.9-5.1c0-1.8-0.5-3.4-1.5-4.7S11.5,32,9.7,32c-0.8,0-1.5,0.1-2.2,0.4
								c-1.2,0.5-2,1.3-2.4,2.5c-0.1,0.3-0.2,0.6-0.2,0.9S4.9,36.2,4.9,36.5L4.9,36.5z"/>
						</g>
						<g>
							<path class="st2" d="M20.7,31c0.9-0.4,1.7-0.6,2.6-0.6c0.7,0,1.4,0.3,2.1,0.8c0.4,0.3,0.8,0.8,1.3,1.6c0.3,0.5,0.7,1.5,1.2,3
								l2.5,7.1c0.6,1.6,1.2,2.8,1.7,3.8c0.6,0.9,1.1,1.6,1.6,2.1s1,0.8,1.5,1s1,0.3,1.3,0.3s0.7,0,0.9-0.1v0.2
								c-0.7,0.2-1.3,0.3-1.9,0.3c-0.6,0-1.3-0.2-1.9-0.5c-0.6-0.3-1.2-0.8-1.8-1.3c-1.2-1.2-2.2-3-3-5.4L28,41h-5.6L21,44.6
								c-0.1,0.2-0.1,0.3-0.1,0.5s0.1,0.3,0.2,0.5s0.4,0.3,0.7,0.3H22V46h-4.1v-0.2h0.2c0.3,0,0.6-0.1,1-0.3
								c0.3-0.2,0.6-0.5,0.8-0.9L25,32.5c-0.7-1-1.6-1.6-2.7-1.6c-0.5,0-1,0.1-1.6,0.3L20.7,31z M22.9,40.3h5.2l-1.6-4.8
								c-0.3-0.9-0.6-1.6-0.9-2.1L22.9,40.3z"/>
						</g>
						<g>
							<path class="st2" d="M46.3,45.8h0.3V46h-5v-0.2h0.2c0.3,0,0.5-0.1,0.7-0.4c0.1-0.1,0.1-0.3,0.1-0.4c0-0.1,0-0.3-0.1-0.4
								l-3.1-5l-3.9,5.8c-1,1.4-1.9,2.4-2.9,3c-0.8,0.5-1.6,0.7-2.6,0.7c-0.2,0-0.5,0-0.7,0v-0.2c1,0,1.8-0.4,2.6-1.1
								c0.7-0.6,1.3-1.3,1.9-2.2c0.1-0.1,0.3-0.4,0.6-0.8l4.3-6.1l-3.5-5.5c-0.3-0.5-0.7-0.8-1.2-1c-0.3-0.1-0.5-0.2-0.8-0.2H33
								v-0.2h4.9V32h-0.2c-0.2,0-0.3,0.1-0.5,0.2c-0.3,0.3-0.4,0.6-0.2,1l2.8,4.3l3.9-5.6c0.9-1.3,1.8-2.2,2.6-2.7s1.7-0.8,2.6-0.8
								c0.2,0,0.4,0,0.5,0v0.2c-0.7,0-1.2,0.2-1.7,0.5c-0.3,0.2-0.5,0.4-0.7,0.5s-0.4,0.4-0.7,0.7c-0.3,0.3-0.4,0.5-0.6,0.7
								c-0.1,0.1-0.3,0.4-0.6,0.7s-0.4,0.6-0.5,0.6l-4.4,6.1l3.9,6.2c0.2,0.3,0.5,0.6,0.9,0.8C45.5,45.7,45.9,45.8,46.3,45.8z"/>
						</g>
						<g>
							<path class="st2" d="M48.8,31c0.9-0.4,1.7-0.6,2.6-0.6c0.7,0,1.4,0.3,2.1,0.8c0.4,0.3,0.8,0.8,1.3,1.6c0.3,0.5,0.7,1.5,1.2,3
								l2.5,7.1c0.6,1.6,1.2,2.8,1.7,3.8c0.6,0.9,1.1,1.6,1.6,2.1s1,0.8,1.5,1s1,0.3,1.3,0.3s0.7,0,0.9-0.1v0.2
								c-0.7,0.2-1.3,0.3-1.9,0.3s-1.3-0.2-1.9-0.5c-0.6-0.3-1.2-0.8-1.8-1.3c-1.2-1.2-2.2-3-3-5.4L56.1,41h-5.6l-1.4,3.6
								C49,44.8,49,44.9,49,45.1s0.1,0.3,0.2,0.5c0.1,0.2,0.4,0.3,0.7,0.3h0.2V46H46v-0.2h0.2c0.3,0,0.6-0.1,1-0.3
								c0.3-0.2,0.6-0.5,0.8-0.9l5.1-12.1c-0.7-1-1.6-1.6-2.7-1.6c-0.5,0-1,0.1-1.6,0.3V31z M51,40.3h5.2l-1.6-4.8
								c-0.3-0.9-0.6-1.6-0.9-2.1L51,40.3z"/>
						</g>
						<g>
							<path class="st2" d="M77.2,38.8c0,2.3-0.6,4.2-1.9,5.5s-3,2-5.3,2c-1.6,0-3-0.3-4.2-1s-2.2-1.5-2.9-2.7c-0.7-1.1-1-2.4-1-3.8
								c0-1.4,0.3-2.7,1-3.8s1.6-2,2.8-2.7c1.2-0.6,2.5-1,4-1c0.9,0,1.9,0.1,2.8,0.4c1,0.3,1.8,0.6,2.4,1l0.4,2.9h-0.2
								c-0.3-1.1-0.9-2-2-2.7c-1-0.6-2.2-1-3.5-1c-1.8,0-3.3,0.6-4.5,1.9c-1.2,1.3-1.8,2.9-1.8,4.9c0,1.9,0.6,3.6,1.9,4.9
								c1.2,1.3,2.9,2,4.9,2s3.7-0.7,4.9-2c1.3-1.3,1.9-3.1,1.9-5.4h0.2C77.2,38.5,77.2,38.7,77.2,38.8z"/>
						</g>
						<g>
							<path class="st2" d="M80.2,31c0.9-0.4,1.7-0.6,2.6-0.6c0.7,0,1.4,0.3,2.1,0.8c0.4,0.3,0.8,0.8,1.3,1.6c0.3,0.5,0.7,1.5,1.2,3
								l2.5,7.1c0.6,1.6,1.2,2.8,1.7,3.8c0.6,0.9,1.1,1.6,1.6,2.1s1,0.8,1.5,1s1,0.3,1.3,0.3s0.7,0,0.9-0.1v0.2
								c-0.7,0.2-1.3,0.3-1.9,0.3s-1.3-0.2-1.9-0.5s-1.2-0.8-1.8-1.3c-1.2-1.2-2.2-3-3-5.4L87.5,41h-5.6l-1.4,3.6
								c-0.1,0.2-0.1,0.3-0.1,0.5s0.1,0.3,0.2,0.5s0.4,0.3,0.7,0.3h0.2V46h-4.1v-0.2h0.2c0.3,0,0.6-0.1,1-0.3
								c0.3-0.2,0.6-0.5,0.8-0.9l5.1-12.1c-0.7-1-1.6-1.6-2.7-1.6c-0.5,0-1,0.1-1.6,0.3V31z M82.3,40.3h5.2l-1.6-4.8
								c-0.3-0.9-0.6-1.6-0.9-2.1L82.3,40.3z"/>
						</g>
						<g>
							<path class="st2" d="M113.9,49.1c-1.1,0.3-2.1,0.4-2.9,0.2c-0.9-0.2-1.7-0.6-2.4-1.1c-0.6-0.5-1.3-1.1-2-1.9l-10.8-12v10.2
								c0,0.5,0.2,0.8,0.6,1.1c0.2,0.1,0.4,0.2,0.6,0.2h0.4V46h-4.2v-0.2h0.4c0.3,0,0.6-0.1,0.9-0.4c0.2-0.2,0.4-0.5,0.4-0.9V33.3
								c-0.1-0.1-0.2-0.3-0.4-0.5c-0.2-0.3-0.4-0.5-0.5-0.6c-0.1-0.2-0.3-0.4-0.6-0.6c-0.2-0.3-0.4-0.5-0.6-0.6
								c-0.2-0.2-0.4-0.4-0.7-0.6c-0.4-0.3-0.8-0.5-1.3-0.7c-0.5-0.1-0.9-0.2-1.2-0.2c-0.3,0-0.7,0.1-1,0.2l-0.1-0.2
								c0.7-0.3,1.3-0.4,1.9-0.4s1.1,0.1,1.6,0.2c0.4,0.1,0.9,0.4,1.4,0.8s0.9,0.7,1.2,1c0.3,0.3,0.7,0.7,1.2,1.2L106,43.6V33.1
								c0-0.4-0.1-0.7-0.4-0.9c-0.2-0.2-0.5-0.4-0.9-0.4h-0.4v-0.2h4.2v0.2h-0.4c-0.3,0-0.6,0.1-0.9,0.4c-0.2,0.2-0.4,0.5-0.4,0.9
								v11.6c0.1,0.2,0.3,0.4,0.6,0.7c0.3,0.3,0.4,0.5,0.5,0.6s0.3,0.3,0.5,0.5s0.4,0.4,0.5,0.5s0.3,0.3,0.5,0.5s0.4,0.4,0.6,0.5
								s0.4,0.2,0.6,0.4c0.3,0.2,0.7,0.3,1.1,0.4c0.4,0.1,0.8,0.1,1,0.1c0.3,0,0.5,0,0.8-0.1L113.9,49.1z"/>
						</g>
						<g>
							<path class="st2" d="M116.1,45.8h0.3V46h-4.5v-0.2h0.3c0.4,0,0.7-0.1,0.9-0.4c0.3-0.3,0.4-0.6,0.4-0.9V32.2l-2.2,0.1
								c-1.4,0.1-2.1,0.6-2.1,1.5c0,0.4,0.1,0.7,0.4,0.9c0.2,0.3,0.6,0.4,1.1,0.4v0.1c-0.2,0-0.4,0.1-0.6,0.1c-0.6,0-1-0.2-1.3-0.7
								c-0.2-0.3-0.3-0.6-0.3-0.9c0-1.2,0.9-1.8,2.6-2c0,0,0.7,0,2-0.1s2.4-0.2,3.2-0.4v0.2c-0.6,0.1-1,0.3-1.2,0.6
								s-0.4,0.7-0.4,1.2v11.2c0,0.4,0.1,0.7,0.4,0.9C115.4,45.7,115.7,45.8,116.1,45.8z"/>
						</g>
						<g>
							<path class="st2" d="M116.3,35.8c-0.4-0.5-0.6-1-0.6-1.5s0.1-0.9,0.3-1.3c0.2-0.4,0.6-0.7,1.1-0.9c0.5-0.3,1.1-0.4,1.8-0.4
								h8.4c0.4,0,0.9,0,1.4-0.1s0.9-0.2,1.1-0.2V34h-0.2v-0.3c0-0.3-0.1-0.6-0.3-0.8s-0.5-0.4-0.8-0.4h-3.9v12.2
								c0,0.5,0.2,0.9,0.7,1.1c0.2,0.1,0.4,0.2,0.7,0.2h0.3l0,0h-4.5v-0.2h0.3c0.4,0,0.7-0.1,0.9-0.4c0.3-0.2,0.4-0.5,0.4-0.9V32.3
								h-4.3c-1.1,0-1.9,0.3-2.4,1c-0.3,0.4-0.4,0.7-0.4,1.1s0.1,0.8,0.3,1.2L116.3,35.8z"/>
						</g>
						<g>
							<path class="st2" d="M132.6,31c0.9-0.4,1.7-0.6,2.6-0.6c0.7,0,1.4,0.3,2.1,0.8c0.4,0.3,0.8,0.8,1.3,1.6
								c0.3,0.5,0.7,1.5,1.2,3l2.5,7.1c0.6,1.6,1.2,2.8,1.7,3.8c0.6,0.9,1.1,1.6,1.6,2.1s1,0.8,1.5,1s1,0.3,1.3,0.3s0.7,0,0.9-0.1
								v0.2c-0.7,0.2-1.3,0.3-1.9,0.3c-0.6,0-1.3-0.2-1.9-0.5c-0.6-0.3-1.2-0.8-1.8-1.3c-1.2-1.2-2.2-3-3-5.4l-0.8-2.3h-5.6
								l-1.4,3.6c-0.1,0.2-0.1,0.3-0.1,0.5s0.1,0.3,0.2,0.5c0.1,0.2,0.4,0.3,0.7,0.3h0.2V46H130v-0.2h0.2c0.3,0,0.6-0.1,1-0.3
								c0.3-0.2,0.6-0.5,0.8-0.9l5.1-12.1c-0.7-1-1.6-1.6-2.7-1.6c-0.5,0-1,0.1-1.6,0.3L132.6,31z M134.8,40.3h5.2l-1.6-4.8
								c-0.3-0.9-0.6-1.6-0.9-2.1L134.8,40.3z"/>
						</g>
					</g>
				</g>
			</g>
		</g>
	</g>
	<g>
		<g>
			<g>
				<g>
					<path class="st0" d="M37.9,57.4c0,0.8-0.6,1.4-1.4,1.4s-1.4-0.6-1.4-1.4c0-0.8,0.6-1.4,1.4-1.4S37.9,56.7,37.9,57.4z"/>
				</g>
				<g>
					<path class="st0" d="M111.7,57.4c0,0.8-0.6,1.4-1.4,1.4s-1.4-0.6-1.4-1.4c0-0.8,0.6-1.4,1.4-1.4S111.7,56.7,111.7,57.4z"/>
				</g>
			</g>
			<g>
				<path class="st3" d="M39.1,57.5c0-0.5,0.1-0.9,0.2-1.3c0.2-0.4,0.4-0.8,0.7-1.1c0.3-0.3,0.6-0.5,1-0.7c0.4-0.2,0.8-0.3,1.3-0.3
					c0.6,0,1.1,0.1,1.5,0.4c0.4,0.3,0.8,0.6,1,1.1l-0.4,0.2c-0.2-0.4-0.5-0.7-0.9-0.9c-0.4-0.2-0.8-0.3-1.3-0.3
					c-0.4,0-0.7,0.1-1.1,0.2c-0.3,0.2-0.6,0.4-0.9,0.6c-0.3,0.3-0.4,0.6-0.6,1c-0.1,0.4-0.2,0.8-0.2,1.2c0,0.4,0.1,0.8,0.2,1.2
					c0.1,0.4,0.4,0.7,0.6,1c0.3,0.3,0.5,0.5,0.9,0.7c0.3,0.2,0.7,0.2,1.1,0.2c0.2,0,0.5,0,0.7-0.1c0.2-0.1,0.5-0.2,0.7-0.3
					c0.2-0.1,0.4-0.3,0.5-0.4c0.1-0.2,0.3-0.3,0.3-0.5l0.4,0.1c-0.1,0.2-0.2,0.4-0.4,0.6c-0.2,0.2-0.4,0.4-0.6,0.5
					c-0.2,0.1-0.5,0.3-0.8,0.3C43,60.9,42.7,61,42.4,61c-0.5,0-0.9-0.1-1.3-0.3c-0.4-0.2-0.7-0.4-1-0.8c-0.3-0.3-0.5-0.7-0.7-1.1
					C39.2,58.4,39.1,57.9,39.1,57.5z"/>
				<path class="st3" d="M53.3,60.8h-0.4v-3.7c0-1.8-0.6-2.6-1.8-2.6c-0.3,0-0.6,0.1-0.9,0.2c-0.3,0.1-0.5,0.3-0.8,0.5
					c-0.2,0.2-0.4,0.4-0.6,0.7c-0.2,0.3-0.3,0.6-0.4,0.9v4.2H48v-9.4h0.4v4.4c0.1-0.3,0.3-0.5,0.5-0.7c0.2-0.2,0.4-0.4,0.7-0.6
					c0.2-0.2,0.5-0.3,0.8-0.4c0.3-0.1,0.5-0.1,0.8-0.1c0.7,0,1.3,0.3,1.6,0.8c0.3,0.5,0.5,1.3,0.5,2.2V60.8z"/>
				<path class="st3" d="M59.3,61c-0.5,0-0.9-0.1-1.3-0.3c-0.4-0.2-0.7-0.4-1-0.7c-0.3-0.3-0.5-0.7-0.7-1.1
					c-0.2-0.4-0.2-0.9-0.2-1.3c0-0.5,0.1-0.9,0.3-1.3c0.2-0.4,0.4-0.8,0.7-1.1c0.3-0.3,0.6-0.6,1-0.8c0.4-0.2,0.8-0.3,1.3-0.3
					c0.4,0,0.9,0.1,1.3,0.3c0.4,0.2,0.7,0.4,1,0.8c0.3,0.3,0.5,0.7,0.7,1.1c0.2,0.4,0.3,0.9,0.3,1.3c0,0.5-0.1,0.9-0.3,1.3
					c-0.2,0.4-0.4,0.8-0.7,1.1c-0.3,0.3-0.6,0.6-1,0.7C60.2,60.9,59.7,61,59.3,61z M56.5,57.5c0,0.4,0.1,0.8,0.2,1.2
					c0.1,0.4,0.3,0.7,0.6,1c0.2,0.3,0.5,0.5,0.9,0.6c0.3,0.2,0.7,0.2,1.1,0.2c0.4,0,0.7-0.1,1.1-0.2c0.3-0.2,0.6-0.4,0.9-0.7
					c0.3-0.3,0.5-0.6,0.6-1c0.1-0.4,0.2-0.8,0.2-1.2c0-0.4-0.1-0.8-0.2-1.2c-0.1-0.4-0.4-0.7-0.6-1c-0.3-0.3-0.5-0.5-0.9-0.7
					c-0.3-0.2-0.7-0.2-1.1-0.2c-0.4,0-0.7,0.1-1.1,0.2c-0.3,0.2-0.6,0.4-0.9,0.7c-0.3,0.3-0.5,0.6-0.6,1
					C56.6,56.7,56.5,57.1,56.5,57.5z"/>
				<path class="st3" d="M65.2,57.5c0-0.5,0.1-0.9,0.2-1.3c0.2-0.4,0.4-0.8,0.7-1.1c0.3-0.3,0.6-0.5,1-0.7c0.4-0.2,0.8-0.3,1.3-0.3
					c0.6,0,1.1,0.1,1.5,0.4c0.4,0.3,0.8,0.6,1,1.1l-0.4,0.2c-0.2-0.4-0.5-0.7-0.9-0.9c-0.4-0.2-0.8-0.3-1.3-0.3
					c-0.4,0-0.7,0.1-1.1,0.2c-0.3,0.2-0.6,0.4-0.9,0.6c-0.3,0.3-0.4,0.6-0.6,1c-0.1,0.4-0.2,0.8-0.2,1.2c0,0.4,0.1,0.8,0.2,1.2
					c0.1,0.4,0.4,0.7,0.6,1c0.3,0.3,0.5,0.5,0.9,0.7c0.3,0.2,0.7,0.2,1.1,0.2c0.2,0,0.5,0,0.7-0.1c0.2-0.1,0.5-0.2,0.7-0.3
					c0.2-0.1,0.4-0.3,0.5-0.4c0.1-0.2,0.3-0.3,0.3-0.5l0.4,0.1c-0.1,0.2-0.2,0.4-0.4,0.6c-0.2,0.2-0.4,0.4-0.6,0.5
					c-0.2,0.1-0.5,0.3-0.8,0.3C69,60.9,68.8,61,68.5,61c-0.5,0-0.9-0.1-1.3-0.3c-0.4-0.2-0.7-0.4-1-0.8c-0.3-0.3-0.5-0.7-0.7-1.1
					C65.3,58.4,65.2,57.9,65.2,57.5z"/>
				<path class="st3" d="M77.1,61c-0.5,0-0.9-0.1-1.3-0.3c-0.4-0.2-0.7-0.4-1-0.7c-0.3-0.3-0.5-0.7-0.7-1.1
					c-0.2-0.4-0.2-0.9-0.2-1.3c0-0.5,0.1-0.9,0.3-1.3c0.2-0.4,0.4-0.8,0.7-1.1c0.3-0.3,0.6-0.6,1-0.8c0.4-0.2,0.8-0.3,1.3-0.3
					c0.4,0,0.9,0.1,1.3,0.3c0.4,0.2,0.7,0.4,1,0.8c0.3,0.3,0.5,0.7,0.7,1.1c0.2,0.4,0.3,0.9,0.3,1.3c0,0.5-0.1,0.9-0.3,1.3
					c-0.2,0.4-0.4,0.8-0.7,1.1c-0.3,0.3-0.6,0.6-1,0.7C77.9,60.9,77.5,61,77.1,61z M74.3,57.5c0,0.4,0.1,0.8,0.2,1.2
					c0.1,0.4,0.3,0.7,0.6,1c0.2,0.3,0.5,0.5,0.9,0.6c0.3,0.2,0.7,0.2,1.1,0.2c0.4,0,0.7-0.1,1.1-0.2c0.3-0.2,0.6-0.4,0.9-0.7
					c0.3-0.3,0.5-0.6,0.6-1c0.1-0.4,0.2-0.8,0.2-1.2c0-0.4-0.1-0.8-0.2-1.2c-0.1-0.4-0.4-0.7-0.6-1c-0.3-0.3-0.5-0.5-0.9-0.7
					c-0.3-0.2-0.7-0.2-1.1-0.2c-0.4,0-0.7,0.1-1.1,0.2c-0.3,0.2-0.6,0.4-0.9,0.7c-0.3,0.3-0.5,0.6-0.6,1
					C74.4,56.7,74.3,57.1,74.3,57.5z"/>
				<path class="st3" d="M83.4,51.4h0.4v8.2c0,0.2,0.1,0.4,0.2,0.6c0.2,0.1,0.4,0.2,0.6,0.2c0.1,0,0.2,0,0.3,0
					c0.1,0,0.3-0.1,0.4-0.1l0.1,0.4c-0.1,0-0.3,0.1-0.5,0.1c-0.2,0-0.4,0.1-0.5,0.1c-0.3,0-0.6-0.1-0.8-0.3
					c-0.2-0.2-0.3-0.5-0.3-0.8V51.4z"/>
				<path class="st3" d="M89.9,61c-0.3,0-0.6-0.1-0.9-0.2c-0.3-0.1-0.5-0.3-0.7-0.4c-0.2-0.2-0.4-0.4-0.5-0.6
					c-0.1-0.2-0.2-0.5-0.2-0.8c0-0.3,0.1-0.5,0.2-0.8c0.1-0.2,0.3-0.4,0.6-0.6c0.2-0.2,0.5-0.3,0.9-0.4C89.7,57,90,57,90.4,57
					c0.4,0,0.7,0,1.1,0.1c0.4,0.1,0.7,0.1,1,0.3v-0.7c0-0.7-0.2-1.2-0.6-1.6c-0.4-0.4-0.9-0.6-1.5-0.6c-0.3,0-0.7,0.1-1,0.2
					c-0.4,0.1-0.7,0.3-1.1,0.6l-0.2-0.3c0.9-0.6,1.7-0.9,2.4-0.9c0.8,0,1.4,0.2,1.8,0.7c0.4,0.5,0.7,1.1,0.7,1.9v3.5
					c0,0.2,0.1,0.3,0.2,0.3v0.4c0,0-0.1,0-0.1,0c-0.1,0-0.3-0.1-0.4-0.2c-0.1-0.1-0.2-0.2-0.2-0.4v-0.6c-0.3,0.4-0.7,0.7-1.2,0.9
					C90.9,60.8,90.4,61,89.9,61z M89.9,60.6c0.5,0,1-0.1,1.5-0.3c0.4-0.2,0.8-0.5,1-0.8c0.1-0.2,0.2-0.4,0.2-0.5v-1.3
					c-0.7-0.3-1.4-0.4-2.1-0.4c-0.7,0-1.3,0.1-1.7,0.4c-0.4,0.3-0.6,0.7-0.6,1.1c0,0.2,0,0.5,0.1,0.7c0.1,0.2,0.2,0.4,0.4,0.5
					c0.2,0.2,0.3,0.3,0.6,0.4C89.4,60.5,89.7,60.6,89.9,60.6z"/>
				<path class="st3" d="M99,60.5c0,0-0.1,0-0.1,0.1c-0.1,0-0.2,0.1-0.3,0.1c-0.1,0-0.2,0.1-0.4,0.1c-0.1,0-0.3,0.1-0.5,0.1
					c-0.2,0-0.3,0-0.5-0.1c-0.1-0.1-0.3-0.1-0.4-0.2c-0.1-0.1-0.2-0.2-0.3-0.3c-0.1-0.1-0.1-0.3-0.1-0.5v-5.3h-1v-0.4h1v-2.3h0.4
					v2.3h1.6v0.4h-1.6v5.2c0,0.2,0.1,0.4,0.3,0.6c0.2,0.1,0.4,0.2,0.6,0.2c0.1,0,0.3,0,0.4,0c0.1,0,0.2-0.1,0.3-0.1
					c0.1,0,0.2-0.1,0.2-0.1c0.1,0,0.1-0.1,0.1-0.1L99,60.5z"/>
				<path class="st3" d="M104.5,61c-0.5,0-0.9-0.1-1.3-0.3c-0.4-0.2-0.7-0.4-1-0.8c-0.3-0.3-0.5-0.7-0.7-1.1s-0.3-0.9-0.3-1.4
					c0-0.5,0.1-0.9,0.2-1.3c0.2-0.4,0.4-0.8,0.7-1.1c0.3-0.3,0.6-0.6,1-0.7c0.4-0.2,0.8-0.3,1.3-0.3c0.5,0,0.9,0.1,1.3,0.3
					c0.4,0.2,0.7,0.4,1,0.7c0.3,0.3,0.5,0.7,0.7,1.1c0.2,0.4,0.3,0.9,0.3,1.3c0,0,0,0.1,0,0.1c0,0.1,0,0.1,0,0.1h-6
					c0,0.4,0.1,0.8,0.3,1.1c0.2,0.4,0.4,0.7,0.6,0.9c0.3,0.3,0.5,0.5,0.9,0.6c0.3,0.1,0.7,0.2,1,0.2c0.2,0,0.5,0,0.7-0.1
					c0.2-0.1,0.5-0.2,0.7-0.3c0.2-0.1,0.4-0.3,0.5-0.4c0.2-0.2,0.3-0.3,0.4-0.5l0.4,0.1c-0.1,0.2-0.2,0.4-0.4,0.6
					c-0.2,0.2-0.4,0.4-0.6,0.5c-0.2,0.1-0.5,0.3-0.8,0.3C105.1,60.9,104.8,61,104.5,61z M107.3,57.3c0-0.4-0.1-0.8-0.3-1.2
					c-0.2-0.4-0.4-0.7-0.6-0.9c-0.3-0.3-0.5-0.5-0.9-0.6c-0.3-0.1-0.7-0.2-1.1-0.2c-0.4,0-0.7,0.1-1.1,0.2c-0.3,0.1-0.6,0.3-0.9,0.6
					c-0.2,0.3-0.4,0.6-0.6,0.9c-0.1,0.4-0.2,0.7-0.3,1.1H107.3z"/>
			</g>
		</g>
		<g>
			<g>
				<g>
					<path class="st4" d="M112.4,54v-1.6h0.7c0.1,0,0.1,0,0.2,0c0.1,0,0.1,0.1,0.2,0.1c0,0,0.1,0.1,0.1,0.2c0,0.1,0,0.1,0,0.2
						c0,0.1,0,0.1,0,0.2c0,0,0,0.1-0.1,0.1c0,0-0.1,0.1-0.1,0.1c0,0-0.1,0.1-0.1,0.1l0.4,0.6h-0.3l-0.3-0.6h-0.4V54H112.4z
						 M112.6,53.2h0.4c0,0,0.1,0,0.1,0c0,0,0.1,0,0.1-0.1c0,0,0-0.1,0-0.1c0,0,0-0.1,0-0.1c0,0,0-0.1,0-0.1c0,0,0-0.1-0.1-0.1
						c0,0,0,0-0.1-0.1c0,0-0.1,0-0.1,0h-0.4V53.2z"/>
				</g>
			</g>
			<g>
				<path class="st3" d="M113,54.7c-0.8,0-1.5-0.7-1.5-1.5c0-0.8,0.7-1.5,1.5-1.5c0.8,0,1.5,0.7,1.5,1.5
					C114.5,54,113.8,54.7,113,54.7z M113,51.9c-0.7,0-1.3,0.6-1.3,1.3s0.6,1.3,1.3,1.3s1.3-0.6,1.3-1.3S113.7,51.9,113,51.9z"/>
			</g>
		</g>
	</g>
</g>
</svg>
