<?xml version="1.0" encoding="utf-8"?>
<!-- Generator: Adobe Illustrator 23.0.1, SVG Export Plug-In . SVG Version: 6.00 Build 0)  -->
<svg version="1.1" id="Capa_1" xmlns="http://www.w3.org/2000/svg" xmlns:xlink="http://www.w3.org/1999/xlink" x="0px" y="0px"
	 viewBox="0 0 150 150" style="enable-background:new 0 0 150 150;" xml:space="preserve">
<style type="text/css">
	.st0{fill:#00FFFF;}
	.st1{fill:#FC17C1;}
</style>
<g>
	<path class="st0" d="M75.8,102.5c-1.8,0-3.7,0-5.5,0c-6.8,0-13.6,0-20.5,0c-1.8,0-3.7,0-5.5,0c-3.6,0.1-6.5-0.8-8.1-4.4
		c-0.2-0.4-0.6-0.3-0.9-0.3c-2.3,0-4.6,0-6.9,0c-1.8,0-3.7,0-5.5,0c-2.5-0.2-4.9-0.1-6.9,1.6c-2.1,1.8-4.2,3.6-6.4,5.3
		c-1.2,1-2.8,1.8-3.5,3.3c-0.8,1.6-0.7,3.8-0.5,5.5c0.5,4.7,7.8,3.1,10.5,1.3c3.5-2.4,7.1-4.6,10.6-6.9c0.9-0.6,1.8-0.9,2.9-0.9
		c3.6,0,7.3,0,10.9,0c1.8,0,3.7,0,5.5,0c6.8,0,13.6,0,20.5,0c1.8,0,3.7,0,5.5,0c6.8,0,13.6,0,20.5,0c1.8,0,3.7,0,5.5,0
		c6.8,0,13.6,0,20.5,0c1.6,0.2,3.2-0.3,4.6,0.9c2.5,1.6,5,3.3,7.5,4.9c1.6,1.1,3.2,2.7,5.1,3.3c2,0.6,5.4,1,7.2-0.4
		c2-1.5,2.6-5.9,0.7-7.7c-1.9-1.9-4-3.6-6.1-5.2c-1.8-1.5-3.5-3.4-5.7-4.2c-2.5-1-5.3-0.4-8-0.5c-3.1-0.1-6.1,0-9.2-0.1
		c-0.7,0-1,0.2-1.3,0.8c-1.3,2.6-3.5,3.8-6.4,3.8c-1.7,0-3.4,0-5.2,0c-1.8,0-3.7,0-5.5,0C89.5,102.5,82.7,102.5,75.8,102.5z"/>
	<path class="st0" d="M105,137.1c0-1.2-1-2.3-2.3-2.3c-1.2,0-2.3,1-2.3,2.2c0,1.3,1,2.4,2.4,2.4C103.9,139.3,105,138.3,105,137.1z"
		/>
	<path class="st1" d="M70.4,24.5c-9.9,1.7-17.1,7.3-22.5,15.5c-6.3,9.6-7.8,23.9,2,31.8c0.9,0.9,2,1.7,3.2,2.2
		c4.8,3,10.1,4.3,15.6,4.9c1.7,0.3,3.5,0.5,5.2,0.4c7,0.2,13.9-0.8,20.3-3.8c13.4-6.1,15.1-18.2,11.5-28.2c-0.4-1.5-0.9-2.8-1.7-4.1
		c-5.1-10.9-15.6-18-27.4-19.1C74.4,23.9,72.4,24.1,70.4,24.5z"/>
	<g id="E8scPH_1_">
		<g>
			<path d="M86.2,1.1L86.2,1.1c3.4,0.6,4.8,3.3,5.7,6.2c0.2,0.5,0.2,1,0.9,1.1c4.6,1.6,8.7,4,12.6,7c1.1,1,2.2,2.1,3.3,3.1
				c1.7,1.6,3.2,3.8,4.5,5.7c0.9,1.3,1.8,4.3,3.2,5.1c0.4,0.2,0.8,0.2,1.2,0.3c2,0.2,4,0.5,6,0.7c4.3,0.5,6.7,3.2,6.7,7.5
				c0,1.5,0,3.1,0,4.6c0,1.8,0,3.7,0,5.5c0,5.2,0,10.4-0.1,15.5c0,3.8-2.4,6.6-6.1,7.2c-1.8,0.3-3.5,0.5-5.3,0.6
				c-0.9,0.1-1.4,0.4-1.8,1.2c-3.5,7-8.8,12.1-15.8,15.5c-0.3,0.1-0.7,0.2-0.9,0.6c0.8,0,1.5,0,2.3,0c2.6,0.1,5.3-0.4,7.8,0.7
				c1,0.6,1.8,1.4,2.6,2.2c0.5,0.6,0.4,1.7,1.7,1.7c6,0.1,11.9-0.3,18,0.3c0-2.4,0-4.7,0-7.1c0-1.5-0.9-2.4-2.4-2.4
				c-3.3,0-6.6,0-9.9,0c-1.8,0-3.7,0-5.5,0c-0.5,0-0.6-0.3-0.6-0.7c0-1,0.1-2,0-3c0-0.7,0.2-1,0.9-1c1.7,0,3.4,0,5.1,0
				c1.8,0,3.7,0,5.5,0c1.6,0,3.3,0,4.9,0.1c2.8,0.1,5.4,2,6.3,4.7c0.4,1.1,0.3,2.3,0.4,3.4c0,1.8,0,3.7,0,5.5c0,0.4,0,0.9-0.1,1.3
				c-0.3,1.6,0.4,2.6,1.7,3.6c1.5,1.1,2.8,2.5,4.4,3.6c2.4,1.8,4.5,3.5,5.2,6.5c1,4,0.7,9.7-3.2,12c-0.7,0.4-0.8,0.7-0.6,1.5
				c1.4,7.9,2.7,15.9,4,23.8c0.7,3.9-4.1,4.7-4.7,0.5c-1-8-2.4-14.6-3.6-22.6c-0.3-2.1-4.2-2.1-5.7-2.7c-2.4-0.9-4.6-2.1-6.7-3.6
				c-0.7-0.5-4.9-2.6-4.9-3.5c-0.3,6.1-0.7,12.1-1.1,18.2c-0.2,3.1-0.4,6.2-0.6,9.3c-0.1,1.9,0.2,3.8-0.4,5.6
				c-0.5,1.6-2.8,3.2-4.1,1.4c-0.7-1-0.6-2.9-0.6-4.1c0-2.7,0.5-5.4,0.7-8.2c0.5-7.7,1-15.2,1.4-23.1c0.3-0.8-0.1-0.9-0.8-0.9
				c-1.6,0-3.1,0-4.7,0.1c-1.1,0-2.2,0-3.3,0c-0.5,0-0.9,0-1.1,0.7c-0.5,1.8-1.1,3.6-1.7,5.4c-0.7,1.9-1.4,3.9-2,5.8
				c-0.4,1.1-1,1.8-2.2,2c-1.6,0.3-3.2,0.8-4.7,1.1c-3.4,0.7-6.7,1.4-10.1,2.2c-1.2,0.3-3,0.1-3.6,1s-0.1,2.5-0.2,3.8
				c-0.1,0.9,0.2,1.1,1.1,1.1c1.7,0,3.3-0.4,5,0.4c1.2,1.1,0.8,2.6,1,3.9c0,2.5,0.8,6.7-0.7,8.8c-0.2,0.2-0.4,0.5-0.7,0.6
				c-0.2,0.1-0.5,0.1-0.7,0.1c-4.8,0-9.5,0-14.3,0c-2.4,0-4.8,0-7.2,0c-1.2,0-2.4,0-3.6,0c-1.4,0-2.8,0.6-4-0.4
				c-1.9-1.5-1.1-5.4-1.1-7.4c0-1,0-2,0.1-3c0-2.3,0.8-3,3-3c1.3,0,3,0.6,3.7-0.3c0.6-0.8,0.2-2.5,0.2-3.8c0-0.1,0-0.3,0-0.4
				c0-0.5-0.2-0.6-0.6-0.7c-4.5-0.9-9-1.9-13.5-2.9c-1.5-0.5-3.1-0.8-4.6-1.1c-1.2-0.3-1.8-1.1-2.1-2.3c-0.7-2.1-1.4-4.1-2.1-6.1
				c-0.4-1.1-0.9-4.8-2.1-5.3c-0.3-0.1-0.7-0.2-1-0.2c-1.7,0-3.4,0-5.1,0c-1.6,0-3-0.2-3.3,1.6c-0.2,1.2,0.5,6.1,0.6,7.3
				c0.2,2.9,0.4,5.8,0.6,8.7c0.2,3,0.4,6.1,0.6,9.1c0.2,2.6,1.1,6.4,0.3,9c-0.1,0.3-0.3,0.7-0.5,0.9s-0.6,0.3-0.9,0.3
				c-1.4,0.2-2.9-0.3-3.1-1.9c-0.5-5.4-0.7-10.9-1-16.3c-0.2-2.8-0.3-5.6-0.5-8.5c-0.1-1.4-0.2-2.9-0.3-4.3c0-0.5-0.6-3.9-0.3-4.1
				c-2.7,1.7-5.3,3.3-7.7,5.1c-2.4,1.8-4.9,2.7-7.9,2.3c-1-0.1-1.2,0.4-1.3,1.2c-0.2,1.5-0.5,3-0.7,4.5c-0.7,4.4-1.4,8.9-2.1,13.3
				c-0.5,2.3-0.8,4.7-1.2,7c-0.1,0.4-0.2,0.8-0.4,1.2c-0.3,0.4-0.8,0.6-1.2,0.7c-4.3,1.5-2.7-4.5-2.3-6.7c0.6-3.3,3.3-18.7,3.5-20.1
				c0.2-1.7-0.7-2.1-1.9-3.1c-2.2-1.8-2.3-5.4-2.3-8c0.1-3.2,0.9-5.6,3.2-7.8c2.3-2.3,5.2-4,7.7-6.1c0.4-0.4,0.8-0.7,0.8-1.4
				c-0.1-2.3,0-4.7-0.1-7c0-0.9,0-1.7,0.1-2.6c0.1-3.6,3-6.5,6.6-6.6c0.9,0,1.7,0,2.6-0.1c3.5,0,7,0,10.5,0c3.3,0,3.3,0,3.4,3.3
				c0,1-0.2,1.4-1.3,1.3c-4.8-0.1-9.7,0-14.5,0c-1.7,0-2.6,0.8-2.6,2.4c0,2.4,0,4.8,0,7.3c3.8-0.8,7.5-0.2,11.2-0.5
				c1.8,0,3.7,0,5.5,0c0.8-0.2,1.8,0.6,2.5-0.7c1.4-2.7,3.7-3.9,6.7-3.9c2.1,0,4.3,0,6.4,0c-2.4-1.2-4.6-2.7-6.8-4.1
				c-1.1-0.9-2.2-1.9-3.3-2.8c-2.3-2.4-4.6-4.9-5.9-8c-1.4-3.2-4.7-2.7-7.7-3.1c-0.6-0.1-1.1-0.2-1.6-0.3c-3.3-1.1-4.8-4.5-4.6-7.7
				c0.1-2.3,0-4.6,0-6.9c0-1.8,0-3.7,0-5.5c0-4.2,0-8.4,0.1-12.5c0-4.2,2.6-7,6.7-7.4c2.3-0.2,4.6-0.6,6.9-0.8
				c0.6-0.1,0.8-0.3,1.1-0.8c4-9.5,11.5-16.3,21.8-20c1.1-0.4,1.1-1.2,1.3-2c0.4-1.6,1.2-2.9,2.4-4c1.4-1.2,2.9-1.3,4.7-1.4
				c6.1,0,12.2,0,18.3-0.1C84.5,1,85.4,0.9,86.2,1.1z M71.1,125.6c-0.7,0.2-0.8,1-0.8,1.7c0,1.6,0,3.2-0.1,4.8
				c0,0.4-0.2,2.8,0.6,2.7c2.7-0.1,5.3,0,8,0c0.5,0,0.7-0.2,0.7-0.7c0-2.7,0-5.3,0-8c0-0.2-0.2-0.7-0.8-0.7
				C76.7,125.4,71.7,125.4,71.1,125.6z M24.3,44.8c0,1.8,0,3.7,0,5.5c0,4,0,8.1,0,12.1c0,3.1,0.3,3.4,3.3,3.9
				c0.6,0.1,1.1,0.1,1.7,0.2c1,0.2,1.3-0.1,1-1.1c-0.6-2-0.9-4-1.1-6.1c-0.5-4.3-0.4-8.7,0.1-12.9c0.3-2.2,0.6-4.4,1.1-6.6
				c0.2-0.7,1.1-5.4,1.5-5.4c-2,0.2-3.8,0.4-5.6,0.7c-1.3,0.2-2,1.1-2,2.4C24.2,39.9,24.3,42.4,24.3,44.8z M49.9,97.8
				c1.8,0,3.7,0,5.5,0c6.8,0,13.6,0,20.5,0c1.8,0,3.7,0,5.5,0c6.8,0,13.6,0,20.5,0c1.9,0,3.7,0.1,5.6,0c1.3,0,2.2-1,2.2-2.2
				s-0.9-2.3-2.2-2.4c-0.6-0.1-1.2,0-1.9,0c-6.8,0-13.6,0-20.5,0c-1.8,0-3.7,0-5.5,0c-6.8,0-13.6,0-20.5,0c-1.8,0-3.7,0-5.5,0
				c-3.6,0-7.2,0-10.8,0c-1.5,0-2.5,1-2.5,2.4c0,1.3,1,2.2,2.5,2.2C45.2,97.9,47.5,97.8,49.9,97.8z M121,57.2
				c-0.1,1.6-0.3,3.2-0.6,4.7c-0.2,1-1.4,3.4-0.6,4.3s2.9,0,3.9-0.1c1.4-0.2,2.1-1,2.1-2.4c0-3.4,0-6.8,0-10.2c0-1.8,0-3.7,0-5.5
				c0-3.5,0-7,0-10.5c0-1-0.4-1.9-1.4-2.2c-2-0.6-4.1-0.7-6.3-0.9c1.9,0.2,2.3,9.1,2.5,10.4c0.4,3.7,0.7,7.5,0.5,11.3
				C121,56.5,121,56.8,121,57.2z M35.2,65.6c1.3,4.9,3.8,9.2,7.5,12.7c1,1.1,2.2,2.1,3.5,2.9c4.3,3.2,9.2,5,14.4,6
				c1.6,0.5,3.2,0.7,4.9,0.9c11.5,1.1,24.3,1,34.7-4.6C108,79.3,113,73,115.1,64.4c0.7-2.3,1.1-4.7,1.1-7.1
				C116.4,44,113.8,27.2,102,19c-2.4-2.2-5.2-3.7-8.1-5c-0.3-0.2-0.7-0.4-1,0c-0.7,0.9-1.7,1-2.7,1c-1.5,0-3.1,0-4.6,0
				c-1.8,0-3.7,0-5.5,0c-6.8,0-13.6,0-20.5,0c-0.7-0.1-1.6,0.1-2.1-0.4c-0.9-1.1-1.7-0.7-2.6-0.2c-0.7,0.4-1.5,0.7-2.2,1.1
				C43.6,20.7,38,28.7,35.4,39c-0.9,2.4-1.2,5-1.5,7.5c-0.5,4.8-0.8,9.6,0.2,14.4C34.2,62.5,34.5,64.1,35.2,65.6z M51.9,121.9
				c2.6,0.5,13.8,2.6,13.8,3.1c0-0.3,0.1-0.5,0.1-0.8c0.1-2.7,0.7-3.3,3.3-3.3c3.2,0,6.4,0,9.6-0.1c1.6,0.3,3.4-0.4,4.9,0.7
				c0.8,1,0.5,2.2,0.7,3.4c5.4-1.2,10.7-2.4,16-3.5c0.4-0.1,0.7-0.3,0.8-0.7c1-3,2-6,3-9c-3.9,0-7.7,0-11.5,0c-1.8,0-3.7,0-5.5,0
				c-6.8,0-13.6,0-20.5,0c-1.8,0-3.7,0-5.5,0c-5,0-10.1,0-15.2,0c0.6,1.8,1.3,3.5,1.8,5.3c0.4,1.4,0.5,3.1,1.7,4.1
				c0.6,0.4,1.3,0.6,2,0.8C51.5,121.8,51.7,121.9,51.9,121.9z M65.2,10.2c6.8,0,13.6,0,20.5,0c0.7,0,1.5,0,2.4,0
				c-0.1-0.4-0.3-2-0.6-3.4C87.3,5.9,86,5.6,85,5.6c-5.3,0-10.6,0-15.9,0c-1.3,0-2.6,0-3.9,0c-1,0-1.7,0.5-2.1,1.3
				c-0.4,1-0.7,2.1-1,3.2C63.2,10.2,64.2,10.2,65.2,10.2z M81.6,143.9c0.5,0,0.9,0,1.4,0c3.5,0,3.5,0,3.5-3.5c0-1.3-1.3-1.2-2.3-1.1
				c-1.7,0.1-3.4,0.1-5.1,0.1c-4.1,0-8.2,0-12.2,0c-3.7,0-3.6,0-3.5,3.8c0,0.7,0.2,0.9,0.9,0.9C70.1,144,75.8,144,81.6,143.9z
				 M75.8,102.5c-1.8,0-3.7,0-5.5,0c-6.8,0-13.6,0-20.5,0c-1.8,0-3.7,0-5.5,0c-3.6,0.1-6.5-0.8-8.1-4.4c-0.2-0.4-0.6-0.3-0.9-0.3
				c-2.3,0-4.6,0-6.9,0c-1.8,0-3.7,0-5.5,0c-2.5-0.2-4.9-0.1-6.9,1.6c-2.1,1.8-4.2,3.6-6.4,5.3c-1.2,1-2.8,1.8-3.5,3.3
				c-0.8,1.6-0.7,3.8-0.5,5.5c0.5,4.7,7.8,3.1,10.5,1.3c3.5-2.4,7.1-4.6,10.6-6.9c0.9-0.6,1.8-0.9,2.9-0.9c3.6,0,7.3,0,10.9,0
				c1.8,0,3.7,0,5.5,0c6.8,0,13.6,0,20.5,0c1.8,0,3.7,0,5.5,0c6.8,0,13.6,0,20.5,0c1.8,0,3.7,0,5.5,0c6.8,0,13.6,0,20.5,0
				c1.6,0.2,3.2-0.3,4.6,0.9c2.5,1.6,5,3.3,7.5,4.9c1.6,1.1,3.2,2.7,5.1,3.3c2,0.6,5.4,1,7.2-0.4c2-1.5,2.6-5.9,0.7-7.7
				c-1.9-1.9-4-3.6-6.1-5.2c-1.8-1.5-3.5-3.4-5.7-4.2c-2.5-1-5.3-0.4-8-0.5c-3.1-0.1-6.1,0-9.2-0.1c-0.7,0-1,0.2-1.3,0.8
				c-1.3,2.6-3.5,3.8-6.4,3.8c-1.7,0-3.4,0-5.2,0c-1.8,0-3.7,0-5.5,0C89.5,102.5,82.7,102.5,75.8,102.5z"/>
			<path d="M95.9,135.3c0.8-2.5,2.4-4.2,4.9-4.9c4-0.7,7.4,1.2,8.4,4.8c1,3.5-0.8,7-4.1,8.3c-2.4,0.9-4.7,0.6-6.8-1
				C96.1,140.6,95.3,138.2,95.9,135.3z M105,137.1c0-1.2-1-2.3-2.3-2.3c-1.2,0-2.3,1-2.3,2.2c0,1.3,1,2.4,2.4,2.4
				C103.9,139.3,105,138.3,105,137.1z"/>
			<path d="M43.5,130.1c1.8,0,3.7,0,5.5,0c0.9,0,1.8,0,2.7,0c1.5,0.1,2.4,0.9,2.4,2.4c0,3,0,6,0,9.1c0,1.4-0.9,2.3-2.4,2.4
				c-3,0-6,0-9.1,0c-1.5,0-2.4-0.9-2.4-2.4c0-0.9,0-1.8,0-2.7c0-1.8,0-3.7,0-5.5C40.5,130.7,41,130.3,43.5,130.1z M47.4,139.4
				c2.2,0,2.2,0,2.2-2.1c0-2.5,0-2.5-2.4-2.5c-2.2,0-2.2,0-2.2,2.1C45,139.4,45,139.4,47.4,139.4z"/>
			<path d="M49.5,77.2c-1.2-0.8-2.4-1.7-3.5-2.6c-4.8-4.1-7.6-10.5-7.9-16.8c-0.3-5.7,1.4-11.9,3.9-17C45.9,33,52.5,27.1,60,23
				c5.1-2.8,10.6-3.7,16.4-3.7c1.6,0.2,3.3,0.4,4.9,0.6c5,1.1,9.6,3.2,13.8,6.1c1,0.8,2,1.6,3,2.4c3.6,3.3,6.6,7,9.1,11.2
				c0.7,1.4,1.3,2.7,2,4.1c1.4,3.9,2.6,7.9,2.6,12.1c0,1.8-0.2,3.6-0.4,5.4c-1.7,14.1-17.3,21-29.8,22.4c-4,0.5-8.1,0.5-12.1,0.1
				c-0.3,0-0.7,0-1,0c-1.5-0.2-3.1-0.4-4.6-0.7C59.1,82.4,53.9,80.1,49.5,77.2z M70.4,24.5c-9.9,1.7-17.1,7.3-22.5,15.5
				c-6.3,9.6-7.8,23.9,2,31.8c0.9,0.9,2,1.7,3.2,2.2c4.8,3,10.1,4.3,15.6,4.9c1.7,0.3,3.5,0.5,5.2,0.4c7,0.2,13.9-0.8,20.3-3.8
				c13.4-6.1,15.1-18.2,11.5-28.2c-0.4-1.5-0.9-2.8-1.7-4.1c-5.1-10.9-15.6-18-27.4-19.1C74.4,23.9,72.4,24.1,70.4,24.5z"/>
			<path d="M47.1,54.3c0.6-4.4,2.3-8.5,4.8-12.2c1-1.4,2-2.7,3.2-3.9c0.9-1,2.1-2.4,3.5-2.6c0.8-0.1,1.7,0.3,2.1,1
				c0.8,1.3,0.1,2.5-0.8,3.4c-4.8,4.6-8.8,11.3-8.2,18.2c0.1,1.8,0.7,4.7-1.9,5c-3.7,0.4-3.1-5.9-2.8-8C47,54.9,47.1,54.6,47.1,54.3
				z"/>
			<path d="M64.9,30.8c0.7-0.1,1.5,0,2,0.2c1.3,0.4,1.5,1.3,1.4,2.6c-0.1,1.7-1.7,2.1-3.2,2.1c-1.9-0.1-2.7-3.2-1.3-4.4
				C64,31,64.4,30.8,64.9,30.8z"/>
		</g>
	</g>
</g>
</svg>
